<?xml version="1.0" encoding="UTF-8" standalone="no"?>
<!-- Created with Inkscape (http://www.inkscape.org/) -->

<svg
   version="1.1"
   id="svg2"
   width="5333.3335"
   height="5333.3335"
   viewBox="0 0 5333.3335 5333.3335"
   sodipodi:docname="astronot.svg"
   inkscape:version="1.2.2 (b0a8486541, 2022-12-01)"
   xmlns:inkscape="http://www.inkscape.org/namespaces/inkscape"
   xmlns:sodipodi="http://sodipodi.sourceforge.net/DTD/sodipodi-0.dtd"
   xmlns="http://www.w3.org/2000/svg"
   xmlns:svg="http://www.w3.org/2000/svg">
  <defs
     id="defs6" />
  <sodipodi:namedview
     id="namedview4"
     pagecolor="#ffffff"
     bordercolor="#000000"
     borderopacity="0.25"
     inkscape:showpageshadow="2"
     inkscape:pageopacity="0.0"
     inkscape:pagecheckerboard="0"
     inkscape:deskcolor="#d1d1d1"
     showgrid="false"
     inkscape:zoom="0.088124997"
     inkscape:cx="2683.688"
     inkscape:cy="2666.6667"
     inkscape:window-width="1366"
     inkscape:window-height="707"
     inkscape:window-x="0"
     inkscape:window-y="0"
     inkscape:window-maximized="1"
     inkscape:current-layer="g10">
    <inkscape:page
       x="0"
       y="0"
       id="page8"
       width="5333.3335"
       height="5333.3335" />
  </sodipodi:namedview>
  <g
     id="g10"
     inkscape:groupmode="layer"
     inkscape:label="Page 1"
     transform="matrix(1.3333333,0,0,-1.3333333,0,5333.3333)">
    <path
       d="M 0,0 H 4000 V 4000 H 0 Z"
       style="fill:#3aaaff;fill-opacity:1;fill-rule:nonzero;stroke:none;stroke-width:0.1"
       id="path14" />
    <path
       d="m 3055.24,2196.42 208.08,-31.4 c 16.15,-2.43 31.07,-10.24 41.97,-22.42 17.41,-19.46 38.62,-53.84 35.98,-104.23 l -231.45,-149.9 -54.58,307.95"
       style="fill:#ff1d3e;fill-opacity:1;fill-rule:nonzero;stroke:none;stroke-width:0.1"
       id="path46" />
    <path
       d="m 3309.69,2104.87 c -0.75,0.89 -1.5,1.75 -2.24,2.58 -10.89,12.18 -25.82,19.95 -42,22.39 l -180.5,27.23 c -1.55,5.76 -3.17,11.59 -4.82,17.41 l 180.51,-27.23 c 12.2,-1.84 23.3,-7.75 31.25,-16.64 5.99,-6.7 12.36,-15.25 17.8,-25.74"
       style="fill:#fba0ae;fill-opacity:1;fill-rule:nonzero;stroke:none;stroke-width:0.1"
       id="path48" />
    <path
       d="m 3071.29,1659.56 c -37.34,-34.38 -107.23,-95.45 -195.28,-157.56 l -179.13,-112.13 -54.09,60.84 -420.46,472.96 -226.34,488.49 -91.1,196.59 -86.86,390.46 c 0,0 280.72,242.28 759.67,-132.6 32.05,-25.06 64.98,-52.89 98.74,-83.73 189.44,-173 298.21,-359.63 359.53,-529.01 52.43,-144.63 70.28,-276.64 74.37,-376.71 1.4,-33.86 1.16,-64.09 0.21,-89.84 -0.87,-22.23 -2.29,-41.2 -3.74,-56.39 -2.68,-27.37 -15.26,-52.71 -35.52,-71.37"
       style="fill:#f7f7f7;fill-opacity:1;fill-rule:nonzero;stroke:none;stroke-width:0.1"
       id="path50" />
    <path
       d="m 2577.7,2866.61 c 0,0 -94.7,-399.75 -461.7,-537.91 l -120.01,83.46 -91.1,196.59 -86.86,390.46 c 0,0 280.72,242.28 759.67,-132.6"
       style="fill:#ff1d3e;fill-opacity:1;fill-rule:nonzero;stroke:none;stroke-width:0.1"
       id="path52" />
    <path
       d="m 3071.29,1659.56 c -37.34,-34.38 -107.23,-95.45 -195.28,-157.56 l -179.13,-112.13 -54.09,60.84 102.96,90.82 c 114.45,47.35 234.03,154.79 234.03,154.79 l 130.77,91 c -0.87,-22.23 -2.29,-41.2 -3.74,-56.39 -2.68,-27.37 -15.26,-52.71 -35.52,-71.37"
       style="fill:#ff1d3e;fill-opacity:1;fill-rule:nonzero;stroke:none;stroke-width:0.1"
       id="path54" />
    <path
       d="m 3110.34,1877.16 c -19.13,-71.11 -56.9,-143.89 -130.56,-180.84 0,0 -119.58,-107.44 -234.03,-154.79 l -252.82,219.05 c 390.23,146.88 543.04,493.29 543.04,493.29 52.43,-144.63 70.28,-276.64 74.37,-376.71"
       style="fill:#3e96ff;fill-opacity:1;fill-rule:nonzero;stroke:none;stroke-width:0.1"
       id="path56" />
    <path
       d="m 3030.57,1732.04 c 12.67,12.02 23.75,25.37 33.41,39.62 3.79,-3.5 7.19,-6.75 10.17,-9.66 l -39.81,-27.71 -3.77,-2.25 m -330.28,159.2 c -22.11,36.53 -48.19,69.91 -72.76,96.14 -43.57,46.52 -88.37,55.14 -115.58,55.14 -5.21,0 -9.78,-0.32 -13.57,-0.75 -20.58,23.9 -50.45,48.11 -72.64,64.72 -4.58,34.67 -17.28,67.31 -43.72,88.16 -10.44,7.69 -21.48,10.98 -32.36,10.98 -18.07,0 -35.71,-9.06 -49.55,-22.12 -19.14,11.27 -40.6,18.23 -62.81,20.69 -2.11,0.25 -4.22,0.44 -6.32,0.58 5.47,27.86 9.36,56.17 11.61,84.81 2.74,34.75 3.06,69.3 1.04,103.45 31.33,20.26 59.95,42.44 86.05,65.8 6.64,-34.16 10.54,-70.35 11.13,-108.59 118.57,-172.4 268.83,-348.13 420.51,-412.02 -19.17,-15.98 -39.5,-31.72 -61.03,-46.99"
       style="fill:#bdb4c1;fill-opacity:1;fill-rule:nonzero;stroke:none;stroke-width:0.1"
       id="path58" />
    <path
       d="m 2243.63,2393.04 c -9.5,160.77 -70.98,312.85 -177.95,436.41 -23.44,27.07 -48.55,52.19 -75.14,75.27 114.7,-67.76 293,-208.41 339.14,-445.88 -26.1,-23.36 -54.72,-45.54 -86.05,-65.8"
       style="fill:#c31c40;fill-opacity:1;fill-rule:nonzero;stroke:none;stroke-width:0.1"
       id="path60" />
    <path
       d="m 2925.04,1595.26 c -12.13,0 -23.52,3.01 -34.23,8.44 38.71,27.1 70.19,52.84 87.25,67.32 3.02,-2.08 6.59,-3.16 10.19,-3.16 3.15,0 6.33,0.83 9.2,2.54 l 71.08,42.42 c -24.45,-37.05 -47.28,-64.14 -68.52,-82.89 -5.78,-1.54 -11.33,-3.9 -16.64,-7.06 -12.26,-7.29 -25.08,-15.75 -38.06,-24.89 -6.97,-1.84 -13.73,-2.72 -20.27,-2.72 m 109.3,139.03 39.81,27.71 c 0.87,-0.85 1.7,-1.67 2.49,-2.46 l -42.3,-25.25"
       style="fill:#c31c40;fill-opacity:1;fill-rule:nonzero;stroke:none;stroke-width:0.1"
       id="path62" />
    <path
       d="m 2860.72,1626.73 c -47,48.85 -77.09,144.43 -93.64,212.96 l -2.18,-130.1 c -4.04,8.41 -7.67,14.96 -10.07,19.08 0.04,42.39 -14.89,87.96 -36.88,130.95 30.67,21.53 58.82,43.82 84.48,66.11 45.36,-86.57 118,-182.96 152.57,-227.07 -17.73,-14.99 -52.38,-43.22 -94.28,-71.93 m 131.74,82.57 c -21.97,27.68 -77.25,99.03 -123.26,172.73 87.41,-20.51 158.77,-77.07 194.78,-110.37 -9.66,-14.25 -20.74,-27.6 -33.41,-39.62 l -38.11,-22.74"
       style="fill:#3c71c7;fill-opacity:1;fill-rule:nonzero;stroke:none;stroke-width:0.1"
       id="path64" />
    <path
       d="m 3059.56,2111.17 c -8.25,30.08 -17.92,60.98 -29.22,92.47 0.75,1.33 1.48,2.64 2.18,3.91 10.7,-32.99 19.63,-65.23 27.04,-96.38"
       style="fill:#aed1fb;fill-opacity:1;fill-rule:nonzero;stroke:none;stroke-width:0.1"
       id="path66" />
    <path
       d="m 3013.34,2248.39 c -63.59,158.2 -169.59,328.9 -343.9,488.09 -33.77,30.83 -66.69,58.66 -98.74,83.73 -1.88,1.46 -3.71,2.89 -5.58,4.34 3.05,9.07 5.49,16.87 7.38,23.22 29.79,-23.52 60.4,-49.49 91.81,-78.18 184.24,-168.25 291.04,-349.93 352,-515.23 -0.83,-1.7 -1.82,-3.69 -2.97,-5.97"
       style="fill:#f8f8f8;fill-opacity:1;fill-rule:nonzero;stroke:none;stroke-width:0.1"
       id="path68" />
    <path
       d="m 2565.12,2824.55 c -206.35,159.95 -375.68,205.27 -501.18,205.27 -85.04,0 -149.95,-20.78 -192.74,-40.74 -6.78,3.84 -13.6,7.56 -20.51,11.19 31.51,19.6 97.98,52.45 195.35,57.37 7.75,0.39 15.78,0.6 24.11,0.6 116.17,0 287.84,-41.19 502.35,-210.47 -1.89,-6.35 -4.33,-14.15 -7.38,-23.22"
       style="fill:#fba0ae;fill-opacity:1;fill-rule:nonzero;stroke:none;stroke-width:0.1"
       id="path70" />
    <path
       d="m 2696.88,1371.89 c -4.95,0 -9.89,2.04 -13.44,6.04 l -474.57,533.79 c -1.16,1.32 -2.13,2.8 -2.87,4.39 l -317.43,685.06 c -0.55,1.17 -0.96,2.39 -1.24,3.65 l -86.87,390.49 c -1.44,6.46 0.79,13.18 5.8,17.51 3.45,2.98 86.3,73.07 237.97,80.73 137.69,6.99 361.38,-39 644.33,-297.41 460.04,-420.12 450.12,-922.85 436.13,-1066.92 -3.1,-31.83 -17.73,-61.26 -41.22,-82.87 -34.78,-32.01 -106.63,-95.22 -197.09,-159.04 -8.11,-5.72 -19.33,-3.79 -25.06,4.33 -5.72,8.11 -3.78,19.33 4.33,25.05 88.81,62.65 159.34,124.71 193.48,156.12 16.96,15.61 27.53,36.87 29.77,59.88 13.59,139.88 23.12,628.04 -424.59,1036.9 -273.79,250.05 -487.33,294.65 -618.27,288.05 -113.29,-5.72 -184.75,-49.26 -207.99,-65.75 l 83.96,-377.37 315.5,-680.89 472.8,-531.81 c 6.6,-7.42 5.93,-18.79 -1.49,-25.39 -3.42,-3.04 -7.69,-4.54 -11.94,-4.54"
       style="fill:#371a45;fill-opacity:1;fill-rule:nonzero;stroke:none;stroke-width:0.1"
       id="path72" />
    <path
       d="m 2116.02,2310.73 c -7.27,0 -14.11,4.44 -16.83,11.65 -3.49,9.29 1.2,19.66 10.5,23.16 353.94,133.25 449.58,521.33 450.5,525.24 2.29,9.66 11.96,15.63 21.64,13.35 9.66,-2.29 15.64,-11.98 13.35,-21.64 -0.99,-4.19 -25.1,-103.97 -95.24,-222.18 -64.92,-109.42 -183.13,-255.22 -377.59,-328.42 -2.08,-0.79 -4.22,-1.16 -6.33,-1.16"
       style="fill:#371a45;fill-opacity:1;fill-rule:nonzero;stroke:none;stroke-width:0.1"
       id="path74" />
    <path
       d="m 2492.92,1742.59 c -7.28,0 -14.12,4.44 -16.83,11.65 -3.5,9.3 1.2,19.66 10.49,23.16 378.21,142.33 531.45,480.34 532.95,483.74 4.03,9.08 14.64,13.18 23.71,9.17 9.08,-4.01 13.19,-14.61 9.19,-23.69 -1.6,-3.63 -40.22,-90.12 -127.79,-195.79 -80.76,-97.45 -220.11,-229.83 -425.39,-307.08 -2.09,-0.79 -4.23,-1.16 -6.33,-1.16"
       style="fill:#371a45;fill-opacity:1;fill-rule:nonzero;stroke:none;stroke-width:0.1"
       id="path76" />
    <path
       d="m 3341.27,2038.37 h 0.05 -0.05 m -231.44,-167.89 c -5.89,0 -11.66,2.9 -15.11,8.21 -5.39,8.34 -3.01,19.47 5.32,24.87 l 223.47,144.72 c -0.41,39.03 -17.11,66.11 -31.62,82.33 -7.95,8.89 -19.05,14.8 -31.25,16.64 l -208.07,31.39 c -9.82,1.48 -16.58,10.64 -15.1,20.46 1.48,9.82 10.68,16.58 20.46,15.09 L 3266,2182.8 c 20.46,-3.08 39.17,-13.1 52.68,-28.21 20.12,-22.47 43.48,-61.05 40.55,-117.16 -0.31,-5.76 -3.35,-11.02 -8.18,-14.15 l -231.46,-149.91 c -3.02,-1.95 -6.41,-2.89 -9.76,-2.89"
       style="fill:#371a45;fill-opacity:1;fill-rule:nonzero;stroke:none;stroke-width:0.1"
       id="path78" />
    <path
       d="m 2849.45,1994.4 c 0,0 178.41,-24 251.26,-90.13 l 73.22,-107.61 -185.69,-110.82 c 0,0 -123.8,150.89 -180.18,268.73 l 41.39,39.83"
       style="fill:#ff1d3e;fill-opacity:1;fill-rule:nonzero;stroke:none;stroke-width:0.1"
       id="path80" />
    <path
       d="m 2829.99,1950.73 c 47.3,-93.39 133.62,-205.08 162.47,-241.43 l 155.87,93.02 -61.24,90.01 c -59.97,52.73 -196.23,77.34 -231.56,82.97 l -25.54,-24.57 m 158.26,-282.87 c -5.24,0 -10.39,2.29 -13.91,6.58 -5.11,6.23 -125.83,153.93 -182.5,272.37 -3.35,7 -1.83,15.34 3.75,20.72 l 41.39,39.82 c 3.96,3.81 9.42,5.6 14.87,4.86 7.51,-1 184.82,-25.53 260.94,-94.63 1.06,-0.95 1.99,-2.03 2.78,-3.2 l 73.23,-107.6 c 2.78,-4.1 3.76,-9.16 2.69,-14 -1.07,-4.84 -4.09,-9.02 -8.34,-11.56 l -185.7,-110.82 c -2.87,-1.71 -6.05,-2.54 -9.2,-2.54"
       style="fill:#371a45;fill-opacity:1;fill-rule:nonzero;stroke:none;stroke-width:0.1"
       id="path82" />
    <path
       d="m 3129.5,1752.16 c -5.85,0 -11.6,2.85 -15.05,8.12 -81.02,123.52 -292.21,148.64 -294.33,148.88 -9.86,1.11 -16.97,10.01 -15.86,19.87 1.11,9.87 10.04,16.96 19.86,15.87 9.35,-1.05 230.04,-27.15 320.4,-164.9 5.44,-8.3 3.13,-19.45 -5.17,-24.9 -3.04,-1.99 -6.47,-2.94 -9.85,-2.94"
       style="fill:#371a45;fill-opacity:1;fill-rule:nonzero;stroke:none;stroke-width:0.1"
       id="path84" />
    <path
       d="m 2745.75,1523.55 c -7.06,0 -13.75,4.18 -16.62,11.11 -3.8,9.18 0.56,19.69 9.74,23.49 110.31,45.64 227.74,150.5 228.92,151.55 7.37,6.63 18.75,6.03 25.38,-1.36 6.64,-7.39 6.03,-18.76 -1.36,-25.39 -4.98,-4.47 -123.24,-110.06 -239.19,-158.03 -2.25,-0.93 -4.58,-1.37 -6.87,-1.37"
       style="fill:#371a45;fill-opacity:1;fill-rule:nonzero;stroke:none;stroke-width:0.1"
       id="path86" />
    <path
       d="m 2706.6,1499.13 c -58.18,-33.16 -137.26,24.39 -207.16,98 -83.68,88.07 -154.23,199.21 -160.1,205.76 -10.87,11.97 -57.18,187.94 -57.18,187.94 l 103.91,121.84 c 0,0 72.84,-48.27 105,-90.39 0,0 62.34,17.93 123.34,-47.19 7.18,-7.69 14.45,-15.89 21.59,-24.53 53.58,-64.54 103.14,-153.07 100.77,-226.77 0,0 97.61,-151.89 -30.17,-224.66"
       style="fill:#f8f8f8;fill-opacity:1;fill-rule:nonzero;stroke:none;stroke-width:0.1"
       id="path88" />
    <path
       d="m 2352.65,1814.95 c 0.15,-0.16 0.31,-0.34 0.47,-0.53 -0.17,0.2 -0.33,0.38 -0.47,0.53 m 317.28,-343.44 c -82.83,0 -195.08,102.53 -334.71,305.99 -4.37,6.37 -8.5,12.39 -9.56,13.71 -8.82,9.74 -29.41,75.49 -60.9,195.06 -2.53,9.6 3.21,19.44 12.81,21.96 9.59,2.55 19.44,-3.2 21.96,-12.8 20.94,-79.5 46.66,-168.45 53.92,-181.41 1.83,-2.23 4.54,-6.15 11.42,-16.17 202.93,-295.72 295.63,-304.3 332.83,-283.11 29.16,16.61 46.67,38.21 53.54,66.01 15.33,61.99 -29.16,132.63 -29.61,133.33 -1.95,3.06 -2.95,6.65 -2.83,10.28 2.41,75.48 -57.28,174.14 -117.51,238.44 -52.1,55.62 -103.26,42.73 -105.41,42.16 -7.05,-1.89 -14.69,0.62 -19.1,6.41 -29.93,39.19 -99.96,85.85 -100.66,86.32 -8.28,5.48 -10.54,16.64 -5.06,24.91 5.49,8.28 16.63,10.55 24.92,5.06 2.87,-1.91 66.65,-44.38 102.4,-85.89 23.55,2.66 77.23,1.04 129.15,-54.39 59.31,-63.32 127.39,-168.28 127.3,-258.71 11.05,-18.92 47.91,-88.99 31.37,-156.36 -9.2,-37.44 -32.98,-67.32 -70.7,-88.81 -14.03,-8 -29.23,-11.99 -45.57,-11.99"
       style="fill:#371a45;fill-opacity:1;fill-rule:nonzero;stroke:none;stroke-width:0.1"
       id="path90" />
    <path
       d="m 2702,1517.28 c -12.92,41.35 -33.89,81.69 -47.11,105.07 36.53,19.72 62.94,48.97 78.47,69.68 12.13,-25.88 27.97,-70.45 17.88,-111.28 -6.52,-26.41 -22.65,-47.21 -49.24,-63.47 m -51.34,136.74 c 0.51,3.64 0.9,7.29 1.17,10.94 3.63,46.89 -7.2,91.51 -26.84,133.14 11.19,43.87 13.98,85.57 12.96,121.03 45.55,-60.34 82.77,-134.86 80.85,-194.77 -0.02,-0.56 -0.01,-1.11 0.02,-1.66 -9.65,-14.8 -33.04,-46.59 -68.16,-68.68"
       style="fill:#beb5c2;fill-opacity:1;fill-rule:nonzero;stroke:none;stroke-width:0.1"
       id="path92" />
    <path
       d="m 2719.27,1507.1 c -6.61,2.83 -12.11,5.13 -16.23,6.81 -0.34,1.13 -0.68,2.25 -1.04,3.37 26.59,16.26 42.72,37.06 49.24,63.47 10.09,40.83 -5.75,85.4 -17.88,111.28 5.08,6.78 9,12.64 11.73,16.96 19.69,-38.21 61.26,-141.39 -25.82,-201.89 m -0.45,215.6 c -0.03,0.55 -0.04,1.1 -0.02,1.66 1.92,59.91 -35.3,134.43 -80.85,194.77 -0.32,11.14 -1.02,21.66 -1.95,31.43 50.05,-60.29 96.6,-141.52 100.58,-212.03 -5.15,-0.07 -10.11,-2.84 -12.75,-7.68 -0.08,-0.14 -1.77,-3.19 -5.01,-8.15"
       style="fill:#371a45;fill-opacity:1;fill-rule:nonzero;stroke:none;stroke-width:0.1"
       id="path94" />
    <path
       d="m 3178.99,1097.22 c 0,0 -129.91,-37.56 -168.2,87.5 0,0 -88.88,-119.39 -248.34,-161.03 l -0.21,-0.07 c -15.72,-4.09 -32.19,-7.47 -49.24,-9.82 -2.85,-0.41 -5.68,-0.78 -8.57,-1.14 0,0 0.02,-0.2 0.11,-0.56 2.67,-14.27 54.1,-297.61 -88.51,-343.93 -55.19,-17.92 -98.3,-5.85 -129.47,21.72 -51.52,45.59 -70.51,133.54 -57.6,198.68 0,0 -287.51,-60.99 -435.56,88.93 0,0 -83.55,0.58 -149.78,63.99 0,0 -136.28,-30.38 -242.09,58.89 -105.81,89.27 -175.79,160.71 -181.49,254.75 0,0 -16.42,17.94 -35.11,44.27 l -0.04,0.05 c -15.67,22 -32.84,49.88 -43.29,78.1 0,0 -352.155,-91.84 -671.657,117.09 0,0 -134.747,-76.19 -215.783,70.22 -16.913,30.54 -24.897,62.6 -25.586,93.62 l 0.008,0.05 c -2.843,117.87 98.244,221.3 209.934,172.99 0,0 54.895,45.64 97.716,2.35 0,0 0.041,-0.06 0.124,-0.17 6.73,-6.78 13.164,-15.85 19.034,-27.67 0.083,-0.11 0.165,-0.22 0.192,-0.38 5.062,-10.25 9.761,-22.59 13.794,-37.36 0,0 0.88,-0.43 2.5,-1.23 22.779,-11.09 195.08,-92.15 308.724,-60.64 121.89,33.8 662.96,216.27 662.96,216.27 l 478.77,-99.02 320.31,-232.21 84.98,-58.35 c 0,0 1.56,-2.47 4.23,-6.9 3.1,-5.14 7.67,-13.04 12.95,-22.83 1.17,-2.16 2.41,-4.44 3.66,-6.76 13.48,-25.59 30.26,-61.27 39.72,-96.1 0,0 51.62,-20.21 108.03,-49.84 0,0 113.08,107.18 196.35,156.74 69.83,41.55 181.35,-121.54 215.49,-175.24 2.37,-3.74 4.37,-6.97 5.98,-9.5 l 0.03,-0.11 c 2.8,-4.49 4.26,-7 4.26,-7 0,0 129.06,-248.09 -39.33,-318.35"
       style="fill:#f8f8f8;fill-opacity:1;fill-rule:nonzero;stroke:none;stroke-width:0.1"
       id="path96" />
    <path
       d="m 1369.16,1459.51 c -4.03,8 -7.68,16.15 -10.71,24.3 -2.67,7.19 -9.51,11.71 -16.87,11.71 -1.49,0 -3,-0.18 -4.51,-0.57 -1.59,-0.41 -76.17,-19.07 -186.47,-19.07 -128.27,0 -304.827,25.25 -470.842,133.79 -2.981,1.95 -6.406,2.93 -9.839,2.93 -3.045,0 -6.097,-0.77 -8.847,-2.33 -0.399,-0.22 -31.539,-17.5 -71.121,-17.5 -10.819,0 -22.275,1.3 -33.899,4.58 -34.585,9.77 -63.574,35.41 -86.157,76.22 -13.861,25.04 -20.93,50.63 -22.822,75.34 21.499,-10.16 58.776,-24.76 95.635,-24.76 45.664,0 90.683,22.38 104.313,103.31 l -10.636,37.88 c 0,0 16.699,-6.54 36.44,-6.54 23.505,0 51.327,9.27 60.438,49.87 8.67,-13.55 14.71,-30.36 18.78,-45.15 1.348,-4.9 4.697,-8.99 9.228,-11.28 1.196,-0.6 6.457,-3.24 14.964,-7.16 2.967,-26.61 -2.377,-56.31 -25.693,-84.83 -34.784,-42.46 -47.96,-57.32 -52.554,-61.75 18.867,-9.45 233.688,-115.12 422.302,-115.12 58.17,0 113.86,10.06 160.53,36.08 11.3,-3.14 22.67,-6.02 34.12,-8.63 21.32,-4.84 42.93,-8.78 64.41,-11.76 l 13.87,-4.71 c 0,0 -29.26,-66.67 -24.06,-134.85"
       style="fill:#beb5c2;fill-opacity:1;fill-rule:nonzero;stroke:none;stroke-width:0.1"
       id="path98" />
    <path
       d="m 2566.07,641.7 c -41.8,0 -71.94,17.44 -91.68,34.98 -51.93,46.14 -71.63,125.64 -66.55,189.93 -73.86,-11.27 -292.57,-31.75 -422.18,93.26 -22.45,1.68 -89.63,10.96 -147.63,62.33 -34.12,-5.42 -151.93,-16.7 -248.1,64.44 -97,81.84 -178.12,158.15 -187.35,261.1 -12.59,14.46 -49.87,59.46 -71.85,108.9 -30.99,-6.47 -106.16,-19.34 -205.6,-16.86 -117.07,2.88 -290.445,28.68 -456.436,134.24 -20.489,-9.13 -69.395,-26.26 -122.417,-11.27 -44.16,12.47 -80.444,43.9 -107.847,93.41 -44.902,81.13 -34.19,184.18 26.065,250.59 46.396,51.16 109.892,67.62 171.587,45.09 15.034,9.7 46.723,25.7 80.038,15.23 30.801,-9.68 53.75,-38.62 68.287,-86.07 34.531,-16.27 190.259,-85.27 291.383,-57.25 120.03,33.28 656.63,214.16 662.04,215.98 3.03,1.03 6.25,1.21 9.39,0.57 l 478.73,-99.02 c 2.49,-0.52 4.85,-1.56 6.91,-3.05 l 320.33,-232.22 c 8.04,-5.83 9.83,-17.07 4,-25.11 -5.83,-8.04 -17.07,-9.83 -25.11,-4 l -317.19,229.95 -470.19,97.25 c -56.4,-19 -542.91,-182.73 -659.3,-215 -127.15,-35.24 -316.15,59.11 -324.129,63.14 -4.531,2.29 -7.88,6.38 -9.228,11.28 -7.499,27.25 -21.689,61.39 -46.698,69.24 -26.285,8.26 -55.05,-14.83 -55.332,-15.07 -5.205,-4.32 -12.413,-5.36 -18.634,-2.67 -50.58,21.88 -101.709,10.06 -140.254,-32.43 -40.961,-45.14 -65.073,-129.81 -21.23,-209.02 22.583,-40.81 51.572,-66.45 86.157,-76.22 54.151,-15.3 104.512,12.64 105.02,12.92 5.85,3.31 13.061,3.08 18.686,-0.6 308.775,-201.87 653.872,-115.61 657.312,-114.72 8.92,2.3 18.17,-2.5 21.38,-11.14 21.5,-57.9 74.32,-115.95 74.85,-116.53 2.79,-3.04 4.44,-6.95 4.69,-11.06 5.06,-83.57 65.45,-149.56 175.13,-242.09 97.45,-82.22 225.34,-55.36 226.62,-55.08 5.85,1.28 11.99,-0.43 16.32,-4.57 59.94,-57.4 136.76,-59.01 137.53,-59.02 4.73,-0.06 9.29,-1.98 12.62,-5.35 139.28,-141.04 416.22,-84.53 419.02,-83.94 5.86,1.24 12.05,-0.56 16.35,-4.8 4.3,-4.25 6.18,-10.37 5,-16.29 -11.08,-55.88 3.27,-138.49 51.69,-181.52 29.93,-26.58 67.68,-32.73 112.21,-18.28 129.5,42.05 76.87,321.15 76.32,323.96 -0.95,4.9 0.18,9.99 3.12,14.02 2.94,4.04 7.43,6.67 12.39,7.27 185.3,22.23 293,163.52 294.07,164.94 4.06,5.43 10.84,8.11 17.49,6.95 6.67,-1.16 12.13,-5.97 14.11,-12.44 31.33,-102.35 133.46,-78.78 145.13,-75.73 32.86,13.98 54.32,35.85 65.57,66.82 32.12,88.4 -32.03,217.75 -36.11,225.83 -28.08,47.39 -113.27,172.13 -174.45,187.77 -10.29,2.62 -18.91,1.74 -26.36,-2.69 -80.63,-47.99 -192.07,-153.29 -193.18,-154.35 -5.58,-5.29 -13.92,-6.45 -20.73,-2.87 -54.81,28.79 -105.72,48.82 -106.23,49.02 -5.3,2.08 -9.31,6.55 -10.8,12.04 -16.61,61.29 -57.99,127.03 -58.4,127.69 -5.31,8.39 -2.82,19.49 5.57,24.81 8.37,5.31 19.48,2.83 24.8,-5.56 1.73,-2.74 41.03,-65.11 60.25,-128.85 15.5,-6.36 50.7,-21.3 90.17,-41.44 29.1,26.91 119.19,108.17 190.16,150.4 15.87,9.45 33.92,11.68 53.67,6.63 86.87,-22.21 185.77,-186.17 196.77,-204.79 0.16,-0.28 0.31,-0.56 0.46,-0.84 3.15,-6.05 76.58,-149.27 38.24,-254.98 -14.78,-40.76 -43.91,-70.45 -86.6,-88.26 -0.63,-0.27 -1.27,-0.49 -1.93,-0.68 -46,-13.29 -136.54,-13.01 -178.8,70.47 -39.36,-42.57 -135.35,-129.54 -279.92,-152.96 10.46,-68.65 35.01,-301.35 -103.68,-346.38 -20.4,-6.62 -38.88,-9.38 -55.51,-9.38"
       style="fill:#371a45;fill-opacity:1;fill-rule:nonzero;stroke:none;stroke-width:0.1"
       id="path100" />
    <path
       d="m 995.054,1799.97 c 89.606,-81.51 200.366,-140.89 324.426,-169.14 25.31,-5.75 51.08,-10.23 77.35,-13.32 12.78,-1.54 25.74,-2.7 38.82,-3.62 39.44,-2.56 78.36,-1.96 116.58,1.61 32.94,3 65.37,8.26 97.04,15.5 38.25,8.73 75.45,20.5 111.32,34.96 13.07,5.31 25.96,10.95 38.67,16.92 232.44,109.65 401.55,336.59 422.88,608.32 31.52,400.28 -269.56,745.98 -672.38,772.24 -77.59,5 -153.38,-2.11 -225.27,-19.93 -8.42,-2.01 -16.82,-4.26 -25.16,-6.69 -22.35,-6.34 -44.28,-13.69 -65.74,-22.03 -49.62,-19.3 -96.78,-43.85 -140.67,-72.91 -43.92,-29 -84.68,-62.62 -121.426,-100.09 -11.691,-11.91 -22.993,-24.2 -33.881,-36.92 -16.305,-19.07 -31.692,-38.91 -46.044,-59.67 -71.723,-103.16 -117.835,-225.72 -128.302,-359.07 -18.14,-230.26 73.791,-442.41 231.787,-586.16"
       style="fill:#ffffff;fill-opacity:1;fill-rule:nonzero;stroke:none;stroke-width:0.1"
       id="path102" />
    <path
       d="m 996.437,1801.5 c 91.133,-82.9 202.993,-141.22 323.503,-168.66 25.52,-5.79 51.47,-10.26 77.13,-13.28 11.77,-1.42 24.44,-2.6 38.73,-3.61 38.73,-2.51 77.85,-1.98 116.24,1.6 32.18,2.93 64.73,8.13 96.77,15.46 37.5,8.56 74.84,20.29 111.01,34.86 12.94,5.26 25.91,10.94 38.57,16.87 239.6,113.03 401.19,345.48 421.7,606.62 15.14,192.26 -45.76,378.11 -171.48,523.32 -126.72,146.37 -303.93,233.99 -498.99,246.7 -76.09,4.91 -151.68,-1.78 -224.63,-19.88 -8.03,-1.91 -16.23,-4.09 -25.08,-6.66 -22.2,-6.3 -44.25,-13.69 -65.57,-21.97 -49,-19.06 -96.2,-43.53 -140.29,-72.71 -43.69,-28.86 -84.43,-62.44 -121.083,-99.82 -11.773,-11.99 -23.141,-24.38 -33.785,-36.81 -16.563,-19.37 -32.007,-39.39 -45.913,-59.51 -73.633,-105.89 -117.871,-229.7 -127.944,-358.05 -17.486,-221.9 66.753,-434.93 231.112,-584.47 m 487.403,-191.24 c -16.12,0 -32.25,0.53 -48.32,1.57 -14.37,1.01 -27.1,2.2 -38.94,3.63 -25.79,3.03 -51.89,7.53 -77.55,13.36 -121.21,27.59 -233.72,86.25 -325.365,169.63 -165.313,150.4 -250.039,364.67 -232.452,587.84 10.127,129.08 54.62,253.59 128.662,360.09 13.985,20.23 29.517,40.36 46.173,59.83 10.702,12.51 22.133,24.96 33.969,37.02 36.853,37.59 77.823,71.36 121.753,100.37 44.34,29.35 91.8,53.95 141.08,73.11 21.43,8.34 43.61,15.77 65.92,22.09 8.9,2.6 17.16,4.79 25.24,6.71 73.35,18.2 149.34,24.92 225.88,19.99 196.17,-12.79 374.39,-100.9 501.84,-248.12 126.45,-146.05 187.7,-332.98 172.47,-526.34 -20.62,-262.62 -183.11,-496.37 -424.06,-610.03 -12.72,-5.97 -25.76,-11.67 -38.77,-16.97 -36.37,-14.65 -73.93,-26.45 -111.64,-35.05 -32.22,-7.37 -64.96,-12.6 -97.32,-15.55 -22.67,-2.11 -45.61,-3.18 -68.57,-3.18"
       style="fill:#371a45;fill-opacity:1;fill-rule:nonzero;stroke:none;stroke-width:0.1"
       id="path104" />
    <path
       d="m 2222.13,2291.21 c -21.3,-271.74 -190.44,-498.71 -422.89,-608.32 -12.7,-5.99 -25.58,-11.62 -38.64,-16.92 -35.88,-14.48 -73.08,-26.22 -111.32,-34.97 -31.68,-7.22 -64.11,-12.51 -97.03,-15.5 -38.24,-3.59 -77.14,-4.19 -116.6,-1.63 -13.07,0.97 -26.03,2.09 -38.82,3.61 -26.28,3.1 -52.04,7.63 -77.35,13.36 -124.06,28.25 -234.84,87.59 -324.444,169.15 -49.23,44.77 -92.072,96.23 -127.147,152.79 87.317,-75.85 193.571,-131.09 311.931,-158.04 25.3,-5.8 51.07,-10.26 77.35,-13.37 12.76,-1.54 25.71,-2.67 38.81,-3.61 39.47,-2.55 78.37,-1.96 116.57,1.6 32.96,3.03 65.36,8.28 97.04,15.5 38.24,8.76 75.47,20.53 111.32,34.97 13.09,5.33 25.96,10.97 38.67,16.95 232.45,109.61 401.55,336.55 422.89,608.33 12.5,158.54 -27.24,308.49 -104.75,433.41 165.74,-143.79 263.04,-361.05 244.41,-597.31"
       style="fill:#e8e8e8;fill-opacity:1;fill-rule:nonzero;stroke:none;stroke-width:0.1"
       id="path106" />
    <path
       d="m 1005.75,1811.73 c 89.36,-81.3 199.07,-138.49 317.27,-165.4 25.03,-5.69 50.49,-10.07 75.67,-13.04 11.59,-1.39 24.02,-2.55 38.07,-3.54 37.97,-2.47 76.34,-1.94 113.99,1.58 31.6,2.87 63.54,7.98 94.98,15.17 36.79,8.39 73.43,19.9 108.92,34.2 12.68,5.16 25.43,10.73 37.86,16.56 235.1,110.91 393.67,338.98 413.79,595.18 14.84,188.54 -44.87,370.8 -168.14,513.18 -124.29,143.56 -298.1,229.49 -489.44,241.96 -74.65,4.81 -148.82,-1.75 -220.4,-19.5 -7.94,-1.89 -15.91,-4.01 -24.54,-6.52 -21.87,-6.2 -43.51,-13.46 -64.43,-21.58 -48.07,-18.71 -94.39,-42.71 -137.66,-71.35 -42.9,-28.33 -82.88,-61.29 -118.851,-97.97 -11.558,-11.78 -22.71,-23.93 -33.149,-36.12 -16.25,-19.01 -31.407,-38.65 -45.044,-58.38 -72.251,-103.92 -115.65,-225.37 -125.532,-351.27 -17.144,-217.61 65.459,-426.52 226.636,-573.16 m 478.1,-215.3 c -16.43,0 -32.86,0.54 -49.23,1.6 -14.67,1.03 -27.63,2.24 -39.69,3.7 -26.25,3.09 -52.83,7.66 -78.97,13.6 -123.53,28.12 -238.19,87.91 -331.607,172.89 -168.496,153.3 -254.854,371.69 -236.928,599.16 10.317,131.52 55.648,258.39 131.093,366.89 14.229,20.59 30.058,41.1 47.016,60.93 10.914,12.75 22.559,25.44 34.615,37.72 37.534,38.28 79.261,72.67 124.001,102.22 45.14,29.89 93.49,54.94 143.68,74.47 21.84,8.49 44.44,16.06 67.17,22.5 9.03,2.63 17.51,4.88 25.81,6.86 74.6,18.5 152.02,25.36 229.97,20.33 199.9,-13.03 381.51,-102.83 511.41,-252.87 128.89,-148.87 191.32,-339.39 175.8,-536.48 -21.01,-267.55 -186.52,-505.67 -431.95,-621.45 -12.96,-6.08 -26.22,-11.89 -39.46,-17.27 -37.09,-14.94 -75.35,-26.96 -113.78,-35.73 -32.8,-7.5 -66.16,-12.83 -99.13,-15.83 -23.08,-2.16 -46.44,-3.24 -69.82,-3.24"
       style="fill:#371a45;fill-opacity:1;fill-rule:nonzero;stroke:none;stroke-width:0.1"
       id="path108" />
    <path
       d="m 1008.85,1815.14 c 88.78,-80.76 197.77,-137.58 315.19,-164.31 24.87,-5.66 50.18,-10.01 75.19,-12.96 11.52,-1.39 23.88,-2.54 37.86,-3.52 37.68,-2.45 75.81,-1.93 113.23,1.57 31.41,2.85 63.14,7.92 94.37,15.07 36.57,8.34 72.98,19.77 108.24,33.99 12.58,5.12 25.27,10.66 37.62,16.46 233.6,110.2 391.16,336.8 411.15,591.36 14.75,187.31 -44.57,368.36 -167.03,509.81 -123.47,142.61 -296.16,227.98 -486.24,240.37 -74.21,4.78 -147.89,-1.74 -219,-19.38 -7.9,-1.88 -15.81,-3.98 -24.37,-6.47 -21.76,-6.17 -43.26,-13.38 -64.03,-21.45 -47.78,-18.58 -93.8,-42.44 -136.8,-70.9 -42.63,-28.15 -82.35,-60.9 -118.095,-97.35 -11.489,-11.7 -22.568,-23.78 -32.944,-35.89 -16.143,-18.88 -31.207,-38.4 -44.751,-58 -71.792,-103.26 -114.913,-223.92 -124.727,-349.01 -17.036,-216.18 65.025,-423.71 225.137,-569.39 m 475,-223.32 c -16.52,0 -33.06,0.54 -49.53,1.61 -14.77,1.04 -27.8,2.25 -39.95,3.72 -26.38,3.1 -53.13,7.71 -79.43,13.68 -124.3,28.3 -239.69,88.46 -333.688,173.98 -169.56,154.27 -256.465,374.03 -238.428,602.93 10.387,132.33 55.996,259.99 131.909,369.16 14.313,20.71 30.235,41.35 47.296,61.3 10.981,12.83 22.7,25.59 34.829,37.95 37.759,38.51 79.732,73.11 124.752,102.84 45.41,30.06 94.06,55.27 144.55,74.91 21.98,8.54 44.72,16.17 67.58,22.65 9.08,2.64 17.63,4.91 26,6.9 75.03,18.61 152.92,25.49 231.34,20.45 201.14,-13.11 383.89,-103.47 514.6,-254.45 129.69,-149.81 192.52,-341.54 176.91,-539.86 -21.14,-269.19 -187.66,-508.78 -434.58,-625.26 -13.04,-6.12 -26.38,-11.96 -39.69,-17.37 -37.33,-15.04 -75.83,-27.13 -114.49,-35.95 -33.01,-7.55 -66.57,-12.91 -99.74,-15.93 -23.22,-2.17 -46.71,-3.26 -70.24,-3.26"
       style="fill:#371a45;fill-opacity:1;fill-rule:nonzero;stroke:none;stroke-width:0.1"
       id="path110" />
    <path
       d="m 1147.63,1693.73 c 501.96,-139.27 986.1,252.81 849.83,747.08 -92.7,336.28 -497.14,501.64 -817.96,388.49 -233.49,-82.36 -426.441,-263.7 -401.313,-656.78 0,0 38.219,-171.97 121.298,-266.42 83.079,-94.45 180.115,-172.19 180.115,-172.19 l 68.03,-40.18"
       style="fill:#371a45;fill-opacity:1;fill-rule:nonzero;stroke:none;stroke-width:0.1"
       id="path112" />
    <path
       d="m 1997.45,2440.8 c 136.27,-494.26 -347.88,-886.33 -849.81,-747.09 l -13.79,8.16 c 473.8,76.55 828.75,495.82 700.38,998.23 76.34,-68.02 134.59,-155.53 163.22,-259.3"
       style="fill:#220f2d;fill-opacity:1;fill-rule:nonzero;stroke:none;stroke-width:0.1"
       id="path114" />
    <path
       d="m 1008.85,1815.14 c 88.78,-80.76 197.77,-137.58 315.19,-164.31 24.87,-5.66 50.18,-10.01 75.19,-12.96 11.52,-1.39 23.88,-2.54 37.86,-3.52 37.14,-2.42 74.73,-1.94 111.63,1.42 190.86,49 352.98,167.82 444.98,326.18 86.32,148.58 106.48,319.55 58.29,494.42 -43.99,159.59 -156.11,293.38 -315.71,376.75 -178.59,93.29 -394.33,110.51 -577.1,46.04 -101.14,-35.67 -185.906,-85.26 -251.976,-147.4 -71.04,-102.83 -113.73,-222.85 -123.491,-347.23 -17.036,-216.18 65.025,-423.71 225.137,-569.39 m 474.99,-223.32 c -16.52,0 -33.05,0.54 -49.52,1.61 -14.77,1.04 -27.8,2.25 -39.95,3.72 -26.38,3.1 -53.13,7.71 -79.43,13.68 -124.3,28.3 -239.69,88.46 -333.688,173.98 -169.56,154.27 -256.465,374.03 -238.428,602.93 10.387,132.33 56.001,259.99 131.909,369.16 l 1.202,1.73 1.528,1.45 c 70.499,66.81 160.687,119.88 268.077,157.76 193.29,68.18 421.23,50.1 609.73,-48.37 169.8,-88.69 289.21,-231.53 336.26,-402.2 51.18,-185.74 29.61,-367.6 -62.37,-525.92 -97.75,-168.25 -269.74,-294.26 -471.87,-345.72 l -3.15,-0.55 c -23.25,-2.17 -46.76,-3.26 -70.3,-3.26"
       style="fill:#371a45;fill-opacity:1;fill-rule:nonzero;stroke:none;stroke-width:0.1"
       id="path116" />
    <path
       d="m 1152.56,1705.34 c 251.4,-69.19 514.43,-5.37 686.82,166.74 150.46,150.21 203.68,356.3 146.03,565.41 -39.57,143.53 -140.34,263.83 -283.75,338.74 -160.28,83.71 -353.92,99.14 -518,41.28 -281.455,-99.27 -413.697,-315.68 -393.062,-643.19 3.145,-13.53 41.377,-172.54 118.272,-259.96 77.773,-88.42 169.14,-163.07 177.88,-170.15 l 65.81,-38.87 m 201.64,-52.44 c -69.52,0 -140.15,9.43 -209.91,28.78 l -1.59,0.45 -70.92,42.03 c -0.97,0.78 -98.838,79.5 -181.68,173.68 -84.233,95.76 -122.529,264.82 -124.116,271.96 l -0.273,1.92 c -21.773,340.61 116.049,565.82 409.639,669.37 170.49,60.13 371.57,44.17 537.88,-42.7 149.63,-78.16 254.85,-203.97 296.28,-354.25 60.12,-218.04 4.54,-433 -152.47,-589.75 C 1725.9,1723.46 1544.3,1652.9 1354.2,1652.9"
       style="fill:#371a45;fill-opacity:1;fill-rule:nonzero;stroke:none;stroke-width:0.1"
       id="path118" />
    <path
       d="m 2294.57,2577.85 c 54.45,-131.99 21.19,-275.54 -74.33,-320.62 -95.52,-45.08 -217.09,25.39 -271.54,157.38 -0.36,0.82 -0.7,1.71 -1.01,2.55 -53.02,131.28 -19.51,273.31 75.34,318.07 73.78,34.82 163.12,0.69 225.05,-77.47 18.23,-23.02 34.1,-49.9 46.49,-79.91"
       style="fill:#ffffff;fill-opacity:1;fill-rule:nonzero;stroke:none;stroke-width:0.1"
       id="path120" />
    <path
       d="m 2294.57,2577.85 c 54.45,-131.99 21.19,-275.54 -74.33,-320.62 -95.52,-45.08 -217.09,25.39 -271.54,157.38 -0.36,0.82 -0.7,1.71 -1.01,2.55 16.09,-8.59 37.94,-14.21 58.22,0.73 35.53,26.2 70.12,143.92 70.12,143.92 0,0 74.34,42.09 172.05,95.95 18.23,-23.02 34.1,-49.9 46.49,-79.91"
       style="fill:#e8e8e8;fill-opacity:1;fill-rule:nonzero;stroke:none;stroke-width:0.1"
       id="path122" />
    <path
       d="m 2084.28,2728.36 c -18.33,0 -35.99,-3.89 -52.48,-11.67 -85.64,-40.41 -114.41,-172.41 -64.15,-294.25 29.03,-70.36 80.6,-125.63 137.96,-147.83 37.16,-14.37 73.76,-13.97 105.88,1.18 85.63,40.41 114.41,172.41 64.14,294.25 -29.03,70.37 -80.6,125.63 -137.97,147.83 -18.07,7 -36.02,10.49 -53.38,10.49 z m 74.79,-505.32 c -22.35,0 -45.29,4.43 -68.26,13.33 -68.64,26.56 -127.35,88.68 -161.07,170.44 -58.47,141.72 -20.54,297.38 84.56,346.97 42.5,20.06 90.29,20.87 138.17,2.34 68.64,-26.57 127.35,-88.69 161.07,-170.44 58.47,-141.73 20.54,-297.39 -84.55,-346.98 -22.12,-10.44 -45.68,-15.66 -69.92,-15.66"
       style="fill:#371a45;fill-opacity:1;fill-rule:nonzero;stroke:none;stroke-width:0.1"
       id="path124" />
    <path
       d="m 2315.46,2567.87 c 43.97,-107.79 21.35,-223.23 -50.51,-257.83 -71.88,-34.61 -165.78,24.72 -209.75,132.51 -43.97,107.79 -21.35,223.23 50.52,257.83 71.87,34.61 165.77,-24.72 209.74,-132.51"
       style="fill:#ffffff;fill-opacity:1;fill-rule:nonzero;stroke:none;stroke-width:0.1"
       id="path126" />
    <path
       d="m 2264.92,2310.03 c 71.9,34.61 94.51,150.03 50.53,257.85 -4.75,11.71 -10.16,22.83 -16,33.33 10.94,-82.23 -15.66,-157.07 -71.57,-183.92 -63.15,-30.32 -143.03,10.57 -191.65,92.76 3.55,-22.29 9.82,-45.06 18.94,-67.49 43.98,-107.82 137.89,-167.12 209.75,-132.53"
       style="fill:#e8e8e8;fill-opacity:1;fill-rule:nonzero;stroke:none;stroke-width:0.1"
       id="path128" />
    <path
       d="m 2149.38,2689.72 c -12.25,0 -23.95,-2.6 -34.77,-7.81 -61.12,-29.43 -79.63,-135.5 -40.42,-231.61 24.18,-59.29 65.58,-105.06 110.76,-122.45 25.36,-9.76 49.94,-9.53 71.1,0.66 61.12,29.43 79.63,135.5 40.42,231.62 -24.18,59.28 -65.58,105.05 -110.76,122.43 -12.4,4.77 -24.61,7.16 -36.33,7.16 z m 71.97,-410.1 c -16.68,0 -33.87,3.32 -51.13,9.96 -55.53,21.37 -105.63,75.66 -134.01,145.23 -48.73,119.45 -22.11,244.22 60.61,284.05 31.61,15.22 67.44,15.9 103.62,1.98 55.53,-21.37 105.63,-75.66 134.01,-145.23 48.73,-119.45 22.11,-244.22 -60.61,-284.05 -16.53,-7.96 -34.21,-11.94 -52.49,-11.94"
       style="fill:#371a45;fill-opacity:1;fill-rule:nonzero;stroke:none;stroke-width:0.1"
       id="path130" />
    <path
       d="m 1101.66,1916.28 c -94.55,38.68 -161.41,97.63 -199.902,199.66 -3.768,10.07 -7.277,20.59 -10.533,31.51 -0.759,2.52 -1.454,5.03 -2.117,7.57 -0.063,0 -0.058,0.06 -0.019,0.15 -5.023,22.6 -10.491,52.56 -13.808,86.9 -10.067,103.57 -0.856,246.95 98.152,348.65 134.827,138.51 302.457,169.16 381.447,169.16 29.47,0 46.6,-4.26 45.09,-8.79 0,0 -292.68,-124.4 -398.23,-352.69 -0.11,-0.24 -0.22,-0.48 -0.33,-0.72 -22.172,-48.07 -30.909,-101.07 -25.703,-153.36 6.885,-69.15 21.848,-115.68 36.623,-156.12 44.97,-122.95 89.33,-171.92 89.33,-171.92"
       style="fill:#9b8da2;fill-opacity:1;fill-rule:nonzero;stroke:none;stroke-width:0.1"
       id="path132" />
    <path
       d="m 1719.98,2376.39 c -34.45,0.01 -70.39,18.31 -93.88,51.51 -35.97,50.82 -29.19,117.3 15.14,148.5 15.36,10.81 33.22,15.96 51.5,15.96 34.45,0 70.38,-18.3 93.88,-51.51 35.97,-50.82 29.19,-117.3 -15.14,-148.49 -15.37,-10.81 -33.22,-15.97 -51.5,-15.97"
       style="fill:#9b8da2;fill-opacity:1;fill-rule:nonzero;stroke:none;stroke-width:0.1"
       id="path134" />
    <path
       d="m 1827.85,2273.23 c -12.34,0.82 -24.97,7 -34.25,17.97 -16.6,19.64 -16.14,47.2 1.03,61.56 6.84,5.73 15.32,8.49 24.08,8.49 9.76,0 19.88,-3.42 28.52,-9.97 -5.09,-26.54 -11.58,-52.6 -19.38,-78.05"
       style="fill:#9b8da2;fill-opacity:1;fill-rule:nonzero;stroke:none;stroke-width:0.1"
       id="path136" />
    <path
       d="m 1830.65,2273.14 c -0.93,0 -1.87,0.03 -2.8,0.09 7.8,25.45 14.29,51.51 19.38,78.05 3.05,-2.31 5.92,-5.02 8.53,-8.1 16.6,-19.64 16.14,-47.2 -1.02,-61.56 -6.85,-5.72 -15.33,-8.48 -24.09,-8.48"
       style="fill:#918796;fill-opacity:1;fill-rule:nonzero;stroke:none;stroke-width:0.1"
       id="path138" />
    <path
       d="m 2627.62,1633.11 c -3.54,-12.24 -9.35,-23.74 -16.68,-34.16 -19.16,-27.18 -63.22,-73.81 -143.3,-81.46 l -0.1,0.02 c -68.67,-6.54 -163.88,15.63 -292.56,103.53 l 224.91,-13.66 c -123.8,77.07 -177.21,200.68 -177.21,200.68 -71.33,-11.6 -97.23,30.83 -98.75,37.27 -150.12,13.95 -116.17,185.26 -23.88,278.18 8.91,9.99 17.75,18.5 26.55,25.77 94.16,78.23 176.5,10.69 176.5,10.69 61.58,76.05 126.57,-14.97 101.21,-144.48 0,0 278.4,-190.85 223.31,-382.38"
       style="fill:#f8f8f8;fill-opacity:1;fill-rule:nonzero;stroke:none;stroke-width:0.1"
       id="path140" />
    <path
       d="m 2398.6,1605.3 c -62.98,29.94 -116.57,77.65 -157.99,133.49 -13.88,19.47 -26.05,39.46 -34.44,62.14 l 19.39,-10.61 c -42.19,-8.06 -98.6,4.51 -118.23,47.95 -0.25,0.63 -0.66,1.97 -0.9,2.94 l 15.84,-13.79 c -41.68,3.09 -86.07,23.15 -105.42,62.58 -40.66,83.48 15.47,193.08 76,252.1 36.45,39.54 88.95,68.56 144.45,62.1 27.97,-3.1 54.75,-13.33 77.2,-30.32 l -25.36,-2.59 c 21.48,28.29 60.09,47.49 92.88,23.36 51.13,-40.31 50.85,-124.72 39.94,-182.6 l -7.48,18.27 c 17.92,-12.63 34.15,-25.55 50.42,-39.23 92.76,-80.16 197.15,-194.12 186.93,-326.13 -2.49,-34.68 -16.46,-68.97 -40.31,-94.18 -84.2,-97.12 -233.3,-86.95 -335.7,-25.73 -37.09,20.8 -71.33,45.58 -102.21,73.94 -2.1,1.99 0.26,5.28 2.77,4.06 37.46,-18.35 74.54,-36.16 112.3,-50.8 71.34,-26.28 153.37,-54.04 227.16,-25.35 34.67,13.13 65.81,38.32 85.18,69.8 36.29,70.29 5.23,152.32 -36.59,214.2 -45.03,65.87 -105.74,122.98 -170.28,169.76 -6.05,4.23 -8.73,11.49 -7.48,18.3 7.27,37.99 8.35,79.9 -4.96,115.93 -7.32,19.46 -23.52,44.64 -46,30.75 -6.43,-3.72 -12.86,-9.89 -18.64,-16.98 -3.32,-4.09 -8.49,-5.79 -13.32,-4.88 l -12.05,2.29 -2.6,1.9 c -34.23,23.56 -79.69,28.09 -117.33,9.32 -20.16,-9.6 -37.53,-23.71 -53.12,-40.24 -15.99,-16.4 -31.7,-34.44 -43.5,-54.11 -30.83,-50.02 -59.62,-134.63 -8,-178.96 15.24,-12.47 36.4,-18.67 58.45,-20.75 l 15.84,-13.79 c -0.06,0.4 -0.34,1.17 -0.37,1.25 6.02,-10.28 18.58,-18.95 31.11,-22.72 14.42,-4.64 31,-4.84 47.61,-2.16 8.56,2.09 16.07,-3.19 19.39,-10.62 32.13,-56.79 66.18,-113.72 112.39,-160.43 15.45,-15.99 32.01,-31.07 49.62,-45.29 1.07,-0.85 1.25,-2.41 0.4,-3.48 -0.72,-0.91 -1.98,-1.16 -2.99,-0.69"
       style="fill:#371a45;fill-opacity:1;fill-rule:nonzero;stroke:none;stroke-width:0.1"
       id="path142" />
    <path
       d="m 2333.49,1663.05 c -4.72,0 -9.49,0.21 -14.29,0.64 -8.11,0.73 -14.09,7.9 -13.36,16.01 0.73,8.11 7.91,14.11 16.01,13.36 126.18,-11.51 232,169.95 233.06,171.78 4.05,7.06 13.05,9.5 20.12,5.44 7.06,-4.05 9.49,-13.06 5.45,-20.12 -4.53,-7.88 -108.99,-187.11 -246.99,-187.11"
       style="fill:#371a45;fill-opacity:1;fill-rule:nonzero;stroke:none;stroke-width:0.1"
       id="path144" />
    <path
       d="m 2106.97,1851.29 c -0.04,-0.38 0.09,-0.24 0.2,-0.13 2.25,2.66 3.46,6.1 4.45,9.49 4.06,13.89 -3.33,28.35 -13.48,38.06 -1.11,0.99 -1.2,2.75 -0.07,3.76 0.72,0.65 1.71,0.8 2.56,0.48 5.56,-2.04 11.26,-4.22 16.22,-7.71 14.43,-9.09 23.61,-26.32 24.63,-43.55 0.21,-4.17 0.36,-8.08 -0.59,-12.32 -3.29,-9.37 -13.55,-14.3 -22.92,-11.01 -9.37,3.3 -14.29,13.56 -11,22.93"
       style="fill:#371a45;fill-opacity:1;fill-rule:nonzero;stroke:none;stroke-width:0.1"
       id="path146" />
    <path
       d="m 2422.09,2012.8 -25.61,-65.71 c -0.87,-2.46 -4.77,-1.86 -4.86,0.73 l -5.09,70.35 c -0.73,10.15 6.91,18.98 17.06,19.71 13.21,1.27 23.53,-12.92 18.5,-25.08"
       style="fill:#371a45;fill-opacity:1;fill-rule:nonzero;stroke:none;stroke-width:0.1"
       id="path148" />
    <path
       d="m 2447.61,1534.76 c -36.65,0 -73.88,8.84 -109.64,20.27 198.84,11.23 202.09,96.59 152.2,181.92 34.71,32.54 61.19,68.42 76.28,90.94 40.79,-61.51 70.27,-142.03 34.57,-211.19 -19.37,-31.48 -50.51,-56.67 -85.18,-69.8 -22.17,-8.62 -45.08,-12.14 -68.23,-12.14"
       style="fill:#beb5c2;fill-opacity:1;fill-rule:nonzero;stroke:none;stroke-width:0.1"
       id="path150" />
    <path
       d="m 2460.49,1521.91 c -1.79,0 -3.6,0.02 -5.42,0.04 -1.72,3.6 -4.64,6.64 -8.52,8.49 -2.48,1.17 -5.1,1.73 -7.68,1.73 -6.07,0 -11.92,-3.08 -15.27,-8.44 -18.75,1.77 -39.21,4.87 -61.52,9.53 -35.8,9.82 -60.32,20.59 -60.32,20.59 12.74,0.14 24.78,0.54 36.21,1.18 35.76,-11.43 72.99,-20.27 109.64,-20.27 23.15,0 46.06,3.52 68.23,12.14 34.67,13.13 65.81,38.32 85.18,69.8 35.7,69.16 6.22,149.68 -34.57,211.19 4.63,6.93 8.19,12.58 10.59,16.5 39.56,-57.64 66.98,-124.66 54.93,-192.54 l -2.05,14.34 c 0.16,-2.3 0.52,-11.33 -1.2,-23.82 -2.9,-1.26 -5.86,-2.45 -8.87,-3.54 -7.66,-2.77 -11.62,-11.22 -8.85,-18.88 1.41,-3.88 4.27,-6.81 7.75,-8.39 -2.35,-4.36 -4.97,-8.56 -7.81,-12.61 -15.28,-21.67 -46.39,-55.71 -98.97,-72.49 -15.15,-2.92 -32.23,-4.55 -51.48,-4.55"
       style="fill:#371a45;fill-opacity:1;fill-rule:nonzero;stroke:none;stroke-width:0.1"
       id="path152" />
    <path
       d="m 2473.81,1762.4 c -57.44,82.25 -151.66,157.49 -151.66,157.49 12.41,119.49 -116.99,193.56 -176.88,221.23 8.3,6.23 17.09,11.69 26.5,16.17 15.77,7.86 32.9,11.63 50.01,11.63 23.74,0 47.43,-7.26 67.32,-20.95 l 2.6,-1.9 12.05,-2.29 c 0.85,-0.16 1.7,-0.24 2.56,-0.24 4.03,0 8.02,1.75 10.76,5.12 5.78,7.09 12.21,13.26 18.64,16.98 4.52,2.79 8.78,4 12.77,4 15.86,0 27.38,-19.2 33.23,-34.75 12.36,-33.48 12.31,-72.03 6.41,-107.79 -1.23,-2.71 -1.82,-5.76 -1.59,-8.93 l 0.01,-0.05 c -0.35,-2.53 -0.16,-5.11 0.54,-7.55 l 4.54,-62.75 c 0.05,-1.46 1.32,-2.29 2.57,-2.29 0.96,0 1.91,0.49 2.29,1.56 l 15.66,40.18 c 50.3,-38.44 97.53,-83.23 135.85,-133.59 -11.89,-18.45 -38.38,-56.68 -74.18,-91.28"
       style="fill:#beb5c2;fill-opacity:1;fill-rule:nonzero;stroke:none;stroke-width:0.1"
       id="path154" />
    <path
       d="m 2547.99,1853.68 c -38.32,50.36 -85.55,95.15 -135.85,133.59 l 6.83,17.54 c 27.7,-20.87 89.45,-70.75 139.84,-135.53 -1.54,-1.17 -2.88,-2.66 -3.9,-4.44 -0.16,-0.27 -2.55,-4.37 -6.92,-11.16 m -160.91,156.89 c -0.7,2.44 -0.89,5.02 -0.54,7.55 l 0.54,-7.55 m 1.04,16.53 c 5.9,35.76 5.95,74.31 -6.41,107.79 -5.85,15.55 -17.37,34.75 -33.23,34.75 -3.99,0 -8.25,-1.21 -12.77,-4 -6.43,-3.72 -12.86,-9.89 -18.64,-16.98 -2.74,-3.37 -6.73,-5.12 -10.76,-5.12 -0.86,0 -1.71,0.08 -2.56,0.24 l -12.05,2.29 -2.6,1.9 c -19.89,13.69 -43.58,20.95 -67.32,20.95 -17.11,0 -34.24,-3.77 -50.01,-11.63 -9.41,-4.48 -18.2,-9.94 -26.5,-16.17 -7.43,3.44 -13.78,6.15 -18.67,8.16 34.53,28.69 67.48,37.78 95.35,37.78 48.14,0 81.15,-27.09 81.15,-27.09 15.52,19.17 31.26,27.72 45.71,27.72 39.54,0 69.46,-64.02 59.04,-149.93 -0.85,0.13 -1.72,0.2 -2.6,0.2 -0.55,0 -1.1,-0.03 -1.66,-0.08 -6.98,-0.5 -12.77,-4.83 -15.47,-10.78"
       style="fill:#371a45;fill-opacity:1;fill-rule:nonzero;stroke:none;stroke-width:0.1"
       id="path156" />
    <path
       d="m 2490.17,1736.95 c -4.98,8.51 -10.48,17.02 -16.36,25.45 35.8,34.6 62.29,72.83 74.18,91.28 4.37,6.79 6.76,10.89 6.92,11.16 1.02,1.78 2.36,3.27 3.9,4.44 6.28,-8.07 12.39,-16.38 18.23,-24.89 -2.4,-3.92 -5.96,-9.57 -10.59,-16.5 -15.09,-22.52 -41.57,-58.4 -76.28,-90.94"
       style="fill:#371a45;fill-opacity:1;fill-rule:nonzero;stroke:none;stroke-width:0.1"
       id="path158" />
    <path
       d="m 2394.19,1945.53 c -1.25,0 -2.52,0.83 -2.57,2.29 l -4.54,62.75 -0.54,7.55 -0.01,0.05 c -0.23,3.17 0.36,6.22 1.59,8.93 2.7,5.95 8.49,10.28 15.47,10.78 0.56,0.05 1.11,0.08 1.66,0.08 0.88,0 1.75,-0.07 2.6,-0.2 -0.89,-7.28 -2.06,-14.71 -3.54,-22.27 0,0 5.45,-3.74 14.66,-10.68 l -6.83,-17.54 -15.66,-40.18 c -0.38,-1.07 -1.33,-1.56 -2.29,-1.56"
       style="fill:#371a45;fill-opacity:1;fill-rule:nonzero;stroke:none;stroke-width:0.1"
       id="path160" />
    <path
       d="m 2996.57,1195.73 75.54,72.21 c 1.95,1.96 5.32,-0.64 3.89,-3.01 l -51,-91.22 c -4.9,-8.76 -15.97,-11.89 -24.74,-6.99 -10.6,5.69 -12.46,20.85 -3.69,29.01"
       style="fill:#371a45;fill-opacity:1;fill-rule:nonzero;stroke:none;stroke-width:0.1"
       id="path162" />
    <path
       d="m 2812.72,1457.78 8.43,-58.91 c 0.44,-2.49 -3.03,-3.96 -4.51,-1.94 l -36.95,46.65 c -6.39,8.06 -5.03,19.77 3.03,26.16 10.79,9.04 28.38,1.86 30,-11.96"
       style="fill:#371a45;fill-opacity:1;fill-rule:nonzero;stroke:none;stroke-width:0.1"
       id="path164" />
    <path
       d="m 3185.36,1085.31 c -2.65,0 -5.34,0.72 -7.77,2.22 -6.91,4.3 -9.03,13.39 -4.73,20.31 131.71,211.93 -222.8,460.22 -226.4,462.7 -6.7,4.63 -8.38,13.81 -3.76,20.51 4.63,6.7 13.81,8.39 20.51,3.76 3.86,-2.66 95.43,-66.29 171.12,-159.2 102.78,-126.15 124.76,-244.88 63.57,-343.34 -2.79,-4.49 -7.61,-6.96 -12.54,-6.96"
       style="fill:#371a45;fill-opacity:1;fill-rule:nonzero;stroke:none;stroke-width:0.1"
       id="path166" />
    <path
       d="m 2941.24,1100.82 c -1.17,0 -2.35,0.14 -3.54,0.43 -7.9,1.95 -12.73,9.94 -10.79,17.84 50.84,206.52 -104.52,342.45 -106.1,343.8 -6.17,5.29 -6.91,14.59 -1.62,20.78 5.28,6.18 14.57,6.92 20.76,1.65 1.71,-1.46 170.87,-148.72 115.59,-373.27 -1.65,-6.73 -7.68,-11.23 -14.3,-11.23"
       style="fill:#371a45;fill-opacity:1;fill-rule:nonzero;stroke:none;stroke-width:0.1"
       id="path168" />
    <path
       d="m 2087.12,952.05 c -56.4,0 -93.6,7.08 -97.21,7.79 -9.73,1.94 -16.06,11.4 -14.13,21.14 1.94,9.74 11.44,16.05 21.12,14.14 2.03,-0.4 205.04,-38.59 392.91,72.5 4.72,2.8 10.47,3.27 15.6,1.3 1.02,-0.39 106.48,-39.71 298.91,-38.27 h 0.14 c 9.86,0 17.9,-7.96 17.97,-17.84 0.07,-9.93 -7.92,-18.04 -17.85,-18.11 -171.11,-1.3 -274.66,28.15 -303.74,37.74 -115.86,-66.25 -233.98,-80.39 -313.72,-80.39"
       style="fill:#371a45;fill-opacity:1;fill-rule:nonzero;stroke:none;stroke-width:0.1"
       id="path170" />
    <path
       d="m 2422.78,905.46 98.37,19.43 c 2.68,0.61 4.13,-3.36 1.68,-4.62 l -87.71,-48.58 c -25.12,-12.1 -39.38,26.79 -12.34,33.77"
       style="fill:#371a45;fill-opacity:1;fill-rule:nonzero;stroke:none;stroke-width:0.1"
       id="path172" />
    <path
       d="m 2555.16,641.96 c -6.09,0 -12.04,3.1 -15.41,8.7 -5.12,8.51 -2.38,19.56 6.12,24.68 120.86,72.8 76.57,332.65 76.11,335.27 -1.73,9.77 4.79,19.1 14.57,20.83 9.79,1.72 19.1,-4.79 20.84,-14.57 2.06,-11.67 49,-286.82 -92.96,-372.33 -2.91,-1.75 -6.11,-2.58 -9.27,-2.58"
       style="fill:#371a45;fill-opacity:1;fill-rule:nonzero;stroke:none;stroke-width:0.1"
       id="path174" />
    <path
       d="m 2380.34,881.16 c -2.3,0 -4.63,0.54 -6.82,1.68 -7.21,3.78 -10,12.69 -6.23,19.9 41.34,79.04 -0.59,126.86 -1.02,127.33 -5.46,6.04 -4.99,15.37 1.05,20.83 6.04,5.46 15.36,4.99 20.83,-1.05 2.31,-2.56 56.02,-63.73 5.27,-160.77 -2.64,-5.04 -7.77,-7.92 -13.08,-7.92"
       style="fill:#371a45;fill-opacity:1;fill-rule:nonzero;stroke:none;stroke-width:0.1"
       id="path176" />
    <path
       d="m 1858.01,1023.29 c -5.03,0 -10.01,0.07 -14.97,0.24 -9.92,0.31 -17.71,8.62 -17.39,18.54 0.32,9.93 8.66,17.7 18.55,17.39 126.89,-4.06 283.41,48.01 389.39,129.62 37.92,29.2 53.8,64.34 47.18,104.45 -5.18,31.48 -22.53,54.88 -22.7,55.12 -3.23,4.3 -4.38,9.85 -3.1,15.08 1.28,5.23 4.81,9.63 9.66,11.96 113.07,54.28 157.54,145.32 157.98,146.23 4.27,8.95 14.99,12.76 23.94,8.52 8.96,-4.26 12.79,-14.94 8.56,-23.9 -1.88,-3.98 -45.19,-93.61 -156.85,-154.05 25.61,-46.56 40.38,-127.9 -42.73,-191.91 -107.96,-83.13 -265.74,-137.29 -397.52,-137.29"
       style="fill:#371a45;fill-opacity:1;fill-rule:nonzero;stroke:none;stroke-width:0.1"
       id="path178" />
    <path
       d="m 1436.44,1347.76 c 0.23,0.46 0.3,0.7 0.3,0.7 l -33.39,13.34 c 2.67,6.69 31.72,66.67 225.81,111.63 145.01,33.6 287.05,82.72 341.39,102.29 35.47,12.76 74.67,11.09 107.56,-4.58 31.24,-14.89 59.31,-38.44 83.61,-70.11 17.84,7.95 54.88,28.65 92.96,75.5 l 27.91,-22.67 c -60.76,-74.77 -120.21,-91.19 -122.7,-91.86 -7.32,-1.92 -15.04,0.91 -19.35,7.1 -22.52,32.26 -48.73,55.68 -77.9,69.58 -24.28,11.57 -53.4,12.75 -79.91,3.2 -54.94,-19.77 -198.58,-69.45 -345.46,-103.48 -173.72,-40.24 -200.58,-90.14 -200.83,-90.64"
       style="fill:#371a45;fill-opacity:1;fill-rule:nonzero;stroke:none;stroke-width:0.1"
       id="path180" />
    <path
       d="m 2225.62,1322.36 c -6.71,0 -13.43,1.35 -19.75,4.05 -54.08,23.13 -80.32,72.08 -91.15,99.2 -8.5,21.28 -1.48,45.52 17.07,58.96 l 12.94,9.37 c 8.04,5.83 19.28,4.04 25.11,-4 5.83,-8.04 4.03,-19.28 -4.01,-25.11 l -12.94,-9.38 c -5.19,-3.76 -7.15,-10.55 -4.78,-16.5 10.71,-26.81 31.87,-62.36 71.9,-79.48 3.78,-1.62 8.06,-1.52 11.73,0.26 l 32.82,15.93 c 8.94,4.34 19.7,0.61 24.03,-8.33 4.33,-8.93 0.61,-19.69 -8.32,-24.02 l -32.83,-15.93 c -6.88,-3.34 -14.34,-5.02 -21.82,-5.02"
       style="fill:#371a45;fill-opacity:1;fill-rule:nonzero;stroke:none;stroke-width:0.1"
       id="path182" />
    <path
       d="m 1468.86,1261.6 c 0.2,-0.14 0.4,-0.29 0.59,-0.45 -0.16,0.13 -0.35,0.28 -0.59,0.45 m 753.57,-120.84 c -9.5,0 -17.44,7.45 -17.94,17.05 -4.58,89.19 -84.97,188.35 -162,240.2 -46.58,31.36 -78.84,37.1 -93.48,32.01 -23.14,-8.05 -59.72,-17.29 -106.01,-29 -79.7,-20.16 -188.84,-47.75 -279.09,-83.32 -84.3,-33.22 -92.82,-54.1 -93.63,-57.27 6.71,-6.17 7.79,-16.53 2.22,-23.99 -5.95,-7.95 -17.22,-9.58 -25.17,-3.63 -7.15,5.35 -14.79,16.97 -12.76,32.11 3.91,29.14 40.82,56.54 116.16,86.23 92.38,36.41 202.82,64.34 283.45,84.73 43.65,11.04 81.35,20.57 103.02,28.1 41.13,14.3 96.19,-16.51 125.37,-36.14 81.84,-55.09 172.4,-162.51 177.83,-268.18 0.52,-9.92 -7.11,-18.37 -17.03,-18.88 -0.31,-0.01 -0.62,-0.02 -0.94,-0.02"
       style="fill:#371a45;fill-opacity:1;fill-rule:nonzero;stroke:none;stroke-width:0.1"
       id="path184" />
    <path
       d="m 2033.97,1231.41 c -26.96,-33.8 -82.14,-34.61 -123.25,-1.82 -41.1,32.79 -52.57,86.77 -25.61,120.57 26.96,33.8 82.14,34.62 123.25,1.82 41.11,-32.79 52.58,-86.77 25.61,-120.57"
       style="fill:#3e96ff;fill-opacity:1;fill-rule:nonzero;stroke:none;stroke-width:0.1"
       id="path186" />
    <path
       d="m 2033.98,1231.41 h 0.05 z m -91.19,129.9 c -0.39,0 -0.77,0 -1.15,-0.01 -18.78,-0.27 -34.77,-7.5 -45.01,-20.33 -10.24,-12.84 -13.72,-30.03 -9.82,-48.41 4.13,-19.44 15.89,-37.71 33.11,-51.44 34.68,-27.67 80.68,-27.9 102.53,-0.51 21.85,27.38 11.4,72.18 -23.29,99.85 -16.89,13.47 -36.86,20.85 -56.37,20.85 z m 33.48,-170.43 c -25.2,0 -51.96,9.01 -74.74,27.18 -22.54,17.99 -38.01,42.27 -43.56,68.37 -5.77,27.17 -0.23,53.07 15.62,72.93 15.83,19.85 39.85,31.01 67.62,31.42 26.66,0.51 53.8,-9.29 76.34,-27.27 47.4,-37.81 59.94,-101.19 27.95,-141.29 -16.61,-20.83 -42.01,-31.34 -69.23,-31.34"
       style="fill:#371a45;fill-opacity:1;fill-rule:nonzero;stroke:none;stroke-width:0.1"
       id="path188" />
    <path
       d="m 1873.96,1329.2 c 28.14,34.43 83.59,28.18 116.03,2.91 25.67,-18.85 43.78,-50.25 41.72,-82.57 -0.84,-10.49 -3.57,-20.83 -9.14,-29.29 1.48,38.29 -18.31,70.32 -47.24,92.15 -29.04,21.44 -65.76,31.17 -101.37,16.8"
       style="fill:#371a45;fill-opacity:1;fill-rule:nonzero;stroke:none;stroke-width:0.1"
       id="path190" />
    <path
       d="m 2058.85,1067.59 c -3.87,0 -7.73,1.51 -10.63,4.52 l -115.78,120.32 -178.44,-4.55 c -4.05,-0.12 -7.64,1.34 -10.47,4 l -151.27,142.05 c -5.93,5.57 -6.23,14.9 -0.66,20.84 5.58,5.93 14.9,6.23 20.84,0.65 l 146.86,-137.9 178.89,4.55 c 4.18,0.13 8.13,-1.54 11,-4.52 l 120.28,-125 c 5.64,-5.86 5.46,-15.2 -0.4,-20.84 -2.86,-2.75 -6.54,-4.12 -10.22,-4.12"
       style="fill:#371a45;fill-opacity:1;fill-rule:nonzero;stroke:none;stroke-width:0.1"
       id="path192" />
    <path
       d="m 826.872,1509.82 c -5.292,0 -10.41,2.85 -13.051,7.86 -3.804,7.2 -1.045,16.12 6.152,19.92 131.48,69.41 75.708,263.26 75.127,265.21 -2.314,7.8 2.129,16.01 9.927,18.33 7.788,2.34 16.001,-2.11 18.33,-9.91 0.649,-2.18 63.32,-218.97 -89.614,-299.71 -2.198,-1.16 -4.551,-1.7 -6.871,-1.7"
       style="fill:#371a45;fill-opacity:1;fill-rule:nonzero;stroke:none;stroke-width:0.1"
       id="path194" />
    <path
       d="m 656.294,1928.83 -7.881,-52.23 -1.597,10.51 c 36.212,-66.32 31.641,-165.2 -37.789,-208.24 -21.39,-13.38 -44.955,-20.8 -68.434,-24.28 -2.802,-0.35 -3.997,3.6 -1.306,4.74 68.082,27.5 104.601,75.71 91.237,150.31 -2.415,15.79 -6.508,31.61 -11.22,46.98 l -4.848,14.82 c -1.631,3.37 -2.134,7.06 -1.597,10.52 l 7.881,52.24 c 4.227,23.32 38.371,18.3 35.554,-5.37"
       style="fill:#371a45;fill-opacity:1;fill-rule:nonzero;stroke:none;stroke-width:0.1"
       id="path196" />
    <path
       d="m 669.163,1764.85 c -6.709,0 -13.677,0.74 -20.909,2.34 -9.697,2.15 -15.815,11.74 -13.672,21.44 2.139,9.69 11.729,15.82 21.436,13.67 62.646,-13.85 94.375,76.65 94.688,77.57 3.203,9.39 13.417,14.41 22.822,11.2 9.399,-3.21 14.414,-13.43 11.201,-22.83 -13.023,-38.13 -52.72,-103.39 -115.566,-103.39"
       style="fill:#371a45;fill-opacity:1;fill-rule:nonzero;stroke:none;stroke-width:0.1"
       id="path198" />
    <path
       d="m 2508.17,2016.74 -30.84,-44.86 c -0.8,-1.17 -2.4,-1.46 -3.57,-0.66 -0.73,0.51 -1.12,1.34 -1.11,2.17 l 1.31,54.43 c 0.25,10.36 8.85,18.55 19.21,18.3 14.56,0.08 23.5,-17.76 15,-29.38"
       style="fill:#371a45;fill-opacity:1;fill-rule:nonzero;stroke:none;stroke-width:0.1"
       id="path200" />
    <path
       d="m 2624.87,1610.22 c -6.04,0 -11.69,3.73 -13.87,9.73 -2.77,7.66 1.19,16.11 8.85,18.88 66.19,23.97 103.61,91.34 103.98,92.02 3.91,7.15 12.86,9.78 20.01,5.87 7.14,-3.9 9.77,-12.86 5.87,-20.01 -1.73,-3.16 -43.26,-77.88 -119.83,-105.6 -1.65,-0.6 -3.35,-0.89 -5.01,-0.89"
       style="fill:#371a45;fill-opacity:1;fill-rule:nonzero;stroke:none;stroke-width:0.1"
       id="path202" />
    <path
       d="m 2057.31,1057.93 c 72.43,24.02 142.07,59.42 198.22,102.65 83.11,64.01 68.34,145.35 42.73,191.91 93.83,50.79 139.4,122.2 152.67,146.06 60.44,2.04 118.59,23.79 160.59,72.23 6.74,7.13 12.69,14.98 17.82,23.36 13.52,-24.98 31.75,-62.41 41.48,-98.32 1.49,-5.49 5.5,-9.96 10.8,-12.04 0.5,-0.19 50.19,-19.75 104.22,-47.96 l 30.8,-38.89 c 0.48,-0.66 1.18,-0.95 1.89,-0.95 1.44,0 2.92,1.21 2.62,2.89 l -6.37,44.55 c 3.33,3.09 7.92,7.31 13.52,12.39 17.45,-17.31 61.29,-65.67 87.7,-137.27 -57.83,-47.33 -111.65,-65.63 -160.28,-65.64 -126.52,-0.02 -218.01,123.81 -254.29,182.54 -2.39,-0.63 -3.72,-0.93 -3.72,-0.93 0,0 -82.84,-27.26 -99.77,-216.25 -11.05,-123.3 -206.28,-153.94 -340.63,-160.33"
       style="fill:#beb5c2;fill-opacity:1;fill-rule:nonzero;stroke:none;stroke-width:0.1"
       id="path204" />
    <path
       d="m 2785.84,1435.82 c -54.03,28.21 -103.72,47.77 -104.22,47.96 -5.3,2.08 -9.31,6.55 -10.8,12.04 -9.73,35.91 -27.96,73.34 -41.48,98.32 3.18,5.19 6.04,10.59 8.57,16.14 l 0.86,-6.01 0.99,-6.91 c 0.85,0.02 1.76,0.09 2.66,0.15 13.48,-25.59 30.27,-61.27 39.72,-96.1 0,0 43.29,-16.95 93.9,-42.56 -1.05,-5.19 0.1,-10.79 3.65,-15.27 l 6.15,-7.76 m 28.94,7.6 -2.06,14.36 c -0.47,4.01 -2.28,7.46 -4.89,10.12 2.42,2.19 5.03,4.57 7.85,7.11 -0.27,-4.46 1.48,-8.99 5.13,-12.12 0.21,-0.18 2.96,-2.58 7.49,-7.08 -5.6,-5.08 -10.19,-9.3 -13.52,-12.39"
       style="fill:#371a45;fill-opacity:1;fill-rule:nonzero;stroke:none;stroke-width:0.1"
       id="path206" />
    <path
       d="m 1948.02,1067.25 c 24.63,14.37 45.28,29.09 62.51,44.02 l 22.62,-23.5 c -28.28,-8.78 -56.89,-15.69 -85.13,-20.52 m 116.05,30.91 -32.23,33.5 c 98.83,104.95 41.1,216.03 -7.6,277.78 5.81,-3.36 11.9,-7.16 18.25,-11.43 74.2,-49.95 151.51,-143.78 161.19,-230.31 -42.02,-27.93 -89.88,-51.54 -139.61,-69.54 m 172.27,93.07 c -19.33,94.98 -100.09,187.01 -173.77,236.61 -19.5,13.12 -50.54,31.22 -81.26,37.53 13.12,37.43 10.11,61.29 1.38,76.5 0.02,0 0.03,0.01 0.04,0.01 11.88,4.28 24.29,6.41 36.55,6.41 15.09,0 29.96,-3.22 43.36,-9.61 24.73,-11.79 47.33,-30.41 67.37,-55.47 -17.21,-13.67 -23.51,-37.02 -15.29,-57.6 10.83,-27.12 37.07,-76.07 91.15,-99.2 6.32,-2.7 13.04,-4.05 19.75,-4.05 7.48,0 14.94,1.68 21.82,5.02 l 18.29,8.87 c 5.39,-9.91 12.13,-25.04 15.04,-42.72 6.45,-39.13 -8.49,-73.53 -44.43,-102.3 m 703.73,146.7 c -27.9,69.92 -70.36,117.95 -89.78,137.54 28.75,25.34 68.59,59.05 107.22,87.03 24.11,-18.02 83.59,-64.91 137.86,-126.99 -38.04,-15.39 -88.53,-44.97 -155.3,-97.58"
       style="fill:#beb5c2;fill-opacity:1;fill-rule:nonzero;stroke:none;stroke-width:0.1"
       id="path208" />
    <path
       d="m 2850.29,1475.47 c -6.23,6.28 -10.09,9.64 -10.34,9.85 -2.57,2.18 -5.66,3.34 -8.79,3.49 29.09,25.69 69.89,60.26 109.72,89.11 0.99,-2.9 2.87,-5.51 5.58,-7.38 0.37,-0.25 4.34,-3.03 11.05,-8.04 -38.63,-27.98 -78.47,-61.69 -107.22,-87.03"
       style="fill:#371a45;fill-opacity:1;fill-rule:nonzero;stroke:none;stroke-width:0.1"
       id="path210" />
    <path
       d="m 2225.61,1358.32 c -1.9,0 -3.81,0.38 -5.6,1.15 -33.11,14.16 -53.31,40.92 -65.36,64.92 2.35,-0.2 4.72,-0.29 7.1,-0.29 61.64,0 132.13,65.28 162.82,97.08 27.15,-10.65 56,-17.92 85.05,-21.05 -20.37,-30.51 -65.89,-86.47 -144.99,-124.44 -0.08,-0.04 -0.16,-0.07 -0.23,-0.11 l -32.66,-15.85 c -1.93,-0.94 -4.03,-1.41 -6.13,-1.41 m 900.36,87.36 c -53.42,63.18 -112.71,111.6 -142.88,134.56 6.36,4.19 12.6,8.12 18.67,11.74 4.67,2.78 9.79,4.16 15.5,4.16 3.41,0 7.02,-0.49 10.86,-1.47 47.57,-12.16 109.66,-90.27 148.12,-146.71 -5.28,1.29 -11.38,2.07 -18.43,2.07 -9,0 -19.53,-1.27 -31.84,-4.35"
       style="fill:#beb5c2;fill-opacity:1;fill-rule:nonzero;stroke:none;stroke-width:0.1"
       id="path212" />
    <path
       d="m 3202.02,1433.07 c -4.72,5.41 -12.73,11.71 -25.78,14.89 -38.46,56.44 -100.55,134.55 -148.12,146.71 -3.84,0.98 -7.45,1.47 -10.86,1.47 -5.71,0 -10.83,-1.38 -15.5,-4.16 -6.07,-3.62 -12.31,-7.55 -18.67,-11.74 -9.73,7.4 -16.43,12.16 -18.93,13.91 7.62,5.08 15.11,9.84 22.36,14.16 7.75,4.61 16.02,6.7 24.63,6.7 69,0 160.52,-134.2 190.87,-181.94"
       style="fill:#371a45;fill-opacity:1;fill-rule:nonzero;stroke:none;stroke-width:0.1"
       id="path214" />
    <path
       d="m 1946.65,1567.23 c -4.26,0.99 -7.04,1.18 -7.04,1.18 l 9.73,-0.24 c -0.88,-0.31 -1.78,-0.62 -2.69,-0.94"
       style="fill:#beb5c2;fill-opacity:1;fill-rule:nonzero;stroke:none;stroke-width:0.1"
       id="path216" />
    <path
       d="m 2450.93,1498.55 c 2.52,4.54 3.88,7.35 4.18,7.99 1.71,3.63 2.1,7.54 1.37,11.19 3.68,-0.14 7.37,-0.22 11.06,-0.22 l 0.1,-0.02 c 16.22,1.55 30.97,4.7 44.33,8.97 19.64,3.78 36.02,9.72 49.7,17.08 l 52.71,52.93 0.05,-0.01 c 2.49,4.81 4.6,9.62 6.38,14.33 1.31,-0.37 2.67,-0.57 4.06,-0.57 1.66,0 3.36,0.29 5.01,0.89 2.54,0.92 5.04,1.88 7.5,2.9 l 0.53,-3.73 c -2.53,-5.55 -5.39,-10.95 -8.57,-16.14 -5.13,-8.38 -11.08,-16.23 -17.82,-23.36 -42,-48.44 -100.15,-70.19 -160.59,-72.23 m -41.31,1.58 c -29.05,3.13 -57.9,10.4 -85.05,21.05 9.88,10.24 15.63,17.01 15.63,17.01 7.48,-1.81 14.78,-3.45 21.88,-4.93 17.75,-4.87 38.28,-9.5 59.96,-12.46 -1.4,-2.73 -5.43,-10.2 -12.42,-20.67"
       style="fill:#371a45;fill-opacity:1;fill-rule:nonzero;stroke:none;stroke-width:0.1"
       id="path218" />
    <path
       d="m 2467.64,1517.49 -0.1,0.02 c -3.69,0 -7.38,0.08 -11.06,0.22 -0.3,1.46 -0.77,2.88 -1.41,4.22 1.82,-0.02 3.63,-0.04 5.42,-0.04 19.25,0 36.33,1.63 51.48,4.55 -13.36,-4.27 -28.11,-7.42 -44.33,-8.97 m -45.6,3.31 c -21.68,2.96 -42.21,7.59 -59.96,12.46 22.31,-4.66 42.77,-7.76 61.52,-9.53 -0.36,-0.58 -0.69,-1.18 -0.99,-1.81 -0.03,-0.05 -0.21,-0.44 -0.57,-1.12"
       style="fill:#371a45;fill-opacity:1;fill-rule:nonzero;stroke:none;stroke-width:0.1"
       id="path220" />
    <path
       d="m 2818.53,1395.98 c -0.71,0 -1.41,0.29 -1.89,0.95 l -30.8,38.89 -6.15,7.76 c -3.55,4.48 -4.7,10.08 -3.65,15.27 4.66,-2.36 9.38,-4.79 14.13,-7.28 0,0 6.56,6.21 17.66,16.33 2.61,-2.66 4.42,-6.11 4.89,-10.12 l 2.06,-14.36 6.37,-44.55 c 0.3,-1.68 -1.18,-2.89 -2.62,-2.89"
       style="fill:#371a45;fill-opacity:1;fill-rule:nonzero;stroke:none;stroke-width:0.1"
       id="path222" />
    <path
       d="m 3095.37,1435.51 c -54.27,62.08 -113.75,108.97 -137.86,126.99 -6.71,5.01 -10.68,7.79 -11.05,8.04 -2.71,1.87 -4.59,4.48 -5.58,7.38 7.83,5.66 15.62,11.11 23.28,16.23 2.5,-1.75 9.2,-6.51 18.93,-13.91 30.17,-22.96 89.46,-71.38 142.88,-134.56 -9.17,-2.3 -19.35,-5.62 -30.6,-10.17"
       style="fill:#371a45;fill-opacity:1;fill-rule:nonzero;stroke:none;stroke-width:0.1"
       id="path224" />
    <path
       d="m 2916,1318.54 c -26.41,71.6 -70.25,119.96 -87.7,137.27 -4.53,4.5 -7.28,6.9 -7.49,7.08 -3.65,3.13 -5.4,7.66 -5.13,12.12 4.66,4.2 9.85,8.83 15.48,13.8 3.13,-0.15 6.22,-1.31 8.79,-3.49 0.25,-0.21 4.11,-3.57 10.34,-9.85 19.42,-19.59 61.88,-67.62 89.78,-137.54 -7.58,-5.97 -15.36,-12.23 -23.37,-18.82 -0.23,-0.19 -0.47,-0.38 -0.7,-0.57"
       style="fill:#371a45;fill-opacity:1;fill-rule:nonzero;stroke:none;stroke-width:0.1"
       id="path226" />
    <path
       d="m 1993.54,1056.43 c -37.66,0 -62.05,1.56 -62.05,1.56 5.69,3.06 11.21,6.16 16.53,9.26 28.24,4.83 56.85,11.74 85.13,20.52 l 15.07,-15.66 c 2.9,-3.01 6.76,-4.52 10.63,-4.52 3.68,0 7.36,1.37 10.22,4.12 5.86,5.64 6.04,14.98 0.4,20.84 l -5.4,5.61 c 49.73,18 97.59,41.61 139.61,69.54 0.37,-3.31 0.65,-6.6 0.81,-9.89 0.5,-9.6 8.44,-17.05 17.94,-17.05 0.32,0 0.63,0.01 0.94,0.02 9.92,0.51 17.55,8.96 17.03,18.88 -0.54,10.52 -1.92,21.07 -4.06,31.57 35.94,28.77 50.88,63.17 44.43,102.3 -2.91,17.68 -9.65,32.81 -15.04,42.72 l 14.54,7.06 c 8.93,4.33 12.65,15.09 8.32,24.02 -3.11,6.41 -9.52,10.14 -16.19,10.14 -2.63,0 -5.31,-0.58 -7.84,-1.81 l -0.16,-0.08 c 0.07,0.04 0.15,0.07 0.23,0.11 79.1,37.97 124.62,93.93 144.99,124.44 6.99,10.47 11.02,17.94 12.42,20.67 0.36,0.68 0.54,1.07 0.57,1.12 0.3,0.63 0.63,1.23 0.99,1.81 11.07,-1.05 21.54,-1.62 31.47,-1.78 0.64,-1.34 1.11,-2.76 1.41,-4.22 0.73,-3.65 0.34,-7.56 -1.37,-11.19 -0.3,-0.64 -1.66,-3.45 -4.18,-7.99 -13.27,-23.86 -58.84,-95.27 -152.67,-146.06 25.61,-46.56 40.38,-127.9 -42.73,-191.91 -56.15,-43.23 -125.79,-78.63 -198.22,-102.65 -23.58,-1.13 -45.26,-1.5 -63.77,-1.5"
       style="fill:#371a45;fill-opacity:1;fill-rule:nonzero;stroke:none;stroke-width:0.1"
       id="path228" />
    <path
       d="m 2130.01,1483.21 c -20.04,25.06 -42.64,43.68 -67.37,55.47 -13.4,6.39 -28.27,9.61 -43.36,9.61 -12.26,0 -24.67,-2.13 -36.55,-6.41 -0.01,0 -0.02,-0.01 -0.04,-0.01 -9.72,16.96 -26.55,23.15 -36.04,25.36 0.91,0.32 1.81,0.63 2.69,0.94 l 78.56,-1.9 c 1.27,0.05 2.54,0.08 3.78,0.08 67.78,0 108,-73.15 108,-73.15 l -0.84,-3.52 -7.05,-5.11 c -0.6,-0.44 -1.2,-0.9 -1.78,-1.36"
       style="fill:#371a45;fill-opacity:1;fill-rule:nonzero;stroke:none;stroke-width:0.1"
       id="path230" />
    <path
       d="m 2225.62,1322.36 c -6.71,0 -13.43,1.35 -19.75,4.05 -54.08,23.13 -80.32,72.08 -91.15,99.2 -8.22,20.58 -1.92,43.93 15.29,57.6 0.58,0.46 1.18,0.92 1.78,1.36 l 7.05,5.11 -13.48,-56.5 c 9.32,-5.14 19.15,-7.92 29.29,-8.79 12.05,-24 32.25,-50.76 65.36,-64.92 1.79,-0.77 3.7,-1.15 5.6,-1.15 2.1,0 4.2,0.47 6.13,1.41 l 32.66,15.85 0.16,0.08 c 2.53,1.23 5.21,1.81 7.84,1.81 6.67,0 13.08,-3.73 16.19,-10.14 4.33,-8.93 0.61,-19.69 -8.32,-24.02 l -14.54,-7.06 -18.29,-8.87 c -6.88,-3.34 -14.34,-5.02 -21.82,-5.02"
       style="fill:#371a45;fill-opacity:1;fill-rule:nonzero;stroke:none;stroke-width:0.1"
       id="path232" />
    <path
       d="m 2222.43,1140.76 c -9.5,0 -17.44,7.45 -17.94,17.05 -0.16,3.29 -0.44,6.58 -0.81,9.89 -9.68,86.53 -86.99,180.36 -161.19,230.31 -6.35,4.27 -12.44,8.07 -18.25,11.43 -23.88,30.3 -45.6,48.71 -45.6,48.71 0.95,2.46 1.84,4.87 2.67,7.22 30.72,-6.31 61.76,-24.41 81.26,-37.53 73.68,-49.6 154.44,-141.63 173.77,-236.61 2.14,-10.5 3.52,-21.05 4.06,-31.57 0.52,-9.92 -7.11,-18.37 -17.03,-18.88 -0.31,-0.01 -0.62,-0.02 -0.94,-0.02"
       style="fill:#371a45;fill-opacity:1;fill-rule:nonzero;stroke:none;stroke-width:0.1"
       id="path234" />
    <path
       d="m 2058.85,1067.59 c -3.87,0 -7.73,1.51 -10.63,4.52 l -15.07,15.66 -22.62,23.5 c 7.79,6.75 14.89,13.57 21.31,20.39 l 32.23,-33.5 5.4,-5.61 c 5.64,-5.86 5.46,-15.2 -0.4,-20.84 -2.86,-2.75 -6.54,-4.12 -10.22,-4.12"
       style="fill:#371a45;fill-opacity:1;fill-rule:nonzero;stroke:none;stroke-width:0.1"
       id="path236" />
    <path
       d="m 2630.17,1643.01 c 0.68,2.96 1.27,5.89 1.8,8.84 l 1.07,-7.52 c -0.95,-0.45 -1.9,-0.88 -2.87,-1.32"
       style="fill:#371a45;fill-opacity:1;fill-rule:nonzero;stroke:none;stroke-width:0.1"
       id="path238" />
    <path
       d="m 2628.72,1642.37 c 1.72,12.49 1.36,21.52 1.2,23.82 l 2.05,-14.34 c -0.53,-2.95 -1.12,-5.88 -1.8,-8.84 -0.48,-0.21 -0.96,-0.43 -1.45,-0.64"
       style="fill:#371a45;fill-opacity:1;fill-rule:nonzero;stroke:none;stroke-width:0.1"
       id="path240" />
    <path
       d="m 2624.87,1610.22 c -1.39,0 -2.75,0.2 -4.06,0.57 2.12,5.63 3.76,11.12 5,16.31 1.34,5.46 2.27,10.61 2.91,15.27 0.49,0.21 0.97,0.43 1.45,0.64 0.97,0.44 1.92,0.87 2.87,1.32 l 4.34,-30.32 c -2.46,-1.02 -4.96,-1.98 -7.5,-2.9 -1.65,-0.6 -3.35,-0.89 -5.01,-0.89"
       style="fill:#371a45;fill-opacity:1;fill-rule:nonzero;stroke:none;stroke-width:0.1"
       id="path242" />
    <path
       d="m 2609.56,684.99 c 70.89,91.14 58.48,251.49 51.04,310.05 9.31,-0.22 18.86,-0.35 28.64,-0.38 8.89,-58.28 33.52,-272.92 -78.76,-309.38 -0.31,-0.09 -0.62,-0.19 -0.92,-0.29"
       style="fill:#beb5c2;fill-opacity:1;fill-rule:nonzero;stroke:none;stroke-width:0.1"
       id="path244" />
    <path
       d="m 2591.16,664.77 c 6.68,6.25 12.8,13.02 18.4,20.22 0.3,0.1 0.61,0.2 0.92,0.29 112.28,36.46 87.65,251.1 78.76,309.38 1.45,0 2.92,0 4.38,0 3.62,0 7.29,0.01 10.96,0.04 1.25,0.01 2.47,0.14 3.65,0.4 9.91,-67.98 31.19,-284.08 -91.76,-324.02 -8.74,-2.83 -17.18,-4.92 -25.31,-6.31"
       style="fill:#371a45;fill-opacity:1;fill-rule:nonzero;stroke:none;stroke-width:0.1"
       id="path246" />
    <path
       d="m 2551.13,678.69 c -19.32,2.71 -36.74,10.79 -52.11,24.22 163.33,141.55 78.38,253.86 22.22,303.23 29.41,-4.17 63.72,-7.73 102.83,-9.73 7.23,-54.63 25.61,-251.27 -72.94,-317.72"
       style="fill:#beb5c2;fill-opacity:1;fill-rule:nonzero;stroke:none;stroke-width:0.1"
       id="path248" />
    <path
       d="m 2693.62,994.66 c -1.46,0 -2.93,0 -4.38,0 -9.78,0.03 -19.33,0.16 -28.64,0.38 -0.53,4.13 -1.03,7.75 -1.47,10.8 l 45.85,9.17 c 0.37,-1.96 1.67,-9.04 3.25,-19.91 -1.18,-0.26 -2.4,-0.39 -3.65,-0.4 -3.67,-0.03 -7.34,-0.04 -10.96,-0.04 m -69.55,1.75 c -39.11,2 -73.42,5.56 -102.83,9.73 -20.11,17.69 -36.53,27.29 -36.53,27.29 l 138.81,-32.97 c 0.17,-1.24 0.36,-2.6 0.55,-4.05"
       style="fill:#371a45;fill-opacity:1;fill-rule:nonzero;stroke:none;stroke-width:0.1"
       id="path252" />
    <path
       d="m 2566.61,662.62 c -10.02,0 -19.49,1.13 -28.43,3.25 1.33,3.82 3.95,7.22 7.69,9.47 1.79,1.08 3.55,2.2 5.26,3.35 98.55,66.45 80.17,263.09 72.94,317.72 -0.19,1.45 -0.38,2.81 -0.55,4.05 l 3.98,-0.94 31.63,6.32 c 0.44,-3.05 0.94,-6.67 1.47,-10.8 7.44,-58.56 19.85,-218.91 -51.04,-310.05 -5.6,-7.2 -11.72,-13.97 -18.4,-20.22 -8.52,-1.46 -16.7,-2.15 -24.55,-2.15"
       style="fill:#371a45;fill-opacity:1;fill-rule:nonzero;stroke:none;stroke-width:0.1"
       id="path254" />
    <path
       d="m 2722.26,1015.19 c -0.03,0.15 -0.05,0.3 -0.07,0.44 l 40.05,7.99 c -12.86,-3.34 -26.22,-6.22 -39.98,-8.43"
       style="fill:#261252;fill-opacity:1;fill-rule:nonzero;stroke:none;stroke-width:0.1"
       id="path256" />
    <path
       d="m 2713,1013.8 9.19,1.83 c 0.02,-0.14 0.04,-0.29 0.07,-0.44 -3.07,-0.5 -6.15,-0.96 -9.26,-1.39"
       style="fill:#261252;fill-opacity:1;fill-rule:nonzero;stroke:none;stroke-width:0.1"
       id="path258" />
    <path
       d="m 1756.06,1642.15 c 4.1,1.57 8.19,3.17 12.26,4.81 13.31,5.41 26.65,11.25 39.69,17.37 95.4,45 178.79,108.38 246.44,184.74 17.46,-11.1 37.94,-17.89 58.28,-20.65 6.76,-10.34 15.87,-18.53 26.35,-24.75 -84.26,-110.83 -271.53,-148.66 -383.02,-161.52"
       style="fill:#beb5c2;fill-opacity:1;fill-rule:nonzero;stroke:none;stroke-width:0.1"
       id="path260" />
    <path
       d="m 1676.04,1635.8 c 3.77,1.61 7.52,3.25 11.25,4.91 l 136.57,35.83 c 0.12,-0.04 0.27,-0.06 0.44,-0.06 9.73,0.01 95.49,62.35 95.49,62.35 l 113.36,124.21 6.12,-2.47 c 4.71,-4.24 9.8,-8.08 15.18,-11.5 -67.65,-76.36 -151.04,-139.74 -246.44,-184.74 -13.04,-6.12 -26.38,-11.96 -39.69,-17.37 -4.07,-1.64 -8.16,-3.24 -12.26,-4.81 -37.54,-4.34 -66.5,-5.84 -80.02,-6.35"
       style="fill:#371a45;fill-opacity:1;fill-rule:nonzero;stroke:none;stroke-width:0.1"
       id="path262" />
    <path
       d="m 1667.65,1635.56 19.64,5.15 c -3.73,-1.66 -7.48,-3.3 -11.25,-4.91 -5.45,-0.2 -8.39,-0.24 -8.39,-0.24"
       style="fill:#371a45;fill-opacity:1;fill-rule:nonzero;stroke:none;stroke-width:0.1"
       id="path264" />
    <path
       d="m 2139.08,1803.67 c -10.48,6.22 -19.59,14.41 -26.35,24.75 -20.34,2.76 -40.82,9.55 -58.28,20.65 -5.38,3.42 -10.47,7.26 -15.18,11.5 l 74.46,-30.05 c 1.28,-0.88 2.7,-1.61 4.24,-2.16 1,-0.35 2.01,-0.6 3.02,-0.77 l 27.22,-10.99 c -2.89,-4.41 -5.94,-8.73 -9.13,-12.93"
       style="fill:#371a45;fill-opacity:1;fill-rule:nonzero;stroke:none;stroke-width:0.1"
       id="path266" />
    <path
       d="m 2120.99,1827.59 c -1.01,0.17 -2.02,0.42 -3.02,0.77 -1.54,0.55 -2.96,1.28 -4.24,2.16 l 7.26,-2.93"
       style="fill:#371a45;fill-opacity:1;fill-rule:nonzero;stroke:none;stroke-width:0.1"
       id="path268" />
    <path
       d="m 3125.63,1920.13 c -2.15,28.28 -5.42,58.56 -10.16,90.51 l 143.63,45.81 62.46,-9.43 -195.93,-126.89"
       style="fill:#c31c40;fill-opacity:1;fill-rule:nonzero;stroke:none;stroke-width:0.1"
       id="path270" />
    <path
       d="m 3115.94,1913.85 -0.37,0.53 c -0.79,1.17 -1.72,2.25 -2.78,3.2 -1.81,1.65 -3.69,3.28 -5.62,4.87 l -8.77,82.75 17.07,5.44 c 4.74,-31.95 8.01,-62.23 10.16,-90.51 l -9.69,-6.28"
       style="fill:#371a45;fill-opacity:1;fill-rule:nonzero;stroke:none;stroke-width:0.1"
       id="path272" />
    <path
       d="m 3116.65,1912.8 -0.71,1.05 9.69,6.28 195.93,126.89 15.29,-2.3 -70.36,-54.79 -149.84,-77.13"
       style="fill:#371a45;fill-opacity:1;fill-rule:nonzero;stroke:none;stroke-width:0.1"
       id="path274" />
    <path
       d="m 3108.64,1908.67 -1.47,13.78 c 1.93,-1.59 3.81,-3.22 5.62,-4.87 1.06,-0.95 1.99,-2.03 2.78,-3.2 l 0.37,-0.53 0.71,-1.05 -8.01,-4.13"
       style="fill:#371a45;fill-opacity:1;fill-rule:nonzero;stroke:none;stroke-width:0.1"
       id="path276" />
  </g>
</svg>
