<svg width="155" height="73" viewBox="0 0 155 73" fill="none" xmlns="http://www.w3.org/2000/svg">
<path d="M91.6965 2.55514C64.8239 1.95132 33.7382 -2.8792 15.416 2.55511C-0.463288 7.38562 1.41337 29.7266 0.191895 41.8029C-1.02959 53.8792 3.69698 64.1441 11.0259 68.9746C18.3547 73.8051 47.9712 73.2013 89.5015 72.5975C122.726 72.1144 143.76 66.7605 149.867 64.144C155.727 58.7098 151.754 52.9131 153.709 41.8029C156.152 27.9152 148.841 17.6505 142.733 11.0085C136.626 4.36659 118.569 3.15895 91.6965 2.55514Z" fill="url(#paint0_linear_69_20)"/>
<path d="M91.6916 6.99999C67.2078 6.49999 38.8852 2.49997 22.1916 6.99997C7.72389 11 11.5304 29.4999 10.4175 39.4999C9.30456 49.4999 11.5144 58 18.1918 62C24.8692 66 51.8531 65.5 89.6918 65C119.963 64.6 139.127 60.1666 144.692 57.9999C150.031 53.5 146.411 48.6999 148.192 39.4999C150.418 27.9999 143.756 19.5 138.192 14C132.627 8.5 116.176 7.49999 91.6916 6.99999Z" fill="url(#paint1_linear_69_20)"/>
<g opacity="0.64">
<path d="M118.192 35C93.708 34.5 106.385 46.5 89.6919 51C75.2241 55 54.3048 47.9999 53.1919 57.9999C52.079 67.9999 11.5145 58 18.1919 62C22.9654 64.8595 38.1164 65.4193 60.1919 65.3234C57.6507 59.7468 70.2878 63.8388 91.6918 57C98.9956 54.6664 98.3875 45.4347 106.192 41C113.291 36.9662 130.827 38.3609 135.692 33.5C140.645 28.5511 141.864 22.8984 141.864 18C140.656 16.5257 139.398 15.1923 138.192 14C132.627 8.5 142.676 35.5 118.192 35Z" fill="url(#paint2_linear_69_20)"/>
<path d="M118.192 35C93.708 34.5 106.385 46.5 89.6919 51C75.2241 55 54.3048 47.9999 53.1919 57.9999C52.079 67.9999 11.5145 58 18.1919 62C22.9654 64.8595 38.1164 65.4193 60.1919 65.3234C57.6507 59.7468 70.2878 63.8388 91.6918 57C98.9956 54.6664 98.3875 45.4347 106.192 41C113.291 36.9662 130.827 38.3609 135.692 33.5C140.645 28.5511 141.864 22.8984 141.864 18C140.656 16.5257 139.398 15.1923 138.192 14C132.627 8.5 142.676 35.5 118.192 35Z" fill="url(#paint3_linear_69_20)"/>
</g>
<path d="M127.648 30.68C122.323 31.9026 114.832 30.1031 110.916 26.6607C107 23.2182 108.142 19.4364 113.466 18.2138C118.791 16.9911 126.282 18.7907 130.198 22.2331C134.114 25.6755 132.972 29.4573 127.648 30.68Z" fill="url(#paint4_linear_69_20)"/>
<path d="M24.1094 53.6608C28.0255 57.1032 35.5164 58.9027 40.8412 57.6801C46.1658 56.4574 36.5919 56.4424 32.6758 53C28.7597 49.5576 31.323 48.0105 25.9982 49.2332C20.6736 50.4558 20.1933 50.2183 24.1094 53.6608Z" fill="url(#paint5_linear_69_20)"/>
<path d="M46.8651 46V27.0909H50.2905V35.7791H50.5213L57.8984 27.0909H62.081L54.7685 35.576L62.1456 46H58.0277L52.3864 37.8935L50.2905 40.3679V46H46.8651ZM68.7704 46.277C67.3486 46.277 66.1206 45.9815 65.0865 45.3906C64.0585 44.7936 63.2676 43.9503 62.7136 42.8608C62.1596 41.7652 61.8826 40.4756 61.8826 38.9922C61.8826 37.5334 62.1596 36.2531 62.7136 35.1513C63.2737 34.0433 64.0555 33.1816 65.0588 32.5661C66.0621 31.9444 67.2408 31.6335 68.595 31.6335C69.4691 31.6335 70.2939 31.7751 71.0694 32.0582C71.8512 32.3352 72.5406 32.7661 73.1376 33.3509C73.7408 33.9356 74.2148 34.6804 74.5595 35.5852C74.9042 36.4839 75.0765 37.5549 75.0765 38.7983V39.8232H63.4522V37.5703H71.8727C71.8665 36.9302 71.7281 36.3608 71.4572 35.8622C71.1864 35.3575 70.8078 34.9605 70.3216 34.6712C69.8414 34.3819 69.2813 34.2372 68.6412 34.2372C67.9579 34.2372 67.3578 34.4034 66.8407 34.7358C66.3237 35.062 65.9205 35.4929 65.6312 36.0284C65.3481 36.5578 65.2034 37.1394 65.1973 37.7734V39.7401C65.1973 40.5649 65.3481 41.2727 65.6497 41.8636C65.9513 42.4484 66.3729 42.8977 66.9146 43.2116C67.4563 43.5194 68.0903 43.6733 68.8166 43.6733C69.3029 43.6733 69.743 43.6056 70.1369 43.4702C70.5308 43.3286 70.8725 43.1224 71.1618 42.8516C71.4511 42.5807 71.6696 42.2453 71.8173 41.8452L74.938 42.196C74.7411 43.0208 74.3656 43.741 73.8116 44.3565C73.2638 44.9659 72.5621 45.4399 71.7065 45.7784C70.8509 46.1108 69.8722 46.277 68.7704 46.277ZM77.1241 46V31.8182H80.3187V34.228H80.4849C80.7804 33.4155 81.2697 32.7815 81.953 32.326C82.6362 31.8643 83.4518 31.6335 84.3997 31.6335C85.3599 31.6335 86.1693 31.8674 86.828 32.3352C87.4927 32.7969 87.9605 33.4278 88.2314 34.228H88.3791C88.693 33.4401 89.2224 32.8123 89.9672 32.3445C90.7181 31.8705 91.6076 31.6335 92.6355 31.6335C93.9404 31.6335 95.0053 32.0459 95.8301 32.8707C96.6549 33.6955 97.0673 34.8989 97.0673 36.4808V46H93.7157V36.9979C93.7157 36.1177 93.4818 35.4744 93.014 35.0682C92.5462 34.6558 91.9738 34.4496 91.2967 34.4496C90.4904 34.4496 89.8594 34.7019 89.404 35.2067C88.9546 35.7053 88.73 36.3546 88.73 37.1548V46H85.4523V36.8594C85.4523 36.1269 85.2307 35.5421 84.7875 35.1051C84.3505 34.6681 83.778 34.4496 83.0701 34.4496C82.59 34.4496 82.153 34.5727 81.7591 34.8189C81.3651 35.0589 81.0512 35.4006 80.8173 35.8438C80.5834 36.2808 80.4665 36.7917 80.4665 37.3764V46H77.1241ZM99.8258 46V27.0909H103.168V34.1634H103.307C103.479 33.8187 103.722 33.4524 104.036 33.0646C104.35 32.6707 104.775 32.3352 105.31 32.0582C105.846 31.7751 106.529 31.6335 107.36 31.6335C108.456 31.6335 109.443 31.9136 110.324 32.4737C111.21 33.0277 111.912 33.8494 112.429 34.9389C112.952 36.0223 113.214 37.3518 113.214 38.9276C113.214 40.4848 112.958 41.8082 112.447 42.8977C111.936 43.9872 111.241 44.8182 110.361 45.3906C109.48 45.9631 108.483 46.2493 107.369 46.2493C106.557 46.2493 105.883 46.1139 105.347 45.843C104.812 45.5722 104.381 45.246 104.055 44.8643C103.734 44.4766 103.485 44.1103 103.307 43.7656H103.113V46H99.8258ZM103.104 38.9091C103.104 39.8262 103.233 40.6295 103.491 41.3189C103.756 42.0083 104.135 42.5469 104.627 42.9347C105.126 43.3163 105.729 43.5071 106.437 43.5071C107.175 43.5071 107.794 43.3101 108.292 42.9162C108.791 42.5161 109.167 41.9714 109.419 41.282C109.677 40.5864 109.807 39.7955 109.807 38.9091C109.807 38.0289 109.68 37.2472 109.428 36.5639C109.176 35.8807 108.8 35.3452 108.302 34.9574C107.803 34.5696 107.181 34.3757 106.437 34.3757C105.723 34.3757 105.116 34.5634 104.618 34.9389C104.119 35.3144 103.741 35.8407 103.482 36.5178C103.23 37.1948 103.104 37.992 103.104 38.9091ZM119.356 46.2862C118.457 46.2862 117.648 46.1262 116.928 45.8061C116.214 45.4799 115.647 44.9998 115.229 44.3658C114.816 43.7318 114.61 42.95 114.61 42.0206C114.61 41.2204 114.758 40.5587 115.053 40.0355C115.349 39.5123 115.752 39.0938 116.263 38.7798C116.774 38.4659 117.349 38.2289 117.99 38.0689C118.636 37.9027 119.304 37.7827 119.993 37.7088C120.824 37.6226 121.498 37.5457 122.015 37.478C122.532 37.4041 122.908 37.2933 123.142 37.1456C123.382 36.9917 123.502 36.7547 123.502 36.4347V36.3793C123.502 35.6837 123.295 35.1451 122.883 34.7635C122.471 34.3819 121.877 34.1911 121.101 34.1911C120.282 34.1911 119.633 34.3696 119.153 34.7266C118.679 35.0836 118.359 35.5052 118.193 35.9915L115.072 35.5483C115.318 34.6866 115.724 33.9664 116.291 33.3878C116.857 32.803 117.549 32.366 118.368 32.0767C119.187 31.7812 120.092 31.6335 121.083 31.6335C121.766 31.6335 122.446 31.7135 123.123 31.8736C123.8 32.0336 124.419 32.2983 124.979 32.6676C125.539 33.0308 125.988 33.5263 126.327 34.1541C126.672 34.782 126.844 35.5668 126.844 36.5085V46H123.631V44.0518H123.52C123.317 44.4458 123.031 44.8151 122.661 45.1598C122.298 45.4983 121.84 45.7723 121.286 45.9815C120.738 46.1847 120.095 46.2862 119.356 46.2862ZM120.224 43.8303C120.895 43.8303 121.477 43.6979 121.969 43.4332C122.461 43.1624 122.84 42.8054 123.105 42.3622C123.375 41.919 123.511 41.4358 123.511 40.9126V39.2415C123.406 39.3277 123.228 39.4077 122.975 39.4815C122.729 39.5554 122.452 39.62 122.144 39.6754C121.837 39.7308 121.532 39.7801 121.23 39.8232C120.929 39.8662 120.667 39.9032 120.446 39.9339C119.947 40.0017 119.501 40.1125 119.107 40.2663C118.713 40.4202 118.402 40.6357 118.174 40.9126C117.946 41.1835 117.833 41.5343 117.833 41.9652C117.833 42.5807 118.057 43.0455 118.507 43.3594C118.956 43.6733 119.528 43.8303 120.224 43.8303ZM132.767 27.0909V46H129.425V27.0909H132.767ZM135.424 46V31.8182H138.766V46H135.424ZM137.104 29.8054C136.575 29.8054 136.12 29.63 135.738 29.2791C135.356 28.9221 135.166 28.4943 135.166 27.9957C135.166 27.491 135.356 27.0632 135.738 26.7124C136.12 26.3553 136.575 26.1768 137.104 26.1768C137.64 26.1768 138.095 26.3553 138.471 26.7124C138.853 27.0632 139.043 27.491 139.043 27.9957C139.043 28.4943 138.853 28.9221 138.471 29.2791C138.095 29.63 137.64 29.8054 137.104 29.8054Z" fill="#EF5C00"/>
<path d="M21.0313 35.5L38.5313 15C39.3646 15.1667 40.5312 15.2 40.5312 16C40.5312 16.8 35.1979 30 32.5313 36.5C37.5313 42.6667 46.7313 55.4 43.5313 57C40.3313 58.6 27.1979 43.3333 21.0313 35.5Z" fill="#EF5C00"/>
<defs>
<linearGradient id="paint0_linear_69_20" x1="136.856" y1="21.8772" x2="118.303" y2="83.4787" gradientUnits="userSpaceOnUse">
<stop stop-color="white"/>
<stop offset="1" stop-color="#FFFBF4"/>
</linearGradient>
<linearGradient id="paint1_linear_69_20" x1="132.837" y1="23" x2="118.669" y2="74.7593" gradientUnits="userSpaceOnUse">
<stop stop-color="#FEDB5C"/>
<stop offset="1" stop-color="#FE9F02"/>
</linearGradient>
<linearGradient id="paint2_linear_69_20" x1="43.1918" y1="55" x2="100.895" y2="3.95081" gradientUnits="userSpaceOnUse">
<stop stop-color="#FEDB5C"/>
<stop offset="1" stop-color="#FE9F02"/>
</linearGradient>
<linearGradient id="paint3_linear_69_20" x1="43.1918" y1="55" x2="100.895" y2="3.95081" gradientUnits="userSpaceOnUse">
<stop stop-color="#FEDB5C"/>
<stop offset="1" stop-color="#FE9F02"/>
</linearGradient>
<linearGradient id="paint4_linear_69_20" x1="113.466" y1="18.2138" x2="116.896" y2="33.1489" gradientUnits="userSpaceOnUse">
<stop stop-color="white"/>
<stop offset="1" stop-color="white" stop-opacity="0"/>
</linearGradient>
<linearGradient id="paint5_linear_69_20" x1="26.6599" y1="45.2138" x2="30.0893" y2="60.1489" gradientUnits="userSpaceOnUse">
<stop stop-color="white"/>
<stop offset="1" stop-color="white" stop-opacity="0"/>
</linearGradient>
</defs>
</svg>
