<svg width="40" height="39" viewBox="0 0 40 39" fill="none" xmlns="http://www.w3.org/2000/svg">
<g filter="url(#filter0_i_93_14)">
<path d="M20.0013 33.0418L10.982 38.0904C8.74811 39.3408 6.07531 37.3989 6.57421 34.888L8.58861 24.7499L1.00001 17.7323C-0.879487 15.9942 0.141412 12.852 2.68361 12.5506L12.9478 11.3336L17.2771 1.9478C18.3494 -0.376804 21.6532 -0.376804 22.7255 1.9478L27.0546 11.3336L37.3189 12.5506C39.861 12.852 40.882 15.9941 39.0025 17.7323L31.414 24.7499L33.4284 34.888C33.9273 37.3989 31.2544 39.3408 29.0206 38.0904L20.0013 33.0418Z" fill="url(#paint0_linear_93_14)"/>
</g>
<defs>
<filter id="filter0_i_93_14" x="0.0332031" y="0.204346" width="39.936" height="41.2759" filterUnits="userSpaceOnUse" color-interpolation-filters="sRGB">
<feFlood flood-opacity="0" result="BackgroundImageFix"/>
<feBlend mode="normal" in="SourceGraphic" in2="BackgroundImageFix" result="shape"/>
<feColorMatrix in="SourceAlpha" type="matrix" values="0 0 0 0 0 0 0 0 0 0 0 0 0 0 0 0 0 0 127 0" result="hardAlpha"/>
<feOffset dy="4"/>
<feGaussianBlur stdDeviation="1.5"/>
<feComposite in2="hardAlpha" operator="arithmetic" k2="-1" k3="1"/>
<feColorMatrix type="matrix" values="0 0 0 0 1 0 0 0 0 1 0 0 0 0 1 0 0 0 0.51 0"/>
<feBlend mode="normal" in2="shape" result="effect1_innerShadow_93_14"/>
</filter>
<linearGradient id="paint0_linear_93_14" x1="20.0012" y1="-3.9582" x2="20.0012" y2="41.2672" gradientUnits="userSpaceOnUse">
<stop stop-color="#FB9D00"/>
<stop offset="1" stop-color="#FFD833"/>
</linearGradient>
</defs>
</svg>
