<svg width="155" height="73" viewBox="0 0 155 73" fill="none" xmlns="http://www.w3.org/2000/svg">
<path d="M62.4954 2.55514C89.368 1.95132 120.454 -2.8792 138.776 2.55511C154.655 7.38562 152.779 29.7266 154 41.8029C155.221 53.8792 150.495 64.1441 143.166 68.9746C135.837 73.8051 106.221 73.2013 64.6904 72.5975C31.4661 72.1144 10.4319 66.7605 4.32446 64.144C-1.53516 58.7098 2.43743 52.9131 0.483062 41.8029C-1.9599 27.9152 5.35123 17.6505 11.4586 11.0085C17.566 4.36659 35.6228 3.15895 62.4954 2.55514Z" fill="url(#paint0_linear_36_24)"/>
<path d="M62.5001 6.99999C86.984 6.49999 115.307 2.49997 132 6.99997C146.468 11 142.661 29.4999 143.774 39.4999C144.887 49.4999 142.677 58 136 62C129.323 66 102.339 65.5 64.5 65C34.229 64.6 15.0645 60.1666 9.5 57.9999C4.16124 53.5 7.7807 48.6999 6.00006 39.4999C3.77425 27.9999 10.4355 19.5 16 14C21.5645 8.5 38.0163 7.49999 62.5001 6.99999Z" fill="url(#paint1_linear_36_24)"/>
<g opacity="0.64">
<path d="M35.9999 35C60.4838 34.5 47.8063 46.5 64.4999 51C78.9676 55 99.887 47.9999 101 57.9999C102.113 67.9999 142.677 58 136 62C131.226 64.8595 116.075 65.4193 93.9999 65.3234C96.5411 59.7468 83.9039 63.8388 62.5 57C55.1962 54.6664 55.8043 45.4347 48 41C40.9012 36.9662 23.3652 38.3609 18.5 33.5C13.5467 28.5511 12.328 22.8984 12.328 18C13.5357 16.5257 14.7936 15.1923 15.9999 14C21.5644 8.5 11.516 35.5 35.9999 35Z" fill="url(#paint2_linear_36_24)"/>
<path d="M35.9999 35C60.4838 34.5 47.8063 46.5 64.4999 51C78.9676 55 99.887 47.9999 101 57.9999C102.113 67.9999 142.677 58 136 62C131.226 64.8595 116.075 65.4193 93.9999 65.3234C96.5411 59.7468 83.9039 63.8388 62.5 57C55.1962 54.6664 55.8043 45.4347 48 41C40.9012 36.9662 23.3652 38.3609 18.5 33.5C13.5467 28.5511 12.328 22.8984 12.328 18C13.5357 16.5257 14.7936 15.1923 15.9999 14C21.5644 8.5 11.516 35.5 35.9999 35Z" fill="url(#paint3_linear_36_24)"/>
</g>
<path d="M26.5443 30.68C31.869 31.9026 39.3601 30.1031 43.2761 26.6607C47.1922 23.2182 46.0503 19.4364 40.7257 18.2138C35.4011 16.9911 27.91 18.7907 23.9939 22.2331C20.0778 25.6755 21.2197 29.4573 26.5443 30.68Z" fill="url(#paint4_linear_36_24)"/>
<path d="M130.083 53.6608C126.166 57.1032 118.675 58.9027 113.351 57.6801C108.026 56.4574 117.6 56.4424 121.516 53C125.432 49.5576 122.869 48.0105 128.194 49.2332C133.518 50.4558 133.999 50.2183 130.083 53.6608Z" fill="url(#paint5_linear_36_24)"/>
<path d="M39.2955 48V24.7273H43.5114V35.4205H43.7955L52.875 24.7273H58.0227L49.0227 35.1705L58.1023 48H53.0341L46.0909 38.0227L43.5114 41.0682V48H39.2955ZM75.6222 24.7273H79.8381V39.9318C79.8381 41.5985 79.4441 43.0644 78.6562 44.3295C77.8759 45.5947 76.7775 46.5833 75.3608 47.2955C73.9441 48 72.2888 48.3523 70.3949 48.3523C68.4934 48.3523 66.8343 48 65.4176 47.2955C64.0009 46.5833 62.9025 45.5947 62.1222 44.3295C61.3419 43.0644 60.9517 41.5985 60.9517 39.9318V24.7273H65.1676V39.5795C65.1676 40.5492 65.3797 41.4129 65.804 42.1705C66.2358 42.928 66.8419 43.5227 67.6222 43.9545C68.4025 44.3788 69.3267 44.5909 70.3949 44.5909C71.4631 44.5909 72.3873 44.3788 73.1676 43.9545C73.9555 43.5227 74.5616 42.928 74.9858 42.1705C75.41 41.4129 75.6222 40.5492 75.6222 39.5795V24.7273ZM88.6364 24.7273V48H84.4205V24.7273H88.6364ZM105.849 31.125C105.743 30.1326 105.296 29.3598 104.509 28.8068C103.728 28.2538 102.713 27.9773 101.463 27.9773C100.584 27.9773 99.8305 28.1098 99.2017 28.375C98.5729 28.6402 98.0919 29 97.7585 29.4545C97.4252 29.9091 97.2547 30.428 97.2472 31.0114C97.2472 31.4962 97.357 31.9167 97.5767 32.2727C97.804 32.6288 98.1108 32.9318 98.4972 33.1818C98.8835 33.4242 99.3116 33.6288 99.7812 33.7955C100.251 33.9621 100.724 34.1023 101.202 34.2159L103.384 34.7614C104.262 34.9659 105.107 35.2424 105.918 35.5909C106.736 35.9394 107.467 36.3788 108.111 36.9091C108.762 37.4394 109.277 38.0795 109.656 38.8295C110.035 39.5795 110.224 40.4583 110.224 41.4659C110.224 42.8295 109.876 44.0303 109.179 45.0682C108.482 46.0985 107.474 46.9053 106.156 47.4886C104.846 48.0644 103.259 48.3523 101.395 48.3523C99.5843 48.3523 98.0123 48.072 96.679 47.5114C95.3532 46.9508 94.3153 46.1326 93.5653 45.0568C92.8229 43.9811 92.4214 42.6705 92.3608 41.125H96.5085C96.5691 41.9356 96.8191 42.6098 97.2585 43.1477C97.6979 43.6856 98.2699 44.0871 98.9744 44.3523C99.6866 44.6174 100.482 44.75 101.361 44.75C102.277 44.75 103.08 44.6136 103.77 44.3409C104.467 44.0606 105.012 43.6742 105.406 43.1818C105.8 42.6818 106.001 42.0985 106.009 41.4318C106.001 40.8258 105.823 40.3258 105.474 39.9318C105.126 39.5303 104.637 39.197 104.009 38.9318C103.387 38.6591 102.66 38.4167 101.827 38.2045L99.179 37.5227C97.2623 37.0303 95.7472 36.2841 94.6335 35.2841C93.5275 34.2765 92.9744 32.9394 92.9744 31.2727C92.9744 29.9015 93.3456 28.7008 94.0881 27.6705C94.8381 26.6402 95.857 25.8409 97.1449 25.2727C98.4328 24.697 99.8911 24.4091 101.52 24.4091C103.171 24.4091 104.618 24.697 105.861 25.2727C107.111 25.8409 108.092 26.6326 108.804 27.6477C109.516 28.6553 109.884 29.8144 109.906 31.125H105.849Z" fill="#EF5C00"/>
<defs>
<linearGradient id="paint0_linear_36_24" x1="17.3359" y1="21.8772" x2="35.889" y2="83.4787" gradientUnits="userSpaceOnUse">
<stop stop-color="white"/>
<stop offset="1" stop-color="#FFFBF4"/>
</linearGradient>
<linearGradient id="paint1_linear_36_24" x1="21.3548" y1="23" x2="35.5229" y2="74.7593" gradientUnits="userSpaceOnUse">
<stop stop-color="#FEDB5C"/>
<stop offset="1" stop-color="#FE9F02"/>
</linearGradient>
<linearGradient id="paint2_linear_36_24" x1="111" y1="55" x2="53.2965" y2="3.95081" gradientUnits="userSpaceOnUse">
<stop stop-color="#FEDB5C"/>
<stop offset="1" stop-color="#FE9F02"/>
</linearGradient>
<linearGradient id="paint3_linear_36_24" x1="111" y1="55" x2="53.2965" y2="3.95081" gradientUnits="userSpaceOnUse">
<stop stop-color="#FEDB5C"/>
<stop offset="1" stop-color="#FE9F02"/>
</linearGradient>
<linearGradient id="paint4_linear_36_24" x1="40.7257" y1="18.2138" x2="37.2963" y2="33.1489" gradientUnits="userSpaceOnUse">
<stop stop-color="white"/>
<stop offset="1" stop-color="white" stop-opacity="0"/>
</linearGradient>
<linearGradient id="paint5_linear_36_24" x1="127.532" y1="45.2138" x2="124.103" y2="60.1489" gradientUnits="userSpaceOnUse">
<stop stop-color="white"/>
<stop offset="1" stop-color="white" stop-opacity="0"/>
</linearGradient>
</defs>
</svg>
