<svg width="3933" height="3271" viewBox="0 0 3933 3271" fill="none" xmlns="http://www.w3.org/2000/svg">
<path d="M3526.65 1197.77L3804.09 1239.64C3825.63 1242.88 3845.52 1253.29 3860.05 1269.53C3883.27 1295.48 3911.55 1341.32 3908.03 1408.51L3599.43 1608.37L3526.65 1197.77Z" fill="#FF1D3E"/>
<path d="M3865.92 1319.84C3864.92 1318.65 3863.92 1317.51 3862.93 1316.4C3848.41 1300.16 3828.51 1289.8 3806.93 1286.55L3566.27 1250.24C3564.2 1242.56 3562.04 1234.79 3559.84 1227.03L3800.52 1263.33C3816.79 1265.79 3831.59 1273.67 3842.19 1285.52C3850.17 1294.45 3858.67 1305.85 3865.92 1319.84Z" fill="#FBA0AE"/>
<path d="M3548.05 1913.59C3498.27 1959.43 3405.08 2040.85 3287.68 2123.67L3048.84 2273.17L2976.72 2192.05L2416.11 1561.44L2114.32 910.12L1992.85 648L1877.04 127.386C1877.04 127.386 2251.33 -195.654 2889.93 304.186C2932.67 337.599 2976.57 374.706 3021.59 415.826C3274.17 646.493 3419.2 895.333 3500.96 1121.17C3570.87 1314.01 3594.67 1490.03 3600.12 1623.45C3601.99 1668.6 3601.67 1708.91 3600.4 1743.24C3599.24 1772.88 3597.35 1798.17 3595.41 1818.43C3591.84 1854.92 3575.07 1888.71 3548.05 1913.59Z" fill="url(#paint0_linear_95_160)"/>
<path d="M2889.93 304.187C2889.93 304.187 2763.67 837.187 2274.33 1021.4L2114.32 910.12L1992.85 648L1877.04 127.387C1877.04 127.387 2251.33 -195.653 2889.93 304.187Z" fill="#FF1D3E"/>
<path d="M3548.05 1913.59C3498.27 1959.43 3405.08 2040.85 3287.68 2123.67L3048.84 2273.17L2976.72 2192.05L3114 2070.96C3266.6 2007.83 3426.04 1864.57 3426.04 1864.57L3600.4 1743.24C3599.24 1772.88 3597.35 1798.17 3595.41 1818.43C3591.84 1854.92 3575.07 1888.71 3548.05 1913.59Z" fill="#FF1D3E"/>
<path d="M3600.12 1623.45C3574.61 1718.27 3524.25 1815.31 3426.04 1864.57C3426.04 1864.57 3266.6 2007.83 3114 2070.96L2776.91 1778.89C3297.21 1583.05 3500.96 1121.17 3500.96 1121.17C3570.87 1314.01 3594.67 1490.03 3600.12 1623.45Z" fill="#3E96FF"/>
<path d="M3493.76 1816.95C3510.65 1800.92 3525.43 1783.12 3538.31 1764.12C3543.36 1768.79 3547.89 1773.12 3551.87 1777L3498.79 1813.95L3493.76 1816.95ZM3053.39 1604.68C3023.91 1555.97 2989.13 1511.47 2956.37 1476.49C2898.28 1414.47 2838.55 1402.97 2802.27 1402.97C2795.32 1402.97 2789.23 1403.4 2784.17 1403.97C2756.73 1372.11 2716.91 1339.83 2687.32 1317.68C2681.21 1271.45 2664.28 1227.93 2629.03 1200.13C2615.11 1189.88 2600.39 1185.49 2585.88 1185.49C2561.79 1185.49 2538.27 1197.57 2519.81 1214.99C2494.29 1199.96 2465.68 1190.68 2436.07 1187.4C2433.25 1187.07 2430.44 1186.81 2427.64 1186.63C2434.93 1149.48 2440.12 1111.73 2443.12 1073.55C2446.77 1027.21 2447.2 981.146 2444.51 935.613C2486.28 908.599 2524.44 879.026 2559.24 847.879C2568.09 893.426 2573.29 941.679 2574.08 992.666C2732.17 1222.53 2932.52 1456.84 3134.76 1542.03C3109.2 1563.33 3082.09 1584.32 3053.39 1604.68Z" fill="#BDB4C1"/>
<path d="M2444.51 935.613C2431.84 721.253 2349.87 518.48 2207.24 353.733C2175.99 317.64 2142.51 284.147 2107.05 253.373C2259.99 343.72 2497.72 531.253 2559.24 847.88C2524.44 879.027 2486.28 908.6 2444.51 935.613Z" fill="#C31C40"/>
<path d="M3353.05 1999.32C3336.88 1999.32 3321.69 1995.31 3307.41 1988.07C3359.03 1951.93 3401 1917.61 3423.75 1898.31C3427.77 1901.08 3432.53 1902.52 3437.33 1902.52C3441.53 1902.52 3445.77 1901.41 3449.6 1899.13L3544.37 1842.57C3511.77 1891.97 3481.33 1928.09 3453.01 1953.09C3445.31 1955.15 3437.91 1958.29 3430.83 1962.51C3414.48 1972.23 3397.39 1983.51 3380.08 1995.69C3370.79 1998.15 3361.77 1999.32 3353.05 1999.32ZM3498.79 1813.95L3551.87 1777C3553.03 1778.13 3554.13 1779.23 3555.19 1780.28L3498.79 1813.95Z" fill="#C31C40"/>
<path d="M3267.29 1957.36C3204.63 1892.23 3164.51 1764.79 3142.44 1673.41L3139.53 1846.88C3134.15 1835.67 3129.31 1826.93 3126.11 1821.44C3126.16 1764.92 3106.25 1704.16 3076.93 1646.84C3117.83 1618.13 3155.36 1588.41 3189.57 1558.69C3250.05 1674.12 3346.91 1802.64 3393 1861.45C3369.36 1881.44 3323.16 1919.08 3267.29 1957.36ZM3442.95 1847.27C3413.65 1810.36 3339.95 1715.23 3278.6 1616.96C3395.15 1644.31 3490.29 1719.72 3538.31 1764.12C3525.43 1783.12 3510.65 1800.92 3493.76 1816.95L3442.95 1847.27Z" fill="#3C71C7"/>
<path d="M3532.41 1311.44C3521.41 1271.33 3508.52 1230.13 3493.45 1188.15C3494.45 1186.37 3495.43 1184.63 3496.36 1182.93C3510.63 1226.92 3522.53 1269.91 3532.41 1311.44Z" fill="#AED1FB"/>
<path d="M3470.79 1128.48C3386 917.547 3244.67 689.947 3012.25 477.694C2967.23 436.587 2923.33 399.48 2880.6 366.054C2878.09 364.107 2875.65 362.2 2873.16 360.267C2877.23 348.174 2880.48 337.774 2883 329.307C2922.72 360.667 2963.53 395.294 3005.41 433.547C3251.07 657.88 3393.47 900.12 3474.75 1120.52C3473.64 1122.79 3472.32 1125.44 3470.79 1128.48Z" fill="#F8F8F8"/>
<path d="M2873.16 360.266C2598.03 146.999 2372.25 86.5723 2204.92 86.5723C2091.53 86.5723 2004.99 114.279 1947.93 140.892C1938.89 135.772 1929.8 130.812 1920.59 125.972C1962.6 99.839 2051.23 56.0392 2181.05 49.4792C2191.39 48.9592 2202.09 48.6791 2213.2 48.6791C2368.09 48.6791 2596.99 103.599 2883 329.306C2880.48 337.772 2877.23 348.172 2873.16 360.266Z" fill="#FBA0AE"/>
<path d="M3048.84 2297.15C3042.24 2297.15 3035.65 2294.43 3030.92 2289.09L2398.16 1577.37C2396.61 1575.61 2395.32 1573.64 2394.33 1571.52L1971.09 658.106C1970.36 656.546 1969.81 654.919 1969.44 653.239L1853.61 132.586C1851.69 123.973 1854.67 115.013 1861.35 109.239C1865.95 105.266 1976.41 11.8125 2178.64 1.59922C2362.23 -7.72078 2660.48 53.5994 3037.75 398.146C3651.13 958.306 3637.91 1628.61 3619.25 1820.71C3615.12 1863.15 3595.61 1902.39 3564.29 1931.2C3517.92 1973.88 3422.12 2058.16 3301.51 2143.25C3290.69 2150.88 3275.73 2148.31 3268.09 2137.48C3260.47 2126.67 3263.05 2111.71 3273.87 2104.08C3392.28 2020.55 3486.32 1937.8 3531.84 1895.92C3554.45 1875.11 3568.55 1846.76 3571.53 1816.08C3589.65 1629.57 3602.36 978.693 3005.41 433.546C2640.36 100.146 2355.64 40.6794 2181.05 49.4794C2030 57.1061 1934.72 115.159 1903.73 137.146L2015.68 640.306L2436.35 1548.16L3066.75 2257.24C3075.55 2267.13 3074.65 2282.29 3064.76 2291.09C3060.2 2295.15 3054.51 2297.15 3048.84 2297.15Z" fill="#371A45"/>
<path d="M2274.36 1045.36C2264.67 1045.36 2255.55 1039.44 2251.92 1029.83C2247.27 1017.44 2253.52 1003.61 2265.92 998.946C2737.84 821.279 2865.36 303.839 2866.59 298.626C2869.64 285.746 2882.53 277.786 2895.44 280.826C2908.32 283.88 2916.29 296.799 2913.24 309.679C2911.92 315.266 2879.77 448.306 2786.25 605.919C2699.69 751.813 2542.08 946.213 2282.8 1043.81C2280.03 1044.87 2277.17 1045.36 2274.36 1045.36Z" fill="#371A45"/>
<path d="M2776.89 1802.88C2767.19 1802.88 2758.07 1796.96 2754.45 1787.35C2749.79 1774.95 2756.05 1761.13 2768.44 1756.47C3272.72 1566.69 3477.04 1116.01 3479.04 1111.48C3484.41 1099.37 3498.56 1093.91 3510.65 1099.25C3522.76 1104.6 3528.24 1118.73 3522.91 1130.84C3520.77 1135.68 3469.28 1251 3352.52 1391.89C3244.84 1521.83 3059.04 1698.33 2785.33 1801.33C2782.55 1802.39 2779.69 1802.88 2776.89 1802.88Z" fill="#371A45"/>
<path d="M3599.44 1632.36C3591.59 1632.36 3583.89 1628.49 3579.29 1621.41C3572.11 1610.29 3575.28 1595.45 3586.39 1588.25L3884.35 1395.29C3883.8 1343.25 3861.53 1307.15 3842.19 1285.52C3831.59 1273.67 3816.79 1265.79 3800.52 1263.33L3523.09 1221.48C3510 1219.51 3500.99 1207.29 3502.96 1194.2C3504.93 1181.11 3517.2 1172.09 3530.24 1174.08L3807.67 1215.93C3834.95 1220.04 3859.89 1233.4 3877.91 1253.55C3904.73 1283.51 3935.88 1334.95 3931.97 1409.76C3931.56 1417.44 3927.51 1424.45 3921.07 1428.63L3612.45 1628.51C3608.43 1631.11 3603.91 1632.36 3599.44 1632.36Z" fill="#371A45"/>
<path d="M3252.27 1467.13C3252.27 1467.13 3490.15 1499.13 3587.28 1587.31L3684.91 1730.79L3437.32 1878.55C3437.32 1878.55 3272.25 1677.36 3197.08 1520.24L3252.27 1467.13Z" fill="#FF1D3E"/>
<path d="M3226.32 1525.36C3289.39 1649.88 3404.48 1798.8 3442.95 1847.27L3650.77 1723.24L3569.12 1603.23C3489.16 1532.92 3307.48 1500.11 3260.37 1492.6L3226.32 1525.36ZM3437.33 1902.52C3430.35 1902.52 3423.48 1899.47 3418.79 1893.75C3411.97 1885.44 3251.01 1688.51 3175.45 1530.59C3170.99 1521.25 3173.01 1510.13 3180.45 1502.96L3235.64 1449.87C3240.92 1444.79 3248.2 1442.4 3255.47 1443.39C3265.48 1444.72 3501.89 1477.43 3603.39 1569.56C3604.8 1570.83 3606.04 1572.27 3607.09 1573.83L3704.73 1717.29C3708.44 1722.76 3709.75 1729.51 3708.32 1735.96C3706.89 1742.41 3702.87 1747.99 3697.2 1751.37L3449.6 1899.13C3445.77 1901.41 3441.53 1902.52 3437.33 1902.52Z" fill="#371A45"/>
<path d="M3625.67 1790.12C3617.87 1790.12 3610.2 1786.32 3605.6 1779.29C3497.57 1614.6 3215.99 1581.11 3213.16 1580.79C3200.01 1579.31 3190.53 1567.44 3192.01 1554.29C3193.49 1541.13 3205.4 1531.68 3218.49 1533.13C3230.96 1534.53 3525.21 1569.33 3645.69 1753C3652.95 1764.07 3649.87 1778.93 3638.8 1786.2C3634.75 1788.85 3630.17 1790.12 3625.67 1790.12Z" fill="#371A45"/>
<path d="M3114 2094.93C3104.59 2094.93 3095.67 2089.36 3091.84 2080.12C3086.77 2067.88 3092.59 2053.87 3104.83 2048.8C3251.91 1987.95 3408.48 1848.13 3410.05 1846.73C3419.88 1837.89 3435.05 1838.69 3443.89 1848.55C3452.75 1858.4 3451.93 1873.56 3442.08 1882.4C3435.44 1888.36 3277.76 2029.15 3123.16 2093.11C3120.16 2094.35 3117.05 2094.93 3114 2094.93Z" fill="#371A45"/>
<path d="M3061.8 2127.49C2984.23 2171.71 2878.79 2094.97 2785.59 1996.83C2674.01 1879.4 2579.95 1731.21 2572.12 1722.48C2557.63 1706.52 2495.88 1471.89 2495.88 1471.89L2634.43 1309.44C2634.43 1309.44 2731.55 1373.8 2774.43 1429.96C2774.43 1429.96 2857.55 1406.05 2938.88 1492.88C2948.45 1503.13 2958.15 1514.07 2967.67 1525.59C3039.11 1611.64 3105.19 1729.68 3102.03 1827.95C3102.03 1827.95 3232.17 2030.47 3061.8 2127.49Z" fill="#F8F8F8"/>
<path d="M2589.87 1706.4C2590.07 1706.61 2590.28 1706.85 2590.49 1707.11C2590.27 1706.84 2590.05 1706.6 2589.87 1706.4ZM3012.91 2164.32C2902.47 2164.32 2752.8 2027.61 2566.63 1756.33C2560.8 1747.84 2555.29 1739.81 2553.88 1738.05C2542.12 1725.07 2514.67 1637.4 2472.68 1477.97C2469.31 1465.17 2476.96 1452.05 2489.76 1448.69C2502.55 1445.29 2515.68 1452.96 2519.04 1465.76C2546.96 1571.76 2581.25 1690.36 2590.93 1707.64C2593.37 1710.61 2596.99 1715.84 2606.16 1729.2C2876.73 2123.49 3000.33 2134.93 3049.93 2106.68C3088.81 2084.53 3112.16 2055.73 3121.32 2018.67C3141.76 1936.01 3082.44 1841.83 3081.84 1840.89C3079.24 1836.81 3077.91 1832.03 3078.07 1827.19C3081.28 1726.55 3001.69 1595 2921.39 1509.27C2851.92 1435.11 2783.71 1452.29 2780.84 1453.05C2771.44 1455.57 2761.25 1452.23 2755.37 1444.51C2715.47 1392.25 2622.09 1330.04 2621.16 1329.41C2610.12 1322.11 2607.11 1307.23 2614.41 1296.2C2621.73 1285.16 2636.59 1282.13 2647.64 1289.45C2651.47 1292 2736.51 1348.63 2784.17 1403.97C2815.57 1400.43 2887.15 1402.59 2956.37 1476.49C3035.45 1560.92 3126.23 1700.87 3126.11 1821.44C3140.84 1846.67 3189.99 1940.09 3167.93 2029.92C3155.67 2079.84 3123.96 2119.68 3073.67 2148.33C3054.96 2159 3034.69 2164.32 3012.91 2164.32Z" fill="#371A45"/>
<path d="M3055.67 2103.29C3038.44 2048.16 3010.48 1994.37 2992.85 1963.2C3041.56 1936.91 3076.77 1897.91 3097.48 1870.29C3113.65 1904.8 3134.77 1964.23 3121.32 2018.67C3112.63 2053.88 3091.12 2081.61 3055.67 2103.29ZM2987.21 1920.97C2987.89 1916.12 2988.41 1911.25 2988.77 1906.39C2993.61 1843.87 2979.17 1784.37 2952.99 1728.87C2967.91 1670.37 2971.63 1614.77 2970.27 1567.49C3031 1647.95 3080.63 1747.31 3078.07 1827.19C3078.04 1827.93 3078.05 1828.67 3078.09 1829.4C3065.23 1849.13 3034.04 1891.52 2987.21 1920.97Z" fill="#BEB5C2"/>
<path d="M3078.69 2116.87C3069.88 2113.09 3062.55 2110.03 3057.05 2107.79C3056.6 2106.28 3056.15 2104.79 3055.67 2103.29C3091.12 2081.61 3112.63 2053.88 3121.32 2018.67C3134.77 1964.23 3113.65 1904.8 3097.48 1870.29C3104.25 1861.25 3109.48 1853.44 3113.12 1847.68C3139.37 1898.63 3194.8 2036.2 3078.69 2116.87ZM3078.09 1829.4C3078.05 1828.67 3078.04 1827.93 3078.07 1827.19C3080.63 1747.31 3031 1647.95 2970.27 1567.49C2969.84 1552.64 2968.91 1538.61 2967.67 1525.59C3034.4 1605.97 3096.47 1714.28 3101.77 1808.29C3094.91 1808.39 3088.29 1812.08 3084.77 1818.53C3084.67 1818.72 3082.41 1822.79 3078.09 1829.4Z" fill="#371A45"/>
<path d="M3692.29 2662.96C3692.29 2662.96 3519.08 2713.04 3468.02 2546.29C3468.02 2546.29 3349.52 2705.48 3136.9 2761L3136.62 2761.09C3115.66 2766.55 3093.7 2771.05 3070.97 2774.19C3067.17 2774.73 3063.4 2775.23 3059.54 2775.71C3059.54 2775.71 3059.57 2775.97 3059.69 2776.45C3063.25 2795.48 3131.82 3173.27 2941.68 3235.03C2868.09 3258.92 2810.61 3242.83 2769.05 3206.07C2700.36 3145.28 2675.04 3028.01 2692.25 2941.16C2692.25 2941.16 2308.9 3022.48 2111.5 2822.59C2111.5 2822.59 2000.1 2821.81 1911.8 2737.27C1911.8 2737.27 1730.09 2777.77 1589.01 2658.75C1447.93 2539.72 1354.62 2444.47 1347.02 2319.08C1347.02 2319.08 1325.13 2295.16 1300.21 2260.05L1300.16 2259.99C1279.26 2230.65 1256.37 2193.48 1242.44 2155.85C1242.44 2155.85 772.895 2278.31 346.893 1999.73C346.893 1999.73 167.23 2101.32 59.1821 1906.11C36.6314 1865.39 25.9861 1822.64 25.0674 1781.28L25.0781 1781.21C21.2874 1624.05 156.07 1486.15 304.99 1550.56C304.99 1550.56 378.183 1489.71 435.278 1547.43C435.278 1547.43 435.333 1547.51 435.443 1547.65C444.417 1556.69 452.995 1568.79 460.822 1584.55C460.933 1584.69 461.042 1584.84 461.078 1585.05C467.827 1598.72 474.093 1615.17 479.47 1634.87C479.47 1634.87 480.643 1635.44 482.803 1636.51C513.175 1651.29 742.91 1759.37 894.435 1717.36C1056.96 1672.29 1778.38 1429 1778.38 1429L2416.74 1561.03L2843.82 1870.64L2957.13 1948.44C2957.13 1948.44 2959.21 1951.73 2962.77 1957.64C2966.9 1964.49 2973 1975.03 2980.04 1988.08C2981.6 1990.96 2983.25 1994 2984.92 1997.09C3002.89 2031.21 3025.26 2078.79 3037.88 2125.23C3037.88 2125.23 3106.7 2152.17 3181.92 2191.68C3181.92 2191.68 3332.69 2048.77 3443.72 1982.69C3536.82 1927.29 3685.52 2144.75 3731.04 2216.35C3734.2 2221.33 3736.86 2225.64 3739.01 2229.01L3739.05 2229.16C3742.78 2235.15 3744.73 2238.49 3744.73 2238.49C3744.73 2238.49 3916.81 2569.28 3692.29 2662.96Z" fill="url(#paint1_linear_95_160)"/>
<path d="M1278.55 2180.32C1273.17 2169.65 1268.31 2158.79 1264.27 2147.92C1260.71 2138.33 1251.59 2132.31 1241.77 2132.31C1239.79 2132.31 1237.77 2132.55 1235.76 2133.07C1233.64 2133.61 1134.2 2158.49 987.133 2158.49C816.107 2158.49 580.697 2124.83 359.344 1980.11C355.369 1977.51 350.803 1976.2 346.225 1976.2C342.165 1976.2 338.096 1977.23 334.429 1979.31C333.897 1979.6 292.377 2002.64 239.601 2002.64C225.176 2002.64 209.901 2000.91 194.403 1996.53C148.289 1983.51 109.637 1949.32 79.5266 1894.91C61.0453 1861.52 51.62 1827.4 49.0973 1794.45C77.7626 1808 127.465 1827.47 176.611 1827.47C237.496 1827.47 297.521 1797.63 315.695 1689.72L301.513 1639.21C301.513 1639.21 323.779 1647.93 350.1 1647.93C381.44 1647.93 418.536 1635.57 430.684 1581.44C442.244 1599.51 450.297 1621.92 455.724 1641.64C457.521 1648.17 461.987 1653.63 468.028 1656.68C469.623 1657.48 476.637 1661 487.98 1666.23C491.936 1701.71 484.811 1741.31 453.723 1779.33C407.344 1835.95 389.776 1855.76 383.651 1861.67C408.807 1874.27 695.235 2015.16 946.72 2015.16C1024.28 2015.16 1098.53 2001.75 1160.76 1967.05C1175.83 1971.24 1190.99 1975.08 1206.25 1978.56C1234.68 1985.01 1263.49 1990.27 1292.13 1994.24L1310.63 2000.52C1310.63 2000.52 1271.61 2089.41 1278.55 2180.32Z" fill="#BEB5C2"/>
<path d="M2874.43 3270.73C2818.69 3270.73 2778.51 3247.48 2752.19 3224.09C2682.95 3162.57 2656.68 3056.57 2663.45 2970.85C2564.97 2985.88 2273.36 3013.19 2100.55 2846.51C2070.61 2844.27 1981.04 2831.89 1903.71 2763.4C1858.21 2770.63 1701.13 2785.67 1572.91 2677.48C1443.57 2568.36 1335.41 2466.61 1323.11 2329.35C1306.32 2310.07 1256.61 2250.07 1227.31 2184.15C1185.99 2192.77 1085.76 2209.93 953.173 2206.63C797.08 2202.79 565.913 2168.39 344.592 2027.64C317.273 2039.81 252.065 2062.65 181.369 2042.67C122.489 2026.04 74.1106 1984.13 37.5733 1918.12C-22.2961 1809.95 -8.01339 1672.55 72.3266 1584C134.188 1515.79 218.849 1493.84 301.109 1523.88C321.155 1510.95 363.407 1489.61 407.827 1503.57C448.895 1516.48 479.493 1555.07 498.876 1618.33C544.917 1640.03 752.555 1732.03 887.387 1694.67C1047.43 1650.29 1762.89 1409.12 1770.11 1406.69C1774.15 1405.32 1778.44 1405.08 1782.63 1405.93L2420.93 1537.96C2424.25 1538.65 2427.4 1540.04 2430.15 1542.03L2857.25 1851.65C2867.97 1859.43 2870.36 1874.41 2862.59 1885.13C2854.81 1895.85 2839.83 1898.24 2829.11 1890.47L2406.19 1583.87L1779.27 1454.2C1704.07 1479.53 1055.39 1697.84 900.2 1740.87C730.667 1787.85 478.667 1662.05 468.028 1656.68C461.987 1653.63 457.521 1648.17 455.724 1641.64C445.725 1605.31 426.805 1559.79 393.46 1549.32C358.413 1538.31 320.06 1569.09 319.684 1569.41C312.744 1575.17 303.133 1576.56 294.839 1572.97C227.399 1543.8 159.227 1559.56 107.833 1616.21C53.2186 1676.4 21.0693 1789.29 79.5266 1894.91C109.637 1949.32 148.289 1983.51 194.403 1996.53C266.604 2016.93 333.752 1979.68 334.429 1979.31C342.229 1974.89 351.844 1975.2 359.344 1980.11C771.044 2249.27 1231.17 2134.25 1235.76 2133.07C1247.65 2130 1259.99 2136.4 1264.27 2147.92C1292.93 2225.12 1363.36 2302.52 1364.07 2303.29C1367.79 2307.35 1369.99 2312.56 1370.32 2318.04C1377.07 2429.47 1457.59 2517.45 1603.83 2640.83C1733.76 2750.45 1904.28 2714.64 1905.99 2714.27C1913.79 2712.56 1921.97 2714.84 1927.75 2720.36C2007.67 2796.89 2110.09 2799.04 2111.12 2799.05C2117.43 2799.13 2123.51 2801.69 2127.95 2806.19C2313.65 2994.24 2682.91 2918.89 2686.64 2918.11C2694.45 2916.45 2702.71 2918.85 2708.44 2924.51C2714.17 2930.17 2716.68 2938.33 2715.11 2946.23C2700.33 3020.73 2719.47 3130.88 2784.03 3188.25C2823.93 3223.69 2874.27 3231.89 2933.64 3212.63C3106.31 3156.56 3036.13 2784.43 3035.4 2780.68C3034.13 2774.15 3035.64 2767.36 3039.56 2761.99C3043.48 2756.6 3049.47 2753.09 3056.08 2752.29C3303.15 2722.65 3446.75 2534.27 3448.17 2532.37C3453.59 2525.13 3462.63 2521.56 3471.49 2523.11C3480.39 2524.65 3487.67 2531.07 3490.31 2539.69C3532.08 2676.16 3668.25 2644.73 3683.81 2640.67C3727.63 2622.03 3756.24 2592.87 3771.24 2551.57C3814.07 2433.71 3728.53 2261.24 3723.09 2250.47C3685.65 2187.28 3572.07 2020.96 3490.49 2000.11C3476.77 1996.61 3465.28 1997.79 3455.35 2003.69C3347.84 2067.68 3199.25 2208.08 3197.77 2209.49C3190.33 2216.55 3179.21 2218.09 3170.13 2213.32C3097.05 2174.93 3029.17 2148.23 3028.49 2147.96C3021.43 2145.19 3016.08 2139.23 3014.09 2131.91C2991.95 2050.19 2936.77 1962.53 2936.23 1961.65C2929.15 1950.47 2932.47 1935.67 2943.65 1928.57C2954.81 1921.49 2969.63 1924.8 2976.72 1935.99C2979.03 1939.64 3031.43 2022.8 3057.05 2107.79C3077.72 2116.27 3124.65 2136.19 3177.28 2163.04C3216.08 2127.16 3336.2 2018.81 3430.83 1962.51C3451.99 1949.91 3476.05 1946.93 3502.39 1953.67C3618.21 1983.28 3750.08 2201.89 3764.75 2226.72C3764.96 2227.09 3765.16 2227.47 3765.36 2227.84C3769.56 2235.91 3867.47 2426.87 3816.35 2567.81C3796.64 2622.16 3757.8 2661.75 3700.88 2685.49C3700.04 2685.85 3699.19 2686.15 3698.31 2686.4C3636.97 2704.12 3516.25 2703.75 3459.91 2592.44C3407.43 2649.2 3279.44 2765.16 3086.68 2796.39C3100.63 2887.92 3133.36 3198.19 2948.44 3258.23C2921.24 3267.05 2896.6 3270.73 2874.43 3270.73Z" fill="#371A45"/>
<path d="M779.739 1726.37C899.213 1835.05 1046.89 1914.23 1212.31 1951.89C1246.05 1959.56 1280.41 1965.53 1315.44 1969.65C1332.48 1971.71 1349.76 1973.25 1367.2 1974.48C1419.79 1977.89 1471.68 1977.09 1522.64 1972.33C1566.56 1968.33 1609.8 1961.32 1652.03 1951.67C1703.03 1940.03 1752.63 1924.33 1800.45 1905.05C1817.88 1897.97 1835.07 1890.45 1852.01 1882.49C2161.93 1736.29 2387.41 1433.71 2415.85 1071.4C2457.88 537.693 2056.44 76.7599 1519.35 41.7465C1415.89 35.0799 1314.84 44.5598 1218.99 68.3198C1207.76 70.9998 1196.56 73.9997 1185.44 77.2397C1155.64 85.693 1126.4 95.4931 1097.79 106.613C1031.63 132.346 968.747 165.08 910.227 203.827C851.667 242.493 797.32 287.32 748.325 337.28C732.737 353.16 717.668 369.546 703.151 386.506C681.411 411.933 660.895 438.386 641.759 466.066C546.128 603.613 484.645 767.027 470.689 944.827C446.503 1251.84 569.077 1534.71 779.739 1726.37Z" fill="white"/>
<path d="M781.583 1724.33C903.093 1834.87 1052.24 1912.63 1212.92 1949.21C1246.95 1956.93 1281.55 1962.89 1315.76 1966.92C1331.45 1968.81 1348.35 1970.39 1367.4 1971.73C1419.04 1975.08 1471.2 1974.37 1522.39 1969.6C1565.29 1965.69 1608.69 1958.76 1651.41 1948.99C1701.41 1937.57 1751.2 1921.93 1799.43 1902.51C1816.68 1895.49 1833.97 1887.92 1850.85 1880.01C2170.32 1729.31 2385.77 1419.37 2413.12 1071.19C2433.31 814.84 2352.11 567.04 2184.48 373.427C2015.52 178.267 1779.24 61.4401 1519.16 44.4934C1417.71 37.9468 1316.92 46.8666 1219.65 71C1208.95 73.5466 1198.01 76.4532 1186.21 79.8798C1156.61 88.2798 1127.21 98.1331 1098.79 109.173C1033.45 134.586 970.52 167.213 911.733 206.12C853.48 244.6 799.16 289.373 750.289 339.213C734.592 355.2 719.435 371.72 705.243 388.293C683.159 414.12 662.567 440.813 644.025 467.64C545.848 608.827 486.864 773.907 473.433 945.04C450.119 1240.91 562.437 1524.95 781.583 1724.33ZM1431.45 1979.32C1409.96 1979.32 1388.45 1978.61 1367.03 1977.23C1347.87 1975.88 1330.89 1974.29 1315.11 1972.39C1280.72 1968.35 1245.92 1962.35 1211.71 1954.57C1050.09 1917.79 900.08 1839.57 777.887 1728.4C557.469 1527.87 444.501 1242.17 467.951 944.613C481.453 772.507 540.777 606.493 639.5 464.493C658.147 437.52 678.856 410.68 701.064 384.72C715.333 368.04 730.575 351.44 746.356 335.36C795.493 285.24 850.12 240.213 908.693 201.533C967.813 162.4 1031.09 129.6 1096.8 104.053C1125.37 92.9333 1154.95 83.0266 1184.69 74.5999C1196.56 71.1332 1207.57 68.2133 1218.35 65.6533C1316.15 41.3866 1417.47 32.4266 1519.52 39C1781.08 56.0533 2018.71 173.533 2188.64 369.827C2357.24 564.56 2438.91 813.8 2418.6 1071.61C2391.11 1421.77 2174.45 1733.44 1853.19 1884.99C1836.23 1892.95 1818.84 1900.55 1801.49 1907.61C1753 1927.15 1702.92 1942.88 1652.64 1954.35C1609.68 1964.17 1566.03 1971.15 1522.88 1975.08C1492.65 1977.89 1462.07 1979.32 1431.45 1979.32Z" fill="#371A45"/>
<path d="M2415.84 1071.39C2387.44 1433.71 2161.92 1736.33 1851.99 1882.48C1835.05 1890.47 1817.88 1897.97 1800.47 1905.04C1752.63 1924.35 1703.03 1940 1652.04 1951.67C1609.8 1961.29 1566.56 1968.35 1522.67 1972.33C1471.68 1977.12 1419.81 1977.92 1367.2 1974.51C1349.77 1973.21 1332.49 1971.72 1315.44 1969.69C1280.4 1965.56 1246.05 1959.52 1212.31 1951.88C1046.89 1914.21 899.187 1835.09 779.715 1726.35C714.075 1666.65 656.952 1598.04 610.185 1522.63C726.608 1623.76 868.28 1697.41 1026.09 1733.35C1059.83 1741.08 1094.19 1747.03 1129.23 1751.17C1146.24 1753.23 1163.51 1754.73 1180.97 1755.99C1233.6 1759.39 1285.47 1758.6 1336.4 1753.85C1380.35 1749.81 1423.55 1742.81 1465.79 1733.19C1516.77 1721.51 1566.41 1705.81 1614.21 1686.56C1631.67 1679.45 1648.83 1671.93 1665.77 1663.96C1975.71 1517.81 2201.17 1215.23 2229.63 852.852C2246.29 641.466 2193.31 441.533 2089.96 274.973C2310.95 466.693 2440.68 756.373 2415.84 1071.39Z" fill="#E8E8E8"/>
<path d="M794 1710.69C913.147 1819.09 1059.43 1895.35 1217.03 1931.23C1250.4 1938.81 1284.35 1944.65 1317.92 1948.61C1333.37 1950.47 1349.95 1952.01 1368.68 1953.33C1419.31 1956.63 1470.47 1955.92 1520.67 1951.23C1562.8 1947.4 1605.39 1940.59 1647.31 1931C1696.36 1919.81 1745.21 1904.47 1792.53 1885.4C1809.44 1878.52 1826.44 1871.09 1843.01 1863.32C2156.48 1715.44 2367.91 1411.35 2394.73 1069.75C2414.52 818.359 2334.91 575.346 2170.55 385.506C2004.83 194.092 1773.08 79.5192 1517.96 62.8925C1418.43 56.4792 1319.53 65.2259 1224.09 88.8925C1213.51 91.4125 1202.88 94.2392 1191.37 97.5859C1162.21 105.853 1133.36 115.533 1105.47 126.359C1041.37 151.306 979.613 183.306 921.92 221.493C864.72 259.266 811.413 303.213 763.452 352.119C748.041 367.826 733.172 384.026 719.253 400.279C697.587 425.626 677.377 451.813 659.195 478.119C562.86 616.679 504.995 778.613 491.819 946.479C468.96 1236.63 579.097 1515.17 794 1710.69ZM1431.47 1997.76C1409.56 1997.76 1387.65 1997.04 1365.83 1995.63C1346.27 1994.25 1328.99 1992.64 1312.91 1990.69C1277.91 1986.57 1242.47 1980.48 1207.61 1972.56C1042.91 1935.07 890.027 1855.35 765.471 1742.04C540.809 1537.64 425.665 1246.45 449.567 943.159C463.323 767.799 523.764 598.639 624.357 453.973C643.329 426.519 664.435 399.173 687.045 372.733C701.597 355.733 717.124 338.813 733.199 322.439C783.244 271.399 838.88 225.546 898.533 186.146C958.72 146.293 1023.19 112.892 1090.11 86.8525C1119.23 75.5325 1149.36 65.4391 1179.67 56.8525C1191.71 53.3458 1203.01 50.346 1214.08 47.706C1313.55 23.0393 1416.77 13.8926 1520.71 20.5992C1787.24 37.9726 2029.39 157.706 2202.59 357.759C2374.44 556.253 2457.68 810.279 2436.99 1073.07C2408.97 1429.8 2188.29 1747.29 1861.05 1901.67C1843.77 1909.77 1826.09 1917.52 1808.44 1924.69C1758.99 1944.61 1707.97 1960.64 1656.73 1972.33C1613 1982.33 1568.52 1989.44 1524.56 1993.44C1493.79 1996.32 1462.64 1997.76 1431.47 1997.76Z" fill="#371A45"/>
<path d="M798.133 1706.15C916.507 1813.83 1061.83 1889.59 1218.39 1925.23C1251.55 1932.77 1285.29 1938.57 1318.64 1942.51C1334 1944.36 1350.48 1945.89 1369.12 1947.2C1419.36 1950.47 1470.2 1949.77 1520.09 1945.11C1561.97 1941.31 1604.28 1934.55 1645.92 1925.01C1694.68 1913.89 1743.23 1898.65 1790.24 1879.69C1807.01 1872.87 1823.93 1865.48 1840.4 1857.75C2151.87 1710.81 2361.95 1408.68 2388.6 1069.27C2408.27 819.52 2329.17 578.119 2165.89 389.519C2001.27 199.373 1771.01 85.5463 1517.57 69.0263C1418.63 62.653 1320.39 71.3462 1225.57 94.8662C1215.04 97.3728 1204.49 100.173 1193.08 103.493C1164.07 111.72 1135.4 121.333 1107.71 132.093C1044 156.866 982.64 188.68 925.307 226.626C868.467 264.16 815.507 307.826 767.847 356.426C752.528 372.026 737.756 388.133 723.921 404.28C702.397 429.453 682.312 455.48 664.253 481.613C568.531 619.293 511.036 780.173 497.951 946.96C475.236 1235.2 584.651 1511.91 798.133 1706.15ZM1431.47 2003.91C1409.44 2003.91 1387.39 2003.19 1365.43 2001.76C1345.73 2000.37 1328.36 1998.76 1312.16 1996.8C1276.99 1992.67 1241.32 1986.52 1206.25 1978.56C1040.52 1940.83 886.667 1860.61 761.336 1746.59C535.256 1540.89 419.383 1247.88 443.432 942.68C457.281 766.24 518.093 596.026 619.311 450.466C638.395 422.853 659.624 395.333 682.372 368.733C697.013 351.626 712.639 334.613 728.811 318.133C779.156 266.786 835.12 220.653 895.147 181.013C955.693 140.933 1020.56 107.32 1087.88 81.1331C1117.19 69.7464 1147.51 59.5729 1177.99 50.9329C1190.09 47.4129 1201.49 44.3864 1212.65 41.733C1312.69 16.9197 1416.55 7.74643 1521.11 14.4664C1789.29 31.9464 2032.96 152.426 2207.24 353.733C2380.16 553.48 2463.93 809.119 2443.12 1073.55C2414.93 1432.47 2192.91 1751.92 1863.68 1907.23C1846.29 1915.39 1828.51 1923.17 1810.76 1930.39C1760.99 1950.44 1709.65 1966.56 1658.11 1978.32C1614.09 1988.39 1569.35 1995.53 1525.12 1999.56C1494.16 2002.45 1462.84 2003.91 1431.47 2003.91Z" fill="#371A45"/>
<path d="M983.173 1868.03C1652.45 2053.72 2297.97 1530.95 2116.28 871.919C1992.68 423.546 1453.43 203.066 1025.67 353.933C714.347 463.746 457.079 705.533 490.583 1229.64C490.583 1229.64 541.541 1458.93 652.313 1584.87C763.085 1710.8 892.467 1814.45 892.467 1814.45L983.173 1868.03Z" fill="#371A45"/>
<path d="M2116.27 871.933C2297.96 1530.95 1652.43 2053.71 983.187 1868.05L964.8 1857.17C1596.53 1755.11 2069.8 1196.08 1898.64 526.199C2000.43 616.893 2078.09 733.573 2116.27 871.933Z" fill="#220F2D"/>
<path d="M798.133 1706.15C916.507 1813.83 1061.83 1889.59 1218.39 1925.23C1251.55 1932.77 1285.29 1938.57 1318.64 1942.51C1334 1944.36 1350.48 1945.89 1369.12 1947.2C1418.64 1950.43 1468.76 1949.79 1517.96 1945.31C1772.44 1879.97 1988.6 1721.55 2111.27 1510.4C2226.36 1312.29 2253.24 1084.33 2188.99 851.173C2130.33 638.386 1980.84 459.999 1768.04 348.839C1529.92 224.453 1242.27 201.493 998.573 287.453C863.72 335.013 750.699 401.133 662.605 483.986C567.885 621.093 510.965 781.12 497.951 946.96C475.236 1235.2 584.651 1511.91 798.133 1706.15ZM1431.45 2003.91C1409.43 2003.91 1387.39 2003.19 1365.43 2001.76C1345.73 2000.37 1328.36 1998.76 1312.16 1996.8C1276.99 1992.67 1241.32 1986.52 1206.25 1978.56C1040.52 1940.83 886.667 1860.61 761.336 1746.59C535.256 1540.89 419.383 1247.88 443.432 942.68C457.281 766.24 518.1 596.026 619.311 450.466L620.913 448.16L622.951 446.226C716.949 357.146 837.2 286.386 980.387 235.879C1238.11 144.973 1542.03 169.08 1793.36 300.373C2019.76 418.626 2178.97 609.08 2241.71 836.64C2309.95 1084.29 2281.19 1326.77 2158.55 1537.87C2028.21 1762.2 1798.89 1930.21 1529.39 1998.83L1525.19 1999.56C1494.19 2002.45 1462.84 2003.91 1431.45 2003.91Z" fill="#371A45"/>
<path d="M989.747 1852.55C1324.95 1944.8 1675.65 1859.71 1905.51 1630.23C2106.12 1429.95 2177.08 1155.16 2100.21 876.346C2047.45 684.973 1913.09 524.573 1721.88 424.693C1508.17 313.08 1249.99 292.506 1031.21 369.653C655.94 502.013 479.617 790.56 507.131 1227.24C511.324 1245.28 562.3 1457.29 664.827 1573.85C768.524 1691.75 890.347 1791.28 902 1800.72L989.747 1852.55ZM1258.6 1922.47C1165.91 1922.47 1071.73 1909.89 978.72 1884.09L976.6 1883.49L882.04 1827.45C880.747 1826.41 750.256 1721.45 639.8 1595.88C527.489 1468.2 476.428 1242.79 474.312 1233.27L473.948 1230.71C444.917 776.56 628.68 476.28 1020.13 338.213C1247.45 258.04 1515.56 279.32 1737.31 395.147C1936.81 499.36 2077.11 667.107 2132.35 867.48C2212.51 1158.2 2138.4 1444.81 1929.05 1653.81C1754.2 1828.39 1512.07 1922.47 1258.6 1922.47Z" fill="#371A45"/>
<path d="M2512.43 689.2C2585.03 865.186 2540.68 1056.59 2413.32 1116.69C2285.96 1176.8 2123.87 1082.84 2051.27 906.853C2050.79 905.76 2050.33 904.573 2049.92 903.453C1979.23 728.413 2023.91 539.04 2150.37 479.36C2248.75 432.933 2367.87 478.44 2450.44 582.653C2474.75 613.347 2495.91 649.186 2512.43 689.2Z" fill="white"/>
<path d="M2512.43 689.2C2585.03 865.186 2540.68 1056.59 2413.32 1116.69C2285.96 1176.8 2123.87 1082.84 2051.27 906.853C2050.79 905.76 2050.33 904.573 2049.92 903.453C2071.37 914.907 2100.51 922.4 2127.55 902.48C2174.92 867.547 2221.04 710.586 2221.04 710.586C2221.04 710.586 2320.16 654.467 2450.44 582.653C2474.75 613.347 2495.91 649.186 2512.43 689.2Z" fill="#E8E8E8"/>
<path d="M2232.04 488.519C2207.6 488.519 2184.05 493.706 2162.07 504.079C2047.88 557.959 2009.52 733.959 2076.53 896.413C2115.24 990.226 2184 1063.92 2260.48 1093.52C2310.03 1112.68 2358.83 1112.15 2401.65 1091.95C2515.83 1038.07 2554.2 862.066 2487.17 699.613C2448.47 605.786 2379.71 532.106 2303.21 502.506C2279.12 493.173 2255.19 488.519 2232.04 488.519ZM2331.76 1162.28C2301.96 1162.28 2271.37 1156.37 2240.75 1144.51C2149.23 1109.09 2070.95 1026.27 2025.99 917.253C1948.03 728.293 1998.6 520.746 2138.73 454.626C2195.4 427.879 2259.12 426.799 2322.96 451.506C2414.48 486.933 2492.76 569.759 2537.72 678.759C2615.68 867.733 2565.11 1075.28 2424.99 1141.4C2395.49 1155.32 2364.08 1162.28 2331.76 1162.28Z" fill="#371A45"/>
<path d="M2540.28 702.506C2598.91 846.226 2568.75 1000.15 2472.93 1046.28C2377.09 1092.43 2251.89 1013.32 2193.27 869.599C2134.64 725.879 2164.8 571.96 2260.63 525.826C2356.45 479.68 2481.65 558.786 2540.28 702.506Z" fill="white"/>
<path d="M2472.89 1046.29C2568.76 1000.15 2598.91 846.252 2540.27 702.492C2533.93 686.879 2526.72 672.052 2518.93 658.052C2533.52 767.692 2498.05 867.479 2423.51 903.279C2339.31 943.706 2232.8 889.186 2167.97 779.599C2172.71 809.319 2181.07 839.679 2193.23 869.586C2251.87 1013.35 2377.08 1092.41 2472.89 1046.29Z" fill="#E8E8E8"/>
<path d="M2318.84 540.04C2302.51 540.04 2286.91 543.507 2272.48 550.453C2190.99 589.693 2166.31 731.12 2218.59 859.267C2250.83 938.32 2306.03 999.347 2366.27 1022.53C2400.08 1035.55 2432.85 1035.24 2461.07 1021.65C2542.56 982.413 2567.24 840.987 2514.96 712.827C2482.72 633.787 2427.52 572.76 2367.28 549.587C2350.75 543.227 2334.47 540.04 2318.84 540.04ZM2414.8 1086.84C2392.56 1086.84 2369.64 1082.41 2346.63 1073.56C2272.59 1045.07 2205.79 972.68 2167.95 879.92C2102.97 720.653 2138.47 554.293 2248.76 501.187C2290.91 480.893 2338.68 479.987 2386.92 498.547C2460.96 527.04 2527.76 599.427 2565.6 692.187C2630.57 851.453 2595.08 1017.81 2484.79 1070.92C2462.75 1081.53 2439.17 1086.84 2414.8 1086.84Z" fill="#371A45"/>
<path d="M921.88 1571.29C795.813 1519.72 706.667 1441.12 655.344 1305.08C650.32 1291.65 645.641 1277.63 641.3 1263.07C640.288 1259.71 639.361 1256.36 638.477 1252.97C638.393 1252.97 638.4 1252.89 638.452 1252.77C631.755 1222.64 624.464 1182.69 620.041 1136.91C606.619 998.813 618.9 807.64 750.911 672.04C930.68 487.36 1154.19 446.493 1259.51 446.493C1298.8 446.493 1321.64 452.173 1319.63 458.213C1319.63 458.213 929.387 624.08 788.653 928.466C788.507 928.786 788.36 929.106 788.213 929.426C758.651 993.52 747.001 1064.19 753.943 1133.91C763.123 1226.11 783.073 1288.15 802.773 1342.07C862.733 1506 921.88 1571.29 921.88 1571.29Z" fill="#9B8DA2"/>
<path d="M1746.31 957.812C1700.37 957.799 1652.45 933.399 1621.13 889.132C1573.17 821.372 1582.21 732.733 1641.32 691.133C1661.8 676.719 1685.61 669.852 1709.99 669.852C1755.92 669.852 1803.83 694.252 1835.16 738.532C1883.12 806.292 1874.08 894.932 1814.97 936.519C1794.48 950.932 1770.68 957.812 1746.31 957.812Z" fill="#9B8DA2"/>
<path d="M1890.13 1095.36C1873.68 1094.27 1856.84 1086.03 1844.47 1071.4C1822.33 1045.21 1822.95 1008.47 1845.84 989.319C1854.96 981.679 1866.27 977.999 1877.95 977.999C1890.96 977.999 1904.45 982.559 1915.97 991.293C1909.19 1026.68 1900.53 1061.43 1890.13 1095.36Z" fill="#9B8DA2"/>
<path d="M1893.87 1095.48C1892.63 1095.48 1891.37 1095.44 1890.13 1095.36C1900.53 1061.43 1909.19 1026.68 1915.97 991.294C1920.04 994.374 1923.87 997.987 1927.35 1002.09C1949.48 1028.28 1948.87 1065.03 1925.99 1084.17C1916.85 1091.8 1905.55 1095.48 1893.87 1095.48Z" fill="#918796"/>
<path d="M2956.49 1948.85C2951.77 1965.17 2944.03 1980.51 2934.25 1994.4C2908.71 2030.64 2849.96 2092.81 2743.19 2103.01L2743.05 2102.99C2651.49 2111.71 2524.55 2082.15 2352.97 1964.95L2652.85 1983.16C2487.79 1880.4 2416.57 1715.59 2416.57 1715.59C2321.47 1731.05 2286.93 1674.48 2284.91 1665.89C2084.75 1647.29 2130.01 1418.88 2253.07 1294.99C2264.95 1281.67 2276.73 1270.32 2288.47 1260.63C2414.01 1156.32 2523.8 1246.37 2523.8 1246.37C2605.91 1144.97 2692.56 1266.33 2658.75 1439.01C2658.75 1439.01 3029.95 1693.48 2956.49 1948.85Z" fill="#F8F8F8"/>
<path d="M2651.13 1985.93C2567.16 1946.01 2495.71 1882.4 2440.48 1807.95C2421.97 1781.99 2405.75 1755.33 2394.56 1725.09L2420.41 1739.24C2364.16 1749.99 2288.95 1733.23 2262.77 1675.31C2262.44 1674.47 2261.89 1672.68 2261.57 1671.39L2282.69 1689.77C2227.12 1685.65 2167.93 1658.91 2142.13 1606.33C2087.92 1495.03 2162.76 1348.89 2243.47 1270.2C2292.07 1217.48 2362.07 1178.79 2436.07 1187.4C2473.36 1191.53 2509.07 1205.17 2539 1227.83L2505.19 1231.28C2533.83 1193.56 2585.31 1167.96 2629.03 1200.13C2697.2 1253.88 2696.83 1366.43 2682.28 1443.6L2672.31 1419.24C2696.2 1436.08 2717.84 1453.31 2739.53 1471.55C2863.21 1578.43 3002.4 1730.37 2988.77 1906.39C2985.45 1952.63 2966.83 1998.35 2935.03 2031.96C2822.76 2161.45 2623.96 2147.89 2487.43 2066.27C2437.97 2038.53 2392.32 2005.49 2351.15 1967.68C2348.35 1965.03 2351.49 1960.64 2354.84 1962.27C2404.79 1986.73 2454.23 2010.48 2504.57 2030C2599.69 2065.04 2709.07 2102.05 2807.45 2063.8C2853.68 2046.29 2895.2 2012.71 2921.03 1970.73C2969.41 1877.01 2928 1767.64 2872.24 1685.13C2812.2 1597.31 2731.25 1521.16 2645.2 1458.79C2637.13 1453.15 2633.56 1443.47 2635.23 1434.39C2644.92 1383.73 2646.36 1327.85 2628.61 1279.81C2618.85 1253.87 2597.25 1220.29 2567.28 1238.81C2558.71 1243.77 2550.13 1252 2542.43 1261.45C2538 1266.91 2531.11 1269.17 2524.67 1267.96L2508.6 1264.91L2505.13 1262.37C2459.49 1230.96 2398.88 1224.92 2348.69 1249.95C2321.81 1262.75 2298.65 1281.56 2277.87 1303.6C2256.55 1325.47 2235.6 1349.52 2219.87 1375.75C2178.76 1442.44 2140.37 1555.25 2209.2 1614.36C2229.52 1630.99 2257.73 1639.25 2287.13 1642.03L2308.25 1660.41C2308.17 1659.88 2307.8 1658.85 2307.76 1658.75C2315.79 1672.45 2332.53 1684.01 2349.24 1689.04C2368.47 1695.23 2390.57 1695.49 2412.72 1691.92C2424.13 1689.13 2434.15 1696.17 2438.57 1706.08C2481.41 1781.8 2526.81 1857.71 2588.43 1919.99C2609.03 1941.31 2631.11 1961.41 2654.59 1980.37C2656.01 1981.51 2656.25 1983.59 2655.12 1985.01C2654.16 1986.23 2652.48 1986.56 2651.13 1985.93Z" fill="#371A45"/>
<path d="M2564.32 1908.93C2558.03 1908.93 2551.67 1908.65 2545.27 1908.08C2534.45 1907.11 2526.48 1897.55 2527.45 1886.73C2528.43 1875.92 2538 1867.92 2548.8 1868.92C2717.04 1884.27 2858.13 1642.32 2859.55 1639.88C2864.95 1630.47 2876.95 1627.21 2886.37 1632.63C2895.79 1638.03 2899.03 1650.04 2893.64 1659.45C2887.6 1669.96 2748.32 1908.93 2564.32 1908.93Z" fill="#371A45"/>
<path d="M2262.29 1657.95C2262.24 1658.45 2262.41 1658.27 2262.56 1658.12C2265.56 1654.57 2267.17 1649.99 2268.49 1645.47C2273.91 1626.95 2264.05 1607.67 2250.52 1594.72C2249.04 1593.4 2248.92 1591.05 2250.43 1589.71C2251.39 1588.84 2252.71 1588.64 2253.84 1589.07C2261.25 1591.79 2268.85 1594.69 2275.47 1599.35C2294.71 1611.47 2306.95 1634.44 2308.31 1657.41C2308.59 1662.97 2308.79 1668.19 2307.52 1673.84C2303.13 1686.33 2289.45 1692.91 2276.96 1688.52C2264.47 1684.12 2257.91 1670.44 2262.29 1657.95Z" fill="#371A45"/>
<path d="M2682.45 1442.6L2648.31 1530.21C2647.15 1533.49 2641.95 1532.69 2641.83 1529.24L2635.04 1435.44C2634.07 1421.91 2644.25 1410.13 2657.79 1409.16C2675.4 1407.47 2689.16 1426.39 2682.45 1442.6Z" fill="#371A45"/>
<path d="M2716.48 2079.99C2667.61 2079.99 2617.97 2068.2 2570.29 2052.96C2835.41 2037.99 2839.75 1924.17 2773.23 1810.4C2819.51 1767.01 2854.81 1719.17 2874.93 1689.15C2929.32 1771.16 2968.63 1878.52 2921.03 1970.73C2895.2 2012.71 2853.68 2046.29 2807.45 2063.8C2777.89 2075.29 2747.35 2079.99 2716.48 2079.99Z" fill="#BEB5C2"/>
<path d="M2733.65 2097.12C2731.27 2097.12 2728.85 2097.09 2726.43 2097.07C2724.13 2092.27 2720.24 2088.21 2715.07 2085.75C2711.76 2084.19 2708.27 2083.44 2704.83 2083.44C2696.73 2083.44 2688.93 2087.55 2684.47 2094.69C2659.47 2092.33 2632.19 2088.2 2602.44 2081.99C2554.71 2068.89 2522.01 2054.53 2522.01 2054.53C2539 2054.35 2555.05 2053.81 2570.29 2052.96C2617.97 2068.2 2667.61 2079.99 2716.48 2079.99C2747.35 2079.99 2777.89 2075.29 2807.45 2063.8C2853.68 2046.29 2895.2 2012.71 2921.03 1970.73C2968.63 1878.52 2929.32 1771.16 2874.93 1689.15C2881.11 1679.91 2885.85 1672.37 2889.05 1667.15C2941.8 1744 2978.36 1833.36 2962.29 1923.87L2959.56 1904.75C2959.77 1907.81 2960.25 1919.85 2957.96 1936.51C2954.09 1938.19 2950.15 1939.77 2946.13 1941.23C2935.92 1944.92 2930.64 1956.19 2934.33 1966.4C2936.21 1971.57 2940.03 1975.48 2944.67 1977.59C2941.53 1983.4 2938.04 1989 2934.25 1994.4C2913.88 2023.29 2872.4 2068.68 2802.29 2091.05C2782.09 2094.95 2759.32 2097.12 2733.65 2097.12Z" fill="#371A45"/>
<path d="M2751.41 1776.47C2674.83 1666.8 2549.2 1566.48 2549.2 1566.48C2565.75 1407.16 2393.21 1308.4 2313.36 1271.51C2324.43 1263.2 2336.15 1255.92 2348.69 1249.95C2369.72 1239.47 2392.56 1234.44 2415.37 1234.44C2447.03 1234.44 2478.61 1244.12 2505.13 1262.37L2508.6 1264.91L2524.67 1267.96C2525.8 1268.17 2526.93 1268.28 2528.08 1268.28C2533.45 1268.28 2538.77 1265.95 2542.43 1261.45C2550.13 1252 2558.71 1243.77 2567.28 1238.81C2573.31 1235.09 2578.99 1233.48 2584.31 1233.48C2605.45 1233.48 2620.81 1259.08 2628.61 1279.81C2645.09 1324.45 2645.03 1375.85 2637.16 1423.53C2635.52 1427.15 2634.73 1431.21 2635.04 1435.44L2635.05 1435.51C2634.59 1438.88 2634.84 1442.32 2635.77 1445.57L2641.83 1529.24C2641.89 1531.19 2643.59 1532.29 2645.25 1532.29C2646.53 1532.29 2647.8 1531.64 2648.31 1530.21L2669.19 1476.64C2736.25 1527.89 2799.23 1587.61 2850.32 1654.76C2834.47 1679.36 2799.15 1730.33 2751.41 1776.47Z" fill="#BEB5C2"/>
<path d="M2850.32 1654.76C2799.23 1587.61 2736.25 1527.89 2669.19 1476.64L2678.29 1453.25C2715.23 1481.08 2797.56 1547.59 2864.75 1633.96C2862.69 1635.52 2860.91 1637.51 2859.55 1639.88C2859.33 1640.24 2856.15 1645.71 2850.32 1654.76ZM2635.77 1445.57C2634.84 1442.32 2634.59 1438.88 2635.05 1435.51L2635.77 1445.57ZM2637.16 1423.53C2645.03 1375.85 2645.09 1324.45 2628.61 1279.81C2620.81 1259.08 2605.45 1233.48 2584.31 1233.48C2578.99 1233.48 2573.31 1235.09 2567.28 1238.81C2558.71 1243.77 2550.13 1252 2542.43 1261.45C2538.77 1265.95 2533.45 1268.28 2528.08 1268.28C2526.93 1268.28 2525.8 1268.17 2524.67 1267.96L2508.6 1264.91L2505.13 1262.37C2478.61 1244.12 2447.03 1234.44 2415.37 1234.44C2392.56 1234.44 2369.72 1239.47 2348.69 1249.95C2336.15 1255.92 2324.43 1263.2 2313.36 1271.51C2303.45 1266.92 2294.99 1263.31 2288.47 1260.63C2334.51 1222.37 2378.44 1210.25 2415.6 1210.25C2479.79 1210.25 2523.8 1246.37 2523.8 1246.37C2544.49 1220.81 2565.48 1209.41 2584.75 1209.41C2637.47 1209.41 2677.36 1294.77 2663.47 1409.32C2662.33 1409.15 2661.17 1409.05 2660 1409.05C2659.27 1409.05 2658.53 1409.09 2657.79 1409.16C2648.48 1409.83 2640.76 1415.6 2637.16 1423.53Z" fill="#371A45"/>
<path d="M2773.23 1810.4C2766.59 1799.05 2759.25 1787.71 2751.41 1776.47C2799.15 1730.33 2834.47 1679.36 2850.32 1654.76C2856.15 1645.71 2859.33 1640.24 2859.55 1639.88C2860.91 1637.51 2862.69 1635.52 2864.75 1633.96C2873.12 1644.72 2881.27 1655.8 2889.05 1667.15C2885.85 1672.37 2881.11 1679.91 2874.93 1689.15C2854.81 1719.17 2819.51 1767.01 2773.23 1810.4Z" fill="#371A45"/>
<path d="M2645.25 1532.29C2643.59 1532.29 2641.89 1531.19 2641.83 1529.24L2635.77 1445.57L2635.05 1435.51L2635.04 1435.44C2634.73 1431.21 2635.52 1427.15 2637.16 1423.53C2640.76 1415.6 2648.48 1409.83 2657.79 1409.16C2658.53 1409.09 2659.27 1409.05 2660 1409.05C2661.17 1409.05 2662.33 1409.15 2663.47 1409.32C2662.28 1419.03 2660.72 1428.93 2658.75 1439.01C2658.75 1439.01 2666.01 1444 2678.29 1453.25L2669.19 1476.64L2648.31 1530.21C2647.8 1531.64 2646.53 1532.29 2645.25 1532.29Z" fill="#371A45"/>
<path d="M3448.43 2532.03L3549.15 2435.75C3551.75 2433.13 3556.24 2436.6 3554.33 2439.76L3486.33 2561.39C3479.8 2573.07 3465.04 2577.24 3453.35 2570.71C3439.21 2563.12 3436.73 2542.91 3448.43 2532.03Z" fill="#371A45"/>
<path d="M3203.29 2182.63L3214.53 2261.17C3215.12 2264.49 3210.49 2266.45 3208.52 2263.76L3159.25 2201.56C3150.73 2190.81 3152.55 2175.2 3163.29 2166.68C3177.68 2154.63 3201.13 2164.2 3203.29 2182.63Z" fill="#371A45"/>
<path d="M3700.15 2679.25C3696.61 2679.25 3693.03 2678.29 3689.79 2676.29C3680.57 2670.56 3677.75 2658.44 3683.48 2649.21C3859.09 2366.64 3386.41 2035.59 3381.61 2032.28C3372.68 2026.11 3370.44 2013.87 3376.6 2004.93C3382.77 1996 3395.01 1993.75 3403.95 1999.92C3409.09 2003.47 3531.19 2088.31 3632.11 2212.19C3769.15 2380.39 3798.45 2538.69 3716.87 2669.97C3713.15 2675.96 3706.72 2679.25 3700.15 2679.25Z" fill="#371A45"/>
<path d="M3374.65 2658.57C3373.09 2658.57 3371.52 2658.39 3369.93 2658C3359.4 2655.4 3352.96 2644.75 3355.55 2634.21C3423.33 2358.85 3216.19 2177.61 3214.08 2175.81C3205.85 2168.76 3204.87 2156.36 3211.92 2148.11C3218.96 2139.87 3231.35 2138.88 3239.6 2145.91C3241.88 2147.85 3467.43 2344.2 3393.72 2643.6C3391.52 2652.57 3383.48 2658.57 3374.65 2658.57Z" fill="#371A45"/>
<path d="M2235.83 2856.93C2160.63 2856.93 2111.03 2847.49 2106.21 2846.55C2093.24 2843.96 2084.8 2831.35 2087.37 2818.36C2089.96 2805.37 2102.63 2796.96 2115.53 2799.51C2118.24 2800.04 2388.92 2850.96 2639.41 2702.84C2645.71 2699.11 2653.37 2698.48 2660.21 2701.11C2661.57 2701.63 2802.19 2754.05 3058.76 2752.13H3058.95C3072.09 2752.13 3082.81 2762.75 3082.91 2775.92C3083 2789.16 3072.35 2799.97 3059.11 2800.07C2830.96 2801.8 2692.89 2762.53 2654.12 2749.75C2499.64 2838.08 2342.15 2856.93 2235.83 2856.93Z" fill="#371A45"/>
<path d="M2683.37 2919.05L2814.53 2893.15C2818.11 2892.33 2820.04 2897.63 2816.77 2899.31L2699.83 2964.08C2666.33 2980.21 2647.32 2928.36 2683.37 2919.05Z" fill="#371A45"/>
<path d="M2859.88 3270.39C2851.76 3270.39 2843.83 3266.25 2839.33 3258.79C2832.51 3247.44 2836.16 3232.71 2847.49 3225.88C3008.64 3128.81 2949.59 2782.35 2948.97 2778.85C2946.67 2765.83 2955.36 2753.39 2968.4 2751.08C2981.45 2748.79 2993.87 2757.47 2996.19 2770.51C2998.93 2786.07 3061.52 3152.93 2872.24 3266.95C2868.36 3269.28 2864.09 3270.39 2859.88 3270.39Z" fill="#371A45"/>
<path d="M2626.79 2951.45C2623.72 2951.45 2620.61 2950.73 2617.69 2949.21C2608.08 2944.17 2604.36 2932.29 2609.39 2922.68C2664.51 2817.29 2608.6 2753.53 2608.03 2752.91C2600.75 2744.85 2601.37 2732.41 2609.43 2725.13C2617.48 2717.85 2629.91 2718.48 2637.2 2726.53C2640.28 2729.95 2711.89 2811.51 2644.23 2940.89C2640.71 2947.61 2633.87 2951.45 2626.79 2951.45Z" fill="#371A45"/>
<path d="M1930.35 2761.95C1923.64 2761.95 1917 2761.85 1910.39 2761.63C1897.16 2761.21 1886.77 2750.13 1887.2 2736.91C1887.63 2723.67 1898.75 2713.31 1911.93 2713.72C2081.12 2719.13 2289.81 2649.71 2431.12 2540.89C2481.68 2501.96 2502.85 2455.11 2494.03 2401.63C2487.12 2359.65 2463.99 2328.45 2463.76 2328.13C2459.45 2322.4 2457.92 2315 2459.63 2308.03C2461.33 2301.05 2466.04 2295.19 2472.51 2292.08C2623.27 2219.71 2682.56 2098.32 2683.15 2097.11C2688.84 2085.17 2703.13 2080.09 2715.07 2085.75C2727.01 2091.43 2732.12 2105.67 2726.48 2117.61C2723.97 2122.92 2666.23 2242.43 2517.35 2323.01C2551.49 2385.09 2571.19 2493.55 2460.37 2578.89C2316.43 2689.73 2106.05 2761.95 1930.35 2761.95Z" fill="#371A45"/>
<path d="M1368.25 2329.32C1368.56 2328.71 1368.65 2328.39 1368.65 2328.39L1324.13 2310.6C1327.69 2301.68 1366.43 2221.71 1625.21 2161.76C1818.56 2116.96 2007.95 2051.47 2080.4 2025.37C2127.69 2008.36 2179.96 2010.59 2223.81 2031.48C2265.47 2051.33 2302.89 2082.73 2335.29 2124.96C2359.08 2114.36 2408.47 2086.76 2459.24 2024.29L2496.45 2054.52C2415.44 2154.21 2336.17 2176.11 2332.85 2177C2323.09 2179.56 2312.8 2175.79 2307.05 2167.53C2277.03 2124.52 2242.08 2093.29 2203.19 2074.76C2170.81 2059.33 2131.99 2057.76 2096.64 2070.49C2023.39 2096.85 1831.87 2163.09 1636.03 2208.47C1404.4 2262.12 1368.59 2328.65 1368.25 2329.32Z" fill="#371A45"/>
<path d="M2420.49 2363.19C2411.55 2363.19 2402.59 2361.39 2394.16 2357.79C2322.05 2326.95 2287.07 2261.68 2272.63 2225.52C2261.29 2197.15 2270.65 2164.83 2295.39 2146.91L2312.64 2134.41C2323.36 2126.64 2338.35 2129.03 2346.12 2139.75C2353.89 2150.47 2351.49 2165.45 2340.77 2173.23L2323.52 2185.73C2316.6 2190.75 2313.99 2199.8 2317.15 2207.73C2331.43 2243.48 2359.64 2290.88 2413.01 2313.71C2418.05 2315.87 2423.76 2315.73 2428.65 2313.36L2472.41 2292.12C2484.33 2286.33 2498.68 2291.31 2504.45 2303.23C2510.23 2315.13 2505.27 2329.48 2493.36 2335.25L2449.59 2356.49C2440.41 2360.95 2430.47 2363.19 2420.49 2363.19Z" fill="#371A45"/>
<path d="M1411.48 2444.2C1411.75 2444.39 1412.01 2444.59 1412.27 2444.8C1412.05 2444.63 1411.8 2444.43 1411.48 2444.2ZM2416.24 2605.32C2403.57 2605.32 2392.99 2595.39 2392.32 2582.59C2386.21 2463.67 2279.03 2331.45 2176.32 2262.32C2114.21 2220.51 2071.2 2212.85 2051.68 2219.64C2020.83 2230.37 1972.05 2242.69 1910.33 2258.31C1804.07 2285.19 1658.55 2321.97 1538.21 2369.4C1425.81 2413.69 1414.45 2441.53 1413.37 2445.76C1422.32 2453.99 1423.76 2467.8 1416.33 2477.75C1408.4 2488.35 1393.37 2490.52 1382.77 2482.59C1373.24 2475.45 1363.05 2459.96 1365.76 2439.77C1370.97 2400.92 1420.19 2364.39 1520.64 2324.8C1643.81 2276.25 1791.07 2239.01 1898.57 2211.83C1956.77 2197.11 2007.04 2184.4 2035.93 2174.36C2090.77 2155.29 2164.19 2196.37 2203.09 2222.55C2312.21 2296 2432.96 2439.23 2440.2 2580.12C2440.89 2593.35 2430.72 2604.61 2417.49 2605.29C2417.08 2605.31 2416.67 2605.32 2416.24 2605.32Z" fill="#371A45"/>
<path d="M2164.96 2484.45C2129.01 2529.52 2055.44 2530.6 2000.63 2486.88C1945.83 2443.16 1930.53 2371.19 1966.48 2326.12C2002.43 2281.05 2076 2279.96 2130.81 2323.69C2185.63 2367.41 2200.92 2439.39 2164.96 2484.45Z" fill="#3E96FF"/>
<path d="M2043.39 2311.25C2042.87 2311.25 2042.36 2311.25 2041.85 2311.27C2016.81 2311.63 1995.49 2321.27 1981.84 2338.37C1968.19 2355.49 1963.55 2378.41 1968.75 2402.92C1974.25 2428.84 1989.93 2453.2 2012.89 2471.51C2059.13 2508.4 2120.47 2508.71 2149.6 2472.19C2178.73 2435.68 2164.8 2375.95 2118.55 2339.05C2096.03 2321.09 2069.4 2311.25 2043.39 2311.25ZM2088.03 2538.49C2054.43 2538.49 2018.75 2526.48 1988.37 2502.25C1958.32 2478.27 1937.69 2445.89 1930.29 2411.09C1922.6 2374.87 1929.99 2340.33 1951.12 2313.85C1972.23 2287.39 2004.25 2272.51 2041.28 2271.96C2076.83 2271.28 2113.01 2284.35 2143.07 2308.32C2206.27 2358.73 2222.99 2443.24 2180.33 2496.71C2158.19 2524.48 2124.32 2538.49 2088.03 2538.49Z" fill="#371A45"/>
<path d="M1951.61 2354.07C1989.13 2308.16 2063.07 2316.49 2106.32 2350.19C2140.55 2375.32 2164.69 2417.19 2161.95 2460.28C2160.83 2474.27 2157.19 2488.05 2149.76 2499.33C2151.73 2448.28 2125.35 2405.57 2086.77 2376.47C2048.05 2347.88 1999.09 2334.91 1951.61 2354.07Z" fill="#371A45"/>
<path d="M2198.13 2702.88C2192.97 2702.88 2187.83 2700.87 2183.96 2696.85L2029.59 2536.43L1791.67 2542.49C1786.27 2542.65 1781.48 2540.71 1777.71 2537.16L1576.01 2347.76C1568.11 2340.33 1567.71 2327.89 1575.13 2319.97C1582.57 2312.07 1595 2311.67 1602.92 2319.11L1798.73 2502.97L2037.25 2496.91C2042.83 2496.73 2048.09 2498.96 2051.92 2502.93L2212.29 2669.6C2219.81 2677.41 2219.57 2689.87 2211.76 2697.39C2207.95 2701.05 2203.04 2702.88 2198.13 2702.88Z" fill="#371A45"/>
<path d="M555.496 2113.24C548.44 2113.24 541.616 2109.44 538.095 2102.76C533.023 2093.16 536.701 2081.27 546.297 2076.2C721.604 1983.65 647.241 1725.19 646.467 1722.59C643.381 1712.19 649.305 1701.24 659.703 1698.15C670.087 1695.03 681.037 1700.96 684.143 1711.36C685.008 1714.27 768.569 2003.32 564.657 2110.97C561.727 2112.52 558.589 2113.24 555.496 2113.24Z" fill="#371A45"/>
<path d="M328.059 1554.56L317.551 1624.2L315.421 1610.19C363.704 1698.61 357.609 1830.45 265.036 1887.84C236.516 1905.68 205.096 1915.57 173.791 1920.21C170.055 1920.68 168.461 1915.41 172.049 1913.89C262.825 1877.23 311.517 1812.95 293.699 1713.48C290.479 1692.43 285.021 1671.33 278.739 1650.84L272.275 1631.08C270.1 1626.59 269.429 1621.67 270.145 1617.05L280.653 1547.4C286.289 1516.31 331.815 1523 328.059 1554.56Z" fill="#371A45"/>
<path d="M345.217 1773.2C336.272 1773.2 326.981 1772.21 317.339 1770.08C304.409 1767.21 296.252 1754.43 299.109 1741.49C301.961 1728.57 314.748 1720.4 327.691 1723.27C411.219 1741.73 453.524 1621.07 453.941 1619.84C458.212 1607.32 471.831 1600.63 484.371 1604.91C496.903 1609.19 503.589 1622.81 499.305 1635.35C481.941 1686.19 429.012 1773.2 345.217 1773.2Z" fill="#371A45"/>
<path d="M2797.23 1437.35L2756.11 1497.16C2755.04 1498.72 2752.91 1499.11 2751.35 1498.04C2750.37 1497.36 2749.85 1496.25 2749.87 1495.15L2751.61 1422.57C2751.95 1408.76 2763.41 1397.84 2777.23 1398.17C2796.64 1398.07 2808.56 1421.85 2797.23 1437.35Z" fill="#371A45"/>
<path d="M2952.83 1979.37C2944.77 1979.37 2937.24 1974.4 2934.33 1966.4C2930.64 1956.19 2935.92 1944.92 2946.13 1941.23C3034.39 1909.27 3084.28 1819.44 3084.77 1818.53C3089.99 1809 3101.92 1805.49 3111.45 1810.71C3120.97 1815.91 3124.48 1827.85 3119.28 1837.39C3116.97 1841.6 3061.6 1941.23 2959.51 1978.19C2957.31 1978.99 2955.04 1979.37 2952.83 1979.37Z" fill="#371A45"/>
<path d="M2196.08 2715.76C2292.65 2683.73 2385.51 2636.53 2460.37 2578.89C2571.19 2493.55 2551.49 2385.09 2517.35 2323.01C2642.45 2255.29 2703.21 2160.08 2720.91 2128.27C2801.49 2125.55 2879.03 2096.55 2935.03 2031.96C2944.01 2022.45 2951.95 2011.99 2958.79 2000.81C2976.81 2034.12 3001.12 2084.03 3014.09 2131.91C3016.08 2139.23 3021.43 2145.19 3028.49 2147.96C3029.16 2148.21 3095.41 2174.29 3167.45 2211.91L3208.52 2263.76C3209.16 2264.64 3210.09 2265.03 3211.04 2265.03C3212.96 2265.03 3214.93 2263.41 3214.53 2261.17L3206.04 2201.77C3210.48 2197.65 3216.6 2192.03 3224.07 2185.25C3247.33 2208.33 3305.79 2272.81 3341 2368.28C3263.89 2431.39 3192.13 2455.79 3127.29 2455.8C2958.6 2455.83 2836.61 2290.72 2788.24 2212.41C2785.05 2213.25 2783.28 2213.65 2783.28 2213.65C2783.28 2213.65 2672.83 2250 2650.25 2501.99C2635.52 2666.39 2375.21 2707.24 2196.08 2715.76Z" fill="#BEB5C2"/>
<path d="M3167.45 2211.91C3095.41 2174.29 3029.16 2148.21 3028.49 2147.96C3021.43 2145.19 3016.08 2139.23 3014.09 2131.91C3001.12 2084.03 2976.81 2034.12 2958.79 2000.81C2963.03 1993.89 2966.84 1986.69 2970.21 1979.29L2971.36 1987.31L2972.68 1996.52C2973.81 1996.49 2975.03 1996.4 2976.23 1996.32C2994.2 2030.44 3016.59 2078.01 3029.19 2124.45C3029.19 2124.45 3086.91 2147.05 3154.39 2181.2C3152.99 2188.12 3154.52 2195.59 3159.25 2201.56L3167.45 2211.91ZM3206.04 2201.77L3203.29 2182.63C3202.67 2177.28 3200.25 2172.68 3196.77 2169.13C3200 2166.21 3203.48 2163.04 3207.24 2159.65C3206.88 2165.6 3209.21 2171.64 3214.08 2175.81C3214.36 2176.05 3218.03 2179.25 3224.07 2185.25C3216.6 2192.03 3210.48 2197.65 3206.04 2201.77Z" fill="#371A45"/>
<path d="M2050.36 2703.33C2083.2 2684.17 2110.73 2664.55 2133.71 2644.64L2163.87 2675.97C2126.16 2687.68 2088.01 2696.89 2050.36 2703.33ZM2205.09 2662.12L2162.12 2617.45C2293.89 2477.52 2216.92 2329.41 2151.99 2247.08C2159.73 2251.56 2167.85 2256.63 2176.32 2262.32C2275.25 2328.92 2378.33 2454.03 2391.24 2569.4C2335.21 2606.64 2271.4 2638.12 2205.09 2662.12ZM2434.79 2538.03C2409.01 2411.39 2301.33 2288.68 2203.09 2222.55C2177.09 2205.05 2135.71 2180.92 2094.75 2172.51C2112.24 2122.6 2108.23 2090.79 2096.59 2070.51C2096.61 2070.51 2096.63 2070.49 2096.64 2070.49C2112.48 2064.79 2129.03 2061.95 2145.37 2061.95C2165.49 2061.95 2185.32 2066.24 2203.19 2074.76C2236.16 2090.48 2266.29 2115.31 2293.01 2148.72C2270.07 2166.95 2261.67 2198.08 2272.63 2225.52C2287.07 2261.68 2322.05 2326.95 2394.16 2357.79C2402.59 2361.39 2411.55 2363.19 2420.49 2363.19C2430.47 2363.19 2440.41 2360.95 2449.59 2356.49L2473.97 2344.67C2481.16 2357.88 2490.15 2378.05 2494.03 2401.63C2502.63 2453.8 2482.71 2499.67 2434.79 2538.03ZM3373.09 2342.43C3335.89 2249.2 3279.28 2185.16 3253.39 2159.04C3291.72 2125.25 3344.84 2080.31 3396.35 2043C3428.49 2067.03 3507.8 2129.55 3580.16 2212.32C3529.44 2232.84 3462.12 2272.28 3373.09 2342.43Z" fill="#BEB5C2"/>
<path d="M3253.39 2159.04C3245.08 2150.67 3239.93 2146.19 3239.6 2145.91C3236.17 2143 3232.05 2141.45 3227.88 2141.25C3266.67 2107 3321.07 2060.91 3374.17 2022.44C3375.49 2026.31 3378 2029.79 3381.61 2032.28C3382.11 2032.61 3387.4 2036.32 3396.35 2043C3344.84 2080.31 3291.72 2125.25 3253.39 2159.04Z" fill="#371A45"/>
<path d="M2420.48 2315.24C2417.95 2315.24 2415.4 2314.73 2413.01 2313.71C2368.87 2294.83 2341.93 2259.15 2325.87 2227.15C2329 2227.41 2332.16 2227.53 2335.33 2227.53C2417.52 2227.53 2511.51 2140.49 2552.43 2098.09C2588.63 2112.29 2627.09 2121.99 2665.83 2126.16C2638.67 2166.84 2577.97 2241.45 2472.51 2292.08C2472.4 2292.13 2472.29 2292.17 2472.2 2292.23L2428.65 2313.36C2426.08 2314.61 2423.28 2315.24 2420.48 2315.24ZM3620.96 2198.76C3549.73 2114.52 3470.68 2049.96 3430.45 2019.35C3438.93 2013.76 3447.25 2008.52 3455.35 2003.69C3461.57 1999.99 3468.4 1998.15 3476.01 1998.15C3480.56 1998.15 3485.37 1998.8 3490.49 2000.11C3553.92 2016.32 3636.71 2120.47 3687.99 2195.72C3680.95 2194 3672.81 2192.96 3663.41 2192.96C3651.41 2192.96 3637.37 2194.65 3620.96 2198.76Z" fill="#BEB5C2"/>
<path d="M3722.36 2215.57C3716.07 2208.36 3705.39 2199.96 3687.99 2195.72C3636.71 2120.47 3553.92 2016.32 3490.49 2000.11C3485.37 1998.8 3480.56 1998.15 3476.01 1998.15C3468.4 1998.15 3461.57 1999.99 3455.35 2003.69C3447.25 2008.52 3438.93 2013.76 3430.45 2019.35C3417.48 2009.48 3408.55 2003.13 3405.21 2000.8C3415.37 1994.03 3425.36 1987.68 3435.03 1981.92C3445.36 1975.77 3456.39 1972.99 3467.87 1972.99C3559.87 1972.99 3681.89 2151.92 3722.36 2215.57Z" fill="#371A45"/>
<path d="M2048.53 2036.69C2042.85 2035.37 2039.15 2035.12 2039.15 2035.12L2052.12 2035.44C2050.95 2035.85 2049.75 2036.27 2048.53 2036.69Z" fill="#BEB5C2"/>
<path d="M2720.91 2128.27C2724.27 2122.21 2726.08 2118.47 2726.48 2117.61C2728.76 2112.77 2729.28 2107.56 2728.31 2102.69C2733.21 2102.88 2738.13 2102.99 2743.05 2102.99L2743.19 2103.01C2764.81 2100.95 2784.48 2096.75 2802.29 2091.05C2828.48 2086.01 2850.32 2078.09 2868.56 2068.28L2938.84 1997.71L2938.91 1997.72C2942.23 1991.31 2945.04 1984.89 2947.41 1978.61C2949.16 1979.11 2950.97 1979.37 2952.83 1979.37C2955.04 1979.37 2957.31 1978.99 2959.51 1978.19C2962.89 1976.96 2966.23 1975.68 2969.51 1974.32L2970.21 1979.29C2966.84 1986.69 2963.03 1993.89 2958.79 2000.81C2951.95 2011.99 2944.01 2022.45 2935.03 2031.96C2879.03 2096.55 2801.49 2125.55 2720.91 2128.27ZM2665.83 2126.16C2627.09 2121.99 2588.63 2112.29 2552.43 2098.09C2565.6 2084.44 2573.27 2075.41 2573.27 2075.41C2583.24 2077.83 2592.97 2080.01 2602.44 2081.99C2626.11 2088.48 2653.48 2094.65 2682.39 2098.6C2680.52 2102.24 2675.15 2112.2 2665.83 2126.16Z" fill="#371A45"/>
<path d="M2743.19 2103.01L2743.05 2102.99C2738.13 2102.99 2733.21 2102.88 2728.31 2102.69C2727.91 2100.75 2727.28 2098.85 2726.43 2097.07C2728.85 2097.09 2731.27 2097.12 2733.65 2097.12C2759.32 2097.12 2782.09 2094.95 2802.29 2091.05C2784.48 2096.75 2764.81 2100.95 2743.19 2103.01ZM2682.39 2098.6C2653.48 2094.65 2626.11 2088.48 2602.44 2081.99C2632.19 2088.2 2659.47 2092.33 2684.47 2094.69C2683.99 2095.47 2683.55 2096.27 2683.15 2097.11C2683.11 2097.17 2682.87 2097.69 2682.39 2098.6Z" fill="#371A45"/>
<path d="M3211.04 2265.03C3210.09 2265.03 3209.16 2264.64 3208.52 2263.76L3167.45 2211.91L3159.25 2201.56C3154.52 2195.59 3152.99 2188.12 3154.39 2181.2C3160.6 2184.35 3166.89 2187.59 3173.23 2190.91C3173.23 2190.91 3181.97 2182.63 3196.77 2169.13C3200.25 2172.68 3202.67 2177.28 3203.29 2182.63L3206.04 2201.77L3214.53 2261.17C3214.93 2263.41 3212.96 2265.03 3211.04 2265.03Z" fill="#371A45"/>
<path d="M3580.16 2212.32C3507.8 2129.55 3428.49 2067.03 3396.35 2043C3387.4 2036.32 3382.11 2032.61 3381.61 2032.28C3378 2029.79 3375.49 2026.31 3374.17 2022.44C3384.61 2014.89 3395 2007.63 3405.21 2000.8C3408.55 2003.13 3417.48 2009.48 3430.45 2019.35C3470.68 2049.96 3549.73 2114.52 3620.96 2198.76C3608.73 2201.83 3595.16 2206.25 3580.16 2212.32Z" fill="#371A45"/>
<path d="M3341 2368.28C3305.79 2272.81 3247.33 2208.33 3224.07 2185.25C3218.03 2179.25 3214.36 2176.05 3214.08 2175.81C3209.21 2171.64 3206.88 2165.6 3207.24 2159.65C3213.45 2154.05 3220.37 2147.88 3227.88 2141.25C3232.05 2141.45 3236.17 2143 3239.6 2145.91C3239.93 2146.19 3245.08 2150.67 3253.39 2159.04C3279.28 2185.16 3335.89 2249.2 3373.09 2342.43C3362.99 2350.39 3352.61 2358.73 3341.93 2367.52C3341.63 2367.77 3341.31 2368.03 3341 2368.28Z" fill="#371A45"/>
<path d="M2111.05 2717.76C2060.84 2717.76 2028.32 2715.68 2028.32 2715.68C2035.91 2711.6 2043.27 2707.47 2050.36 2703.33C2088.01 2696.89 2126.16 2687.68 2163.87 2675.97L2183.96 2696.85C2187.83 2700.87 2192.97 2702.88 2198.13 2702.88C2203.04 2702.88 2207.95 2701.05 2211.76 2697.39C2219.57 2689.87 2219.81 2677.41 2212.29 2669.6L2205.09 2662.12C2271.4 2638.12 2335.21 2606.64 2391.24 2569.4C2391.73 2573.81 2392.11 2578.2 2392.32 2582.59C2392.99 2595.39 2403.57 2605.32 2416.24 2605.32C2416.67 2605.32 2417.08 2605.31 2417.49 2605.29C2430.72 2604.61 2440.89 2593.35 2440.2 2580.12C2439.48 2566.09 2437.64 2552.03 2434.79 2538.03C2482.71 2499.67 2502.63 2453.8 2494.03 2401.63C2490.15 2378.05 2481.16 2357.88 2473.97 2344.67L2493.36 2335.25C2505.27 2329.48 2510.23 2315.13 2504.45 2303.23C2500.31 2294.68 2491.76 2289.71 2482.87 2289.71C2479.36 2289.71 2475.79 2290.48 2472.41 2292.12L2472.2 2292.23C2472.29 2292.17 2472.4 2292.13 2472.51 2292.08C2577.97 2241.45 2638.67 2166.84 2665.83 2126.16C2675.15 2112.2 2680.52 2102.24 2682.39 2098.6C2682.87 2097.69 2683.11 2097.17 2683.15 2097.11C2683.55 2096.27 2683.99 2095.47 2684.47 2094.69C2699.23 2096.09 2713.19 2096.85 2726.43 2097.07C2727.28 2098.85 2727.91 2100.75 2728.31 2102.69C2729.28 2107.56 2728.76 2112.77 2726.48 2117.61C2726.08 2118.47 2724.27 2122.21 2720.91 2128.27C2703.21 2160.08 2642.45 2255.29 2517.35 2323.01C2551.49 2385.09 2571.19 2493.55 2460.37 2578.89C2385.51 2636.53 2292.65 2683.73 2196.08 2715.76C2164.64 2717.27 2135.73 2717.76 2111.05 2717.76Z" fill="#371A45"/>
<path d="M2293.01 2148.72C2266.29 2115.31 2236.16 2090.48 2203.19 2074.76C2185.32 2066.24 2165.49 2061.95 2145.37 2061.95C2129.03 2061.95 2112.48 2064.79 2096.64 2070.49C2096.63 2070.49 2096.61 2070.51 2096.59 2070.51C2083.63 2047.89 2061.19 2039.64 2048.53 2036.69C2049.75 2036.27 2050.95 2035.85 2052.12 2035.44L2156.87 2037.97C2158.56 2037.91 2160.25 2037.87 2161.91 2037.87C2252.28 2037.87 2305.91 2135.4 2305.91 2135.4L2304.79 2140.09L2295.39 2146.91C2294.59 2147.49 2293.79 2148.11 2293.01 2148.72Z" fill="#371A45"/>
<path d="M2420.49 2363.19C2411.55 2363.19 2402.59 2361.39 2394.16 2357.79C2322.05 2326.95 2287.07 2261.68 2272.63 2225.52C2261.67 2198.08 2270.07 2166.95 2293.01 2148.72C2293.79 2148.11 2294.59 2147.49 2295.39 2146.91L2304.79 2140.09L2286.81 2215.43C2299.24 2222.28 2312.35 2225.99 2325.87 2227.15C2341.93 2259.15 2368.87 2294.83 2413.01 2313.71C2415.4 2314.73 2417.95 2315.24 2420.48 2315.24C2423.28 2315.24 2426.08 2314.61 2428.65 2313.36L2472.2 2292.23L2472.41 2292.12C2475.79 2290.48 2479.36 2289.71 2482.87 2289.71C2491.76 2289.71 2500.31 2294.68 2504.45 2303.23C2510.23 2315.13 2505.27 2329.48 2493.36 2335.25L2473.97 2344.67L2449.59 2356.49C2440.41 2360.95 2430.47 2363.19 2420.49 2363.19Z" fill="#371A45"/>
<path d="M2416.24 2605.32C2403.57 2605.32 2392.99 2595.39 2392.32 2582.59C2392.11 2578.2 2391.73 2573.81 2391.24 2569.4C2378.33 2454.03 2275.25 2328.92 2176.32 2262.32C2167.85 2256.63 2159.73 2251.56 2151.99 2247.08C2120.15 2206.68 2091.19 2182.13 2091.19 2182.13C2092.45 2178.85 2093.64 2175.64 2094.75 2172.51C2135.71 2180.92 2177.09 2205.05 2203.09 2222.55C2301.33 2288.68 2409.01 2411.39 2434.79 2538.03C2437.64 2552.03 2439.48 2566.09 2440.2 2580.12C2440.89 2593.35 2430.72 2604.61 2417.49 2605.29C2417.08 2605.31 2416.67 2605.32 2416.24 2605.32Z" fill="#371A45"/>
<path d="M2198.13 2702.88C2192.97 2702.88 2187.83 2700.87 2183.96 2696.85L2163.87 2675.97L2133.71 2644.64C2144.09 2635.64 2153.56 2626.55 2162.12 2617.45L2205.09 2662.12L2212.29 2669.6C2219.81 2677.41 2219.57 2689.87 2211.76 2697.39C2207.95 2701.05 2203.04 2702.88 2198.13 2702.88Z" fill="#371A45"/>
<path d="M2959.89 1935.65C2960.8 1931.71 2961.59 1927.8 2962.29 1923.87L2963.72 1933.89C2962.45 1934.49 2961.19 1935.07 2959.89 1935.65Z" fill="#371A45"/>
<path d="M2957.96 1936.51C2960.25 1919.85 2959.77 1907.81 2959.56 1904.75L2962.29 1923.87C2961.59 1927.8 2960.8 1931.71 2959.89 1935.65C2959.25 1935.93 2958.61 1936.23 2957.96 1936.51Z" fill="#371A45"/>
<path d="M2952.83 1979.37C2950.97 1979.37 2949.16 1979.11 2947.41 1978.61C2950.24 1971.11 2952.43 1963.79 2954.08 1956.87C2955.87 1949.59 2957.11 1942.72 2957.96 1936.51C2958.61 1936.23 2959.25 1935.93 2959.89 1935.65C2961.19 1935.07 2962.45 1934.49 2963.72 1933.89L2969.51 1974.32C2966.23 1975.68 2962.89 1976.96 2959.51 1978.19C2957.31 1978.99 2955.04 1979.37 2952.83 1979.37Z" fill="#371A45"/>
<path d="M2932.41 3213.01C3026.93 3091.49 3010.39 2877.69 3000.47 2799.61C3012.88 2799.91 3025.61 2800.08 3038.65 2800.12C3050.51 2877.83 3083.35 3164.01 2933.64 3212.63C2933.23 3212.75 2932.81 3212.88 2932.41 3213.01Z" fill="#BEB5C2"/>
<path d="M2907.88 3239.97C2916.79 3231.64 2924.95 3222.61 2932.41 3213.01C2932.81 3212.88 2933.23 3212.75 2933.64 3212.63C3083.35 3164.01 3050.51 2877.83 3038.65 2800.12C3040.59 2800.12 3042.55 2800.12 3044.49 2800.12C3049.32 2800.12 3054.21 2800.11 3059.11 2800.07C3060.77 2800.05 3062.4 2799.88 3063.97 2799.53C3077.19 2890.17 3105.56 3178.31 2941.63 3231.56C2929.97 3235.33 2918.72 3238.12 2907.88 3239.97Z" fill="#371A45"/>
<path d="M2854.51 3221.41C2828.75 3217.8 2805.52 3207.03 2785.03 3189.12C3002.8 3000.39 2889.53 2850.64 2814.65 2784.81C2853.87 2790.37 2899.61 2795.12 2951.76 2797.79C2961.4 2870.63 2985.91 3132.81 2854.51 3221.41Z" fill="#BEB5C2"/>
<path d="M3044.49 2800.12C3042.55 2800.12 3040.59 2800.12 3038.65 2800.12C3025.61 2800.08 3012.88 2799.91 3000.47 2799.61C2999.76 2794.11 2999.09 2789.28 2998.51 2785.21L3059.64 2772.99C3060.13 2775.6 3061.87 2785.04 3063.97 2799.53C3062.4 2799.88 3060.77 2800.05 3059.11 2800.07C3054.21 2800.11 3049.32 2800.12 3044.49 2800.12ZM2951.76 2797.79C2899.61 2795.12 2853.87 2790.37 2814.65 2784.81C2787.84 2761.23 2765.95 2748.43 2765.95 2748.43L2951.03 2792.39C2951.25 2794.04 2951.51 2795.85 2951.76 2797.79Z" fill="#371A45"/>
<path d="M2875.15 3242.84C2861.79 3242.84 2849.16 3241.33 2837.24 3238.51C2839.01 3233.41 2842.51 3228.88 2847.49 3225.88C2849.88 3224.44 2852.23 3222.95 2854.51 3221.41C2985.91 3132.81 2961.4 2870.63 2951.76 2797.79C2951.51 2795.85 2951.25 2794.04 2951.03 2792.39L2956.33 2793.64L2998.51 2785.21C2999.09 2789.28 2999.76 2794.11 3000.47 2799.61C3010.39 2877.69 3026.93 3091.49 2932.41 3213.01C2924.95 3222.61 2916.79 3231.64 2907.88 3239.97C2896.52 3241.92 2885.61 3242.84 2875.15 3242.84Z" fill="#371A45"/>
<path d="M3082.68 2772.75C3082.64 2772.55 3082.61 2772.35 3082.59 2772.16L3135.99 2761.51C3118.84 2765.96 3101.03 2769.8 3082.68 2772.75Z" fill="#261252"/>
<path d="M3070.33 2774.6L3082.59 2772.16C3082.61 2772.35 3082.64 2772.55 3082.68 2772.75C3078.59 2773.41 3074.48 2774.03 3070.33 2774.6Z" fill="#261252"/>
<path d="M1794.41 1936.8C1799.88 1934.71 1805.33 1932.57 1810.76 1930.39C1828.51 1923.17 1846.29 1915.39 1863.68 1907.23C1990.88 1847.23 2102.07 1762.72 2192.27 1660.91C2215.55 1675.71 2242.85 1684.76 2269.97 1688.44C2278.99 1702.23 2291.13 1713.15 2305.11 1721.44C2192.76 1869.21 1943.07 1919.65 1794.41 1936.8Z" fill="#BEB5C2"/>
<path d="M1687.72 1945.27C1692.75 1943.12 1697.75 1940.93 1702.72 1938.72L1884.81 1890.95C1884.97 1891 1885.17 1891.03 1885.4 1891.03C1898.37 1891.01 2012.72 1807.89 2012.72 1807.89L2163.87 1642.28L2172.03 1645.57C2178.31 1651.23 2185.09 1656.35 2192.27 1660.91C2102.07 1762.72 1990.88 1847.23 1863.68 1907.23C1846.29 1915.39 1828.51 1923.17 1810.76 1930.39C1805.33 1932.57 1799.88 1934.71 1794.41 1936.8C1744.36 1942.59 1705.75 1944.59 1687.72 1945.27Z" fill="#371A45"/>
<path d="M1676.53 1945.59L1702.72 1938.72C1697.75 1940.93 1692.75 1943.12 1687.72 1945.27C1680.45 1945.53 1676.53 1945.59 1676.53 1945.59Z" fill="#371A45"/>
<path d="M2305.11 1721.44C2291.13 1713.15 2278.99 1702.23 2269.97 1688.44C2242.85 1684.76 2215.55 1675.71 2192.27 1660.91C2185.09 1656.35 2178.31 1651.23 2172.03 1645.57L2271.31 1685.64C2273.01 1686.81 2274.91 1687.79 2276.96 1688.52C2278.29 1688.99 2279.64 1689.32 2280.99 1689.55L2317.28 1704.2C2313.43 1710.08 2309.36 1715.84 2305.11 1721.44Z" fill="#371A45"/>
<path d="M2280.99 1689.55C2279.64 1689.32 2278.29 1688.99 2276.96 1688.52C2274.91 1687.79 2273.01 1686.81 2271.31 1685.64L2280.99 1689.55Z" fill="#371A45"/>
<path d="M3620.51 1566.16C3617.64 1528.45 3613.28 1488.08 3606.96 1445.48L3798.47 1384.4L3881.75 1396.97L3620.51 1566.16Z" fill="#C31C40"/>
<path d="M3607.59 1574.53L3607.09 1573.83C3606.04 1572.27 3604.8 1570.83 3603.39 1569.56C3600.97 1567.36 3598.47 1565.19 3595.89 1563.07L3584.2 1452.73L3606.96 1445.48C3613.28 1488.08 3617.64 1528.45 3620.51 1566.16L3607.59 1574.53Z" fill="#371A45"/>
<path d="M3608.53 1575.93L3607.59 1574.53L3620.51 1566.16L3881.75 1396.97L3902.13 1400.04L3808.32 1473.09L3608.53 1575.93Z" fill="#371A45"/>
<path d="M3597.85 1581.44L3595.89 1563.07C3598.47 1565.19 3600.97 1567.36 3603.39 1569.56C3604.8 1570.83 3606.04 1572.27 3607.09 1573.83L3607.59 1574.53L3608.53 1575.93L3597.85 1581.44Z" fill="#371A45"/>
<defs>
<linearGradient id="paint0_linear_95_160" x1="3050" y1="791.499" x2="3278" y2="1436" gradientUnits="userSpaceOnUse">
<stop stop-color="#F7F7F7"/>
<stop offset="0.755" stop-color="#740DA5"/>
<stop offset="1" stop-color="#200969"/>
</linearGradient>
<linearGradient id="paint1_linear_95_160" x1="1916.38" y1="1429" x2="2932" y2="3095" gradientUnits="userSpaceOnUse">
<stop stop-color="#F8F8F8"/>
<stop offset="0.715" stop-color="#7D059A"/>
<stop offset="1" stop-color="#210A6A"/>
</linearGradient>
</defs>
</svg>
