<svg width="94" height="76" viewBox="0 0 94 76" fill="none" xmlns="http://www.w3.org/2000/svg">
<g clip-path="url(#clip0_50_4)">
<path d="M55.3388 1.52C38.6613 0.76 24.2581 0.76 12.8872 7.6C3.03231 13.68 2.2741 23.56 1.51604 38.76C0.757971 53.96 1.51604 60.8 6.06442 66.88C10.6128 72.96 28.8064 76 54.5806 75.24C75.1999 74.632 87.9354 67.8934 91.7257 64.6C91.7257 62.0666 92.029 53.504 93.2419 39.52C94.7581 22.04 90.9677 17.48 87.1774 9.12C83.3871 0.76 72.0162 2.28 55.3388 1.52Z" fill="url(#paint0_linear_50_4)"/>
<g filter="url(#filter0_d_50_4)">
<path d="M65.9091 57.6589C65.9091 58.9519 64.8509 60 63.5455 60H30.4545C29.1492 60 28.0909 58.9519 28.0909 57.6589V36.5886H21L45.41 14.6088C46.3115 13.7971 47.6885 13.7971 48.59 14.6088L73 36.5886H65.9091V57.6589ZM44.6364 41.2709V55.3177H49.3636V41.2709H44.6364Z" fill="white"/>
</g>
<path d="M81.3683 25.3536C77.7414 27.212 72.6387 24.4768 69.9713 19.2443C67.3038 14.0118 68.0816 8.26342 71.7085 6.405C75.3354 4.54658 80.438 7.28183 83.1055 12.5143C85.773 17.7469 84.9952 23.4952 81.3683 25.3536Z" fill="url(#paint1_linear_50_4)"/>
<path d="M10.8422 60.2844C13.5097 65.5169 18.6122 68.2521 22.2392 66.3938C25.8661 64.5353 19.3448 64.5125 16.6773 59.28C14.0098 54.0476 15.7558 51.696 12.1288 53.5545C8.50191 55.4128 8.17472 55.0518 10.8422 60.2844Z" fill="url(#paint2_linear_50_4)"/>
</g>
<defs>
<filter id="filter0_d_50_4" x="1" y="-3" width="92" height="86" filterUnits="userSpaceOnUse" color-interpolation-filters="sRGB">
<feFlood flood-opacity="0" result="BackgroundImageFix"/>
<feColorMatrix in="SourceAlpha" type="matrix" values="0 0 0 0 0 0 0 0 0 0 0 0 0 0 0 0 0 0 127 0" result="hardAlpha"/>
<feOffset dy="3"/>
<feGaussianBlur stdDeviation="10"/>
<feComposite in2="hardAlpha" operator="out"/>
<feColorMatrix type="matrix" values="0 0 0 0 0.992157 0 0 0 0 0.305882 0 0 0 0 0.0392157 0 0 0 1 0"/>
<feBlend mode="normal" in2="BackgroundImageFix" result="effect1_dropShadow_50_4"/>
<feBlend mode="normal" in="SourceGraphic" in2="effect1_dropShadow_50_4" result="shape"/>
</filter>
<linearGradient id="paint0_linear_50_4" x1="84.9031" y1="13.68" x2="47.2826" y2="75.2695" gradientUnits="userSpaceOnUse">
<stop stop-color="#FEDB5C"/>
<stop offset="1" stop-color="#FE9F02"/>
</linearGradient>
<linearGradient id="paint1_linear_50_4" x1="71.7085" y1="6.40499" x2="81.4074" y2="25.3336" gradientUnits="userSpaceOnUse">
<stop stop-color="white"/>
<stop offset="1" stop-color="white" stop-opacity="0"/>
</linearGradient>
<linearGradient id="paint2_linear_50_4" x1="12.5795" y1="47.445" x2="22.2784" y2="66.3736" gradientUnits="userSpaceOnUse">
<stop stop-color="white"/>
<stop offset="1" stop-color="white" stop-opacity="0"/>
</linearGradient>
<clipPath id="clip0_50_4">
<rect width="94" height="76" fill="white" transform="matrix(-1 0 0 1 94 0)"/>
</clipPath>
</defs>
</svg>
