<svg width="155" height="73" viewBox="0 0 155 73" fill="none" xmlns="http://www.w3.org/2000/svg">
<path d="M62.4954 2.55514C89.368 1.95132 120.454 -2.8792 138.776 2.55511C154.655 7.38562 152.779 29.7266 154 41.8029C155.221 53.8792 150.495 64.1441 143.166 68.9746C135.837 73.8051 106.221 73.2013 64.6904 72.5975C31.4661 72.1144 10.4319 66.7605 4.32446 64.144C-1.53516 58.7098 2.43743 52.9131 0.483062 41.8029C-1.9599 27.9152 5.35123 17.6505 11.4586 11.0085C17.566 4.36659 35.6228 3.15895 62.4954 2.55514Z" fill="url(#paint0_linear_77_2)"/>
<path d="M62.5003 6.99999C86.9841 6.49999 115.307 2.49997 132 6.99997C146.468 11 142.662 29.4999 143.774 39.4999C144.887 49.4999 142.678 58 136 62C129.323 66 102.339 65.5 64.5001 65C34.2292 64.6 15.0646 60.1666 9.50012 57.9999C4.16136 53.5 7.78082 48.6999 6.00018 39.4999C3.77437 27.9999 10.4356 19.5 16.0001 14C21.5647 8.5 38.0164 7.49999 62.5003 6.99999Z" fill="url(#paint1_linear_77_2)"/>
<g opacity="0.64">
<path d="M36 35C60.4839 34.5 47.8065 46.5 64.5 51C78.9678 55 99.8871 47.9999 101 57.9999C102.113 67.9999 142.677 58 136 62C131.227 64.8595 116.076 65.4193 94 65.3234C96.5412 59.7468 83.9041 63.8388 62.5001 57C55.1963 54.6664 55.8044 45.4347 48.0001 41C40.9013 36.9662 23.3653 38.3609 18.5001 33.5C13.5468 28.5511 12.3281 22.8984 12.3281 18C13.5358 16.5257 14.7937 15.1923 16 14C21.5645 8.5 11.5161 35.5 36 35Z" fill="url(#paint2_linear_77_2)"/>
<path d="M36 35C60.4839 34.5 47.8065 46.5 64.5 51C78.9678 55 99.8871 47.9999 101 57.9999C102.113 67.9999 142.677 58 136 62C131.227 64.8595 116.076 65.4193 94 65.3234C96.5412 59.7468 83.9041 63.8388 62.5001 57C55.1963 54.6664 55.8044 45.4347 48.0001 41C40.9013 36.9662 23.3653 38.3609 18.5001 33.5C13.5468 28.5511 12.3281 22.8984 12.3281 18C13.5358 16.5257 14.7937 15.1923 16 14C21.5645 8.5 11.5161 35.5 36 35Z" fill="url(#paint3_linear_77_2)"/>
</g>
<path d="M26.5442 30.68C31.8688 31.9026 39.3599 30.1031 43.276 26.6607C47.1921 23.2182 46.0502 19.4364 40.7256 18.2138C35.4009 16.9911 27.9099 18.7907 23.9938 22.2331C20.0777 25.6755 21.2196 29.4573 26.5442 30.68Z" fill="url(#paint4_linear_77_2)"/>
<path d="M130.083 53.6608C126.166 57.1032 118.675 58.9027 113.351 57.6801C108.026 56.4574 117.6 56.4424 121.516 53C125.432 49.5576 122.869 48.0105 128.194 49.2332C133.518 50.4558 133.999 50.2183 130.083 53.6608Z" fill="url(#paint5_linear_77_2)"/>
<path d="M27.1413 32.2891C27.0552 31.4827 26.692 30.8549 26.0518 30.4055C25.4179 29.9562 24.593 29.7315 23.5774 29.7315C22.8634 29.7315 22.2509 29.8393 21.7401 30.0547C21.2292 30.2701 20.8383 30.5625 20.5675 30.9318C20.2966 31.3011 20.1581 31.7228 20.152 32.1967C20.152 32.5907 20.2412 32.9323 20.4197 33.2216C20.6044 33.5109 20.8537 33.7571 21.1676 33.9602C21.4815 34.1572 21.8293 34.3234 22.2109 34.4588C22.5926 34.5942 22.9773 34.7081 23.3651 34.8004L25.1378 35.2436C25.8518 35.4098 26.5381 35.6345 27.1967 35.9176C27.8615 36.2008 28.4555 36.5578 28.9787 36.9886C29.508 37.4195 29.9266 37.9396 30.2344 38.549C30.5421 39.1584 30.696 39.8724 30.696 40.6911C30.696 41.799 30.4129 42.7746 29.8466 43.6179C29.2803 44.455 28.4616 45.1106 27.3906 45.5845C26.3258 46.0523 25.0362 46.2862 23.522 46.2862C22.0509 46.2862 20.7737 46.0585 19.6903 45.603C18.6132 45.1475 17.7699 44.4827 17.1605 43.6087C16.5573 42.7346 16.2311 41.6697 16.1818 40.4141H19.5518C19.6011 41.0727 19.8042 41.6205 20.1612 42.0575C20.5182 42.4946 20.983 42.8208 21.5554 43.0362C22.134 43.2517 22.7803 43.3594 23.4943 43.3594C24.2391 43.3594 24.8916 43.2486 25.4517 43.027C26.018 42.7992 26.4612 42.4853 26.7812 42.0852C27.1013 41.679 27.2644 41.205 27.2706 40.6634C27.2644 40.1709 27.1198 39.7647 26.8366 39.4446C26.5535 39.1184 26.1565 38.8475 25.6456 38.6321C25.1409 38.4105 24.55 38.2135 23.8729 38.0412L21.7216 37.4872C20.1643 37.0871 18.9332 36.4808 18.0284 35.6683C17.1297 34.8497 16.6804 33.7633 16.6804 32.4091C16.6804 31.295 16.982 30.3194 17.5852 29.4822C18.1946 28.6451 19.0225 27.9957 20.0689 27.5341C21.1153 27.0663 22.3002 26.8324 23.6236 26.8324C24.9654 26.8324 26.1411 27.0663 27.1506 27.5341C28.1662 27.9957 28.9633 28.639 29.5419 29.4638C30.1205 30.2824 30.419 31.2242 30.4375 32.2891H27.1413ZM39.1005 46.277C37.6786 46.277 36.4506 45.9815 35.4166 45.3906C34.3886 44.7936 33.5977 43.9503 33.0437 42.8608C32.4897 41.7652 32.2127 40.4756 32.2127 38.9922C32.2127 37.5334 32.4897 36.2531 33.0437 35.1513C33.6038 34.0433 34.3855 33.1816 35.3889 32.5661C36.3922 31.9444 37.5709 31.6335 38.9251 31.6335C39.7991 31.6335 40.6239 31.7751 41.3995 32.0582C42.1812 32.3352 42.8706 32.7661 43.4677 33.3509C44.0709 33.9356 44.5449 34.6804 44.8896 35.5852C45.2343 36.4839 45.4066 37.5549 45.4066 38.7983V39.8232H33.7823V37.5703H42.2028C42.1966 36.9302 42.0581 36.3608 41.7873 35.8622C41.5165 35.3575 41.1379 34.9605 40.6516 34.6712C40.1715 34.3819 39.6114 34.2372 38.9712 34.2372C38.288 34.2372 37.6879 34.4034 37.1708 34.7358C36.6538 35.062 36.2506 35.4929 35.9613 36.0284C35.6782 36.5578 35.5335 37.1394 35.5274 37.7734V39.7401C35.5274 40.5649 35.6782 41.2727 35.9798 41.8636C36.2814 42.4484 36.703 42.8977 37.2447 43.2116C37.7863 43.5194 38.4203 43.6733 39.1467 43.6733C39.6329 43.6733 40.073 43.6056 40.467 43.4702C40.8609 43.3286 41.2025 43.1224 41.4918 42.8516C41.7811 42.5807 41.9997 42.2453 42.1474 41.8452L45.2681 42.196C45.0711 43.0208 44.6957 43.741 44.1417 44.3565C43.5939 44.9659 42.8922 45.4399 42.0366 45.7784C41.181 46.1108 40.2023 46.277 39.1005 46.277ZM50.7965 27.0909V46H47.4542V27.0909H50.7965ZM59.7319 46.277C58.31 46.277 57.0821 45.9815 56.048 45.3906C55.02 44.7936 54.2291 43.9503 53.6751 42.8608C53.1211 41.7652 52.8441 40.4756 52.8441 38.9922C52.8441 37.5334 53.1211 36.2531 53.6751 35.1513C54.2352 34.0433 55.0169 33.1816 56.0203 32.5661C57.0236 31.9444 58.2023 31.6335 59.5565 31.6335C60.4305 31.6335 61.2553 31.7751 62.0309 32.0582C62.8126 32.3352 63.502 32.7661 64.0991 33.3509C64.7023 33.9356 65.1763 34.6804 65.521 35.5852C65.8657 36.4839 66.038 37.5549 66.038 38.7983V39.8232H54.4137V37.5703H62.8342C62.828 36.9302 62.6895 36.3608 62.4187 35.8622C62.1479 35.3575 61.7693 34.9605 61.283 34.6712C60.8029 34.3819 60.2428 34.2372 59.6026 34.2372C58.9194 34.2372 58.3193 34.4034 57.8022 34.7358C57.2852 35.062 56.882 35.4929 56.5927 36.0284C56.3096 36.5578 56.1649 37.1394 56.1588 37.7734V39.7401C56.1588 40.5649 56.3096 41.2727 56.6112 41.8636C56.9128 42.4484 57.3344 42.8977 57.8761 43.2116C58.4178 43.5194 59.0517 43.6733 59.7781 43.6733C60.2643 43.6733 60.7044 43.6056 61.0984 43.4702C61.4923 43.3286 61.8339 43.1224 62.1232 42.8516C62.4125 42.5807 62.6311 42.2453 62.7788 41.8452L65.8995 42.196C65.7026 43.0208 65.3271 43.741 64.7731 44.3565C64.2253 44.9659 63.5236 45.4399 62.668 45.7784C61.8124 46.1108 60.8337 46.277 59.7319 46.277ZM79.2944 35.5668L76.2475 35.8991C76.1614 35.5914 76.0106 35.3021 75.7951 35.0312C75.5858 34.7604 75.3027 34.5419 74.9457 34.3757C74.5887 34.2095 74.1517 34.1264 73.6346 34.1264C72.9391 34.1264 72.3543 34.2772 71.8804 34.5788C71.4126 34.8804 71.1817 35.2713 71.1879 35.7514C71.1817 36.1638 71.3325 36.4993 71.6403 36.7578C71.9542 37.0163 72.4713 37.2287 73.1914 37.3949L75.6105 37.9119C76.9523 38.2012 77.9495 38.6598 78.6019 39.2876C79.2606 39.9155 79.593 40.7372 79.5991 41.7528C79.593 42.6454 79.3314 43.4332 78.8143 44.1165C78.3034 44.7936 77.5925 45.3229 76.6815 45.7045C75.7705 46.0862 74.7241 46.277 73.5423 46.277C71.8065 46.277 70.4092 45.9138 69.3505 45.1875C68.2918 44.455 67.6609 43.4363 67.4578 42.1314L70.717 41.8175C70.8647 42.4576 71.1787 42.9408 71.6588 43.267C72.1389 43.5933 72.7636 43.7564 73.5331 43.7564C74.3271 43.7564 74.9642 43.5933 75.4443 43.267C75.9305 42.9408 76.1737 42.5376 76.1737 42.0575C76.1737 41.6513 76.0167 41.3158 75.7028 41.0511C75.395 40.7865 74.9149 40.5833 74.2625 40.4418L71.8434 39.9339C70.4831 39.6508 69.4767 39.1738 68.8242 38.5028C68.1718 37.8258 67.8486 36.9702 67.8548 35.9361C67.8486 35.062 68.0856 34.3049 68.5657 33.6648C69.052 33.0185 69.726 32.5199 70.5877 32.169C71.4556 31.812 72.4559 31.6335 73.5885 31.6335C75.2504 31.6335 76.5584 31.9875 77.5125 32.6953C78.4727 33.4032 79.0667 34.3603 79.2944 35.5668ZM85.6561 46.2862C84.7574 46.2862 83.948 46.1262 83.2278 45.8061C82.5138 45.4799 81.9475 44.9998 81.529 44.3658C81.1166 43.7318 80.9104 42.95 80.9104 42.0206C80.9104 41.2204 81.0581 40.5587 81.3535 40.0355C81.649 39.5123 82.0522 39.0938 82.5631 38.7798C83.074 38.4659 83.6495 38.2289 84.2896 38.0689C84.9359 37.9027 85.6038 37.7827 86.2932 37.7088C87.1241 37.6226 87.7982 37.5457 88.3152 37.478C88.8322 37.4041 89.2077 37.2933 89.4416 37.1456C89.6817 36.9917 89.8017 36.7547 89.8017 36.4347V36.3793C89.8017 35.6837 89.5955 35.1451 89.1831 34.7635C88.7707 34.3819 88.1767 34.1911 87.4011 34.1911C86.5825 34.1911 85.9331 34.3696 85.453 34.7266C84.979 35.0836 84.6589 35.5052 84.4928 35.9915L81.372 35.5483C81.6182 34.6866 82.0245 33.9664 82.5908 33.3878C83.1571 32.803 83.8495 32.366 84.6682 32.0767C85.4868 31.7812 86.3917 31.6335 87.3827 31.6335C88.0659 31.6335 88.7461 31.7135 89.4232 31.8736C90.1002 32.0336 90.7188 32.2983 91.279 32.6676C91.8391 33.0308 92.2884 33.5263 92.627 34.1541C92.9717 34.782 93.144 35.5668 93.144 36.5085V46H89.931V44.0518H89.8202C89.617 44.4458 89.3308 44.8151 88.9615 45.1598C88.5983 45.4983 88.1398 45.7723 87.5858 45.9815C87.038 46.1847 86.3947 46.2862 85.6561 46.2862ZM86.524 43.8303C87.1949 43.8303 87.7766 43.6979 88.269 43.4332C88.7615 43.1624 89.14 42.8054 89.4047 42.3622C89.6755 41.919 89.8109 41.4358 89.8109 40.9126V39.2415C89.7063 39.3277 89.5278 39.4077 89.2754 39.4815C89.0292 39.5554 88.7522 39.62 88.4445 39.6754C88.1367 39.7308 87.832 39.7801 87.5304 39.8232C87.2288 39.8662 86.9672 39.9032 86.7456 39.9339C86.247 40.0017 85.8008 40.1125 85.4068 40.2663C85.0129 40.4202 84.702 40.6357 84.4743 40.9126C84.2465 41.1835 84.1327 41.5343 84.1327 41.9652C84.1327 42.5807 84.3573 43.0455 84.8067 43.3594C85.256 43.6733 85.8285 43.8303 86.524 43.8303ZM95.7248 46V31.8182H99.0672V46H95.7248ZM97.4052 29.8054C96.8759 29.8054 96.4204 29.63 96.0387 29.2791C95.6571 28.9221 95.4663 28.4943 95.4663 27.9957C95.4663 27.491 95.6571 27.0632 96.0387 26.7124C96.4204 26.3553 96.8759 26.1768 97.4052 26.1768C97.9407 26.1768 98.3962 26.3553 98.7717 26.7124C99.1533 27.0632 99.3441 27.491 99.3441 27.9957C99.3441 28.4943 99.1533 28.9221 98.7717 29.2791C98.3962 29.63 97.9407 29.8054 97.4052 29.8054Z" fill="#005804"/>
<path d="M139 37.5C139 47.165 135 55 122 54.5C113.163 54.5 105.5 48.165 105.5 38.5C105.5 28.835 113.163 17 122 17C135 17 139 27.835 139 37.5Z" fill="#005804"/>
<path d="M120.099 48.8103L108.968 36.0289C109.032 35.1914 108.995 34.0251 109.5 34C110.005 33.9749 115.262 36.0406 119.5 38.5C123.148 33.3127 126 28 137.5 16.5C135.5 21 124.741 42.4055 120.099 48.8103Z" fill="white"/>
<defs>
<linearGradient id="paint0_linear_77_2" x1="17.3359" y1="21.8772" x2="35.889" y2="83.4787" gradientUnits="userSpaceOnUse">
<stop stop-color="white"/>
<stop offset="1" stop-color="#FFFBF4"/>
</linearGradient>
<linearGradient id="paint1_linear_77_2" x1="21.3549" y1="23" x2="35.5231" y2="74.7593" gradientUnits="userSpaceOnUse">
<stop stop-color="#44FF57"/>
<stop offset="1" stop-color="#00C814"/>
</linearGradient>
<linearGradient id="paint2_linear_77_2" x1="111" y1="55" x2="53.2967" y2="3.95081" gradientUnits="userSpaceOnUse">
<stop stop-color="#5CFE80"/>
<stop offset="1" stop-color="#02FE1B"/>
</linearGradient>
<linearGradient id="paint3_linear_77_2" x1="111" y1="55" x2="53.2967" y2="3.95081" gradientUnits="userSpaceOnUse">
<stop stop-color="#5CFE6C"/>
<stop offset="1" stop-color="#02FE1B"/>
</linearGradient>
<linearGradient id="paint4_linear_77_2" x1="40.7256" y1="18.2138" x2="37.2962" y2="33.1489" gradientUnits="userSpaceOnUse">
<stop stop-color="white"/>
<stop offset="1" stop-color="white" stop-opacity="0"/>
</linearGradient>
<linearGradient id="paint5_linear_77_2" x1="127.532" y1="45.2138" x2="124.103" y2="60.1489" gradientUnits="userSpaceOnUse">
<stop stop-color="white"/>
<stop offset="1" stop-color="white" stop-opacity="0"/>
</linearGradient>
</defs>
</svg>
