<svg width="62" height="50" viewBox="0 0 62 50" fill="none" xmlns="http://www.w3.org/2000/svg">
<path d="M25.4999 1C36.4999 0.5 45.9999 0.5 53.4999 5C59.9999 9 60.5 15.5 61 25.5C61.5 35.5 61 40 58 44C55 48 43 50 26 49.5C12.4 49.1 4 44.6667 1.5 42.5C1.49998 40.8333 1.29994 35.2 0.499941 26C-0.500059 14.5 1.99994 11.5 4.49994 6C6.99994 0.5 14.4999 1.5 25.4999 1Z" fill="url(#paint0_linear_35_11)"/>
<rect x="20" y="12" width="23" height="5" rx="2" fill="#F76000"/>
<rect x="20" y="22" width="21" height="4" rx="1" fill="#F76000"/>
<rect x="20" y="30" width="21" height="4" rx="1" fill="#F76000"/>
<ellipse cx="11.5172" cy="10.4469" rx="4.86445" ry="7" transform="rotate(27.0711 11.5172 10.4469)" fill="url(#paint1_linear_35_11)"/>
<path d="M54.8487 39.6608C53.0893 43.1032 49.7238 44.9027 47.3315 43.6801C44.9393 42.4574 49.2406 42.4424 51 39C52.7594 35.5576 51.6078 34.0105 54.0001 35.2332C56.3923 36.4558 56.6081 36.2183 54.8487 39.6608Z" fill="url(#paint2_linear_35_11)"/>
<defs>
<linearGradient id="paint0_linear_35_11" x1="6" y1="9" x2="30.7215" y2="49.5755" gradientUnits="userSpaceOnUse">
<stop stop-color="#FEDB5C"/>
<stop offset="1" stop-color="#FE9F02"/>
</linearGradient>
<linearGradient id="paint1_linear_35_11" x1="11.5172" y1="3.44689" x2="11.5172" y2="17.4469" gradientUnits="userSpaceOnUse">
<stop stop-color="white"/>
<stop offset="1" stop-color="white" stop-opacity="0"/>
</linearGradient>
<linearGradient id="paint2_linear_35_11" x1="53.7028" y1="31.2138" x2="47.3315" y2="43.68" gradientUnits="userSpaceOnUse">
<stop stop-color="white"/>
<stop offset="1" stop-color="white" stop-opacity="0"/>
</linearGradient>
</defs>
</svg>
