<svg width="155" height="73" viewBox="0 0 155 73" fill="none" xmlns="http://www.w3.org/2000/svg">
<path d="M62.4954 2.55514C89.368 1.95132 120.454 -2.8792 138.776 2.55511C154.655 7.38562 152.779 29.7266 154 41.8029C155.221 53.8792 150.495 64.1441 143.166 68.9746C135.837 73.8051 106.221 73.2013 64.6904 72.5975C31.4661 72.1144 10.4319 66.7605 4.32446 64.144C-1.53516 58.7098 2.43743 52.9131 0.483062 41.8029C-1.9599 27.9152 5.35123 17.6505 11.4586 11.0085C17.566 4.36659 35.6228 3.15895 62.4954 2.55514Z" fill="url(#paint0_linear_36_23)"/>
<path d="M62.5001 6.99999C86.984 6.49999 115.307 2.49997 132 6.99997C146.468 11 142.661 29.4999 143.774 39.4999C144.887 49.4999 142.677 58 136 62C129.323 66 102.339 65.5 64.5 65C34.229 64.6 15.0645 60.1666 9.5 57.9999C4.16124 53.5 7.7807 48.6999 6.00006 39.4999C3.77425 27.9999 10.4355 19.5 16 14C21.5645 8.5 38.0163 7.49999 62.5001 6.99999Z" fill="url(#paint1_linear_36_23)"/>
<g opacity="0.64">
<path d="M35.9999 35C60.4838 34.5 47.8063 46.5 64.4999 51C78.9676 55 99.887 47.9999 101 57.9999C102.113 67.9999 142.677 58 136 62C131.226 64.8595 116.075 65.4193 93.9999 65.3234C96.5411 59.7468 83.9039 63.8388 62.5 57C55.1962 54.6664 55.8043 45.4347 48 41C40.9012 36.9662 23.3652 38.3609 18.5 33.5C13.5467 28.5511 12.328 22.8984 12.328 18C13.5357 16.5257 14.7936 15.1923 15.9999 14C21.5644 8.5 11.516 35.5 35.9999 35Z" fill="url(#paint2_linear_36_23)"/>
<path d="M35.9999 35C60.4838 34.5 47.8063 46.5 64.4999 51C78.9676 55 99.887 47.9999 101 57.9999C102.113 67.9999 142.677 58 136 62C131.226 64.8595 116.075 65.4193 93.9999 65.3234C96.5411 59.7468 83.9039 63.8388 62.5 57C55.1962 54.6664 55.8043 45.4347 48 41C40.9012 36.9662 23.3652 38.3609 18.5 33.5C13.5467 28.5511 12.328 22.8984 12.328 18C13.5357 16.5257 14.7936 15.1923 15.9999 14C21.5644 8.5 11.516 35.5 35.9999 35Z" fill="url(#paint3_linear_36_23)"/>
</g>
<path d="M26.5443 30.68C31.869 31.9026 39.3601 30.1031 43.2761 26.6607C47.1922 23.2182 46.0503 19.4364 40.7257 18.2138C35.4011 16.9911 27.91 18.7907 23.9939 22.2331C20.0778 25.6755 21.2197 29.4573 26.5443 30.68Z" fill="url(#paint4_linear_36_23)"/>
<path d="M130.083 53.6608C126.166 57.1032 118.675 58.9027 113.351 57.6801C108.026 56.4574 117.6 56.4424 121.516 53C125.432 49.5576 122.869 48.0105 128.194 49.2332C133.518 50.4558 133.999 50.2183 130.083 53.6608Z" fill="url(#paint5_linear_36_23)"/>
<path d="M17.2955 24.7273H22.4545L29.3636 41.5909H29.6364L36.5455 24.7273H41.7045V48H37.6591V32.0114H37.4432L31.0114 47.9318H27.9886L21.5568 31.9773H21.3409V48H17.2955V24.7273ZM49.2841 48H44.7841L52.9773 24.7273H58.1818L66.3864 48H61.8864L55.6705 29.5H55.4886L49.2841 48ZM49.4318 38.875H61.7045V42.2614H49.4318V38.875ZM65.6165 28.2614V24.7273H84.1847V28.2614H76.9915V48H72.8097V28.2614H65.6165ZM87.7642 48V24.7273H102.901V28.2614H91.9801V34.5795H102.116V38.1136H91.9801V44.4659H102.991V48H87.7642ZM107.202 48V24.7273H115.929C117.717 24.7273 119.217 25.0379 120.429 25.6591C121.649 26.2803 122.569 27.1515 123.19 28.2727C123.819 29.3864 124.134 30.6856 124.134 32.1705C124.134 33.6629 123.815 34.9583 123.179 36.0568C122.55 37.1477 121.622 37.9924 120.395 38.5909C119.168 39.1818 117.66 39.4773 115.872 39.4773H109.656V35.9773H115.304C116.349 35.9773 117.205 35.8333 117.872 35.5455C118.539 35.25 119.031 34.822 119.349 34.2614C119.675 33.6932 119.838 32.9962 119.838 32.1705C119.838 31.3447 119.675 30.6402 119.349 30.0568C119.024 29.4659 118.527 29.0189 117.861 28.7159C117.194 28.4053 116.334 28.25 115.281 28.25H111.418V48H107.202ZM119.224 37.4545L124.986 48H120.281L114.622 37.4545H119.224ZM132.23 24.7273V48H128.014V24.7273H132.23Z" fill="#EF5C00"/>
<defs>
<linearGradient id="paint0_linear_36_23" x1="17.3359" y1="21.8772" x2="35.889" y2="83.4787" gradientUnits="userSpaceOnUse">
<stop stop-color="white"/>
<stop offset="1" stop-color="#FFFBF4"/>
</linearGradient>
<linearGradient id="paint1_linear_36_23" x1="21.3548" y1="23" x2="35.5229" y2="74.7593" gradientUnits="userSpaceOnUse">
<stop stop-color="#FEDB5C"/>
<stop offset="1" stop-color="#FE9F02"/>
</linearGradient>
<linearGradient id="paint2_linear_36_23" x1="111" y1="55" x2="53.2965" y2="3.95081" gradientUnits="userSpaceOnUse">
<stop stop-color="#FEDB5C"/>
<stop offset="1" stop-color="#FE9F02"/>
</linearGradient>
<linearGradient id="paint3_linear_36_23" x1="111" y1="55" x2="53.2965" y2="3.95081" gradientUnits="userSpaceOnUse">
<stop stop-color="#FEDB5C"/>
<stop offset="1" stop-color="#FE9F02"/>
</linearGradient>
<linearGradient id="paint4_linear_36_23" x1="40.7257" y1="18.2138" x2="37.2963" y2="33.1489" gradientUnits="userSpaceOnUse">
<stop stop-color="white"/>
<stop offset="1" stop-color="white" stop-opacity="0"/>
</linearGradient>
<linearGradient id="paint5_linear_36_23" x1="127.532" y1="45.2138" x2="124.103" y2="60.1489" gradientUnits="userSpaceOnUse">
<stop stop-color="white"/>
<stop offset="1" stop-color="white" stop-opacity="0"/>
</linearGradient>
</defs>
</svg>
