<?xml version="1.0" encoding="UTF-8" standalone="no"?>
<!-- Created with Inkscape (http://www.inkscape.org/) -->

<svg
   width="31.79978mm"
   height="31.799742mm"
   viewBox="0 0 31.79978 31.799742"
   version="1.1"
   id="svg62669"
   inkscape:version="1.2.2 (b0a8486541, 2022-12-01)"
   sodipodi:docname="img_planet_bumi.svg"
   xmlns:inkscape="http://www.inkscape.org/namespaces/inkscape"
   xmlns:sodipodi="http://sodipodi.sourceforge.net/DTD/sodipodi-0.dtd"
   xmlns="http://www.w3.org/2000/svg"
   xmlns:svg="http://www.w3.org/2000/svg">
  <sodipodi:namedview
     id="namedview62671"
     pagecolor="#ffffff"
     bordercolor="#000000"
     borderopacity="0.25"
     inkscape:showpageshadow="2"
     inkscape:pageopacity="0.0"
     inkscape:pagecheckerboard="0"
     inkscape:deskcolor="#d1d1d1"
     inkscape:document-units="mm"
     showgrid="false"
     inkscape:zoom="2.36853"
     inkscape:cx="60.797205"
     inkscape:cy="49.397729"
     inkscape:window-width="1366"
     inkscape:window-height="707"
     inkscape:window-x="0"
     inkscape:window-y="0"
     inkscape:window-maximized="1"
     inkscape:current-layer="layer1" />
  <defs
     id="defs62666">
    <clipPath
       clipPathUnits="userSpaceOnUse"
       id="clipPath1588">
      <path
         d="m 4391.66,2079.3 c 0,0.22 0,0.45 0,0.68 0,-0.23 0,-0.45 0,-0.68 m 0,1.1 c 0,0.02 0,0.03 0,0.05 0,0.08 0,0.15 0,0.22 0,-0.08 0,-0.18 0,-0.27 m 0,0.57 c 0,0.04 0,0.1 0,0.15 0,0.04 0,0.1 0,0.14 0,-0.1 0,-0.2 0,-0.29 m -0.01,0.7 c 0,0.12 0,0.26 0,0.38 0,-0.13 0,-0.25 0,-0.38 m 0,0.72 c 0,0.01 0,0 0,0.01 0,0.1 0,0.21 0,0.32 0,-0.11 0,-0.22 0,-0.33 m -0.01,0.69 c 0,0.03 0,0.04 0,0.07 0,0.02 0,0.05 0,0.07 0,-0.05 0,-0.09 0,-0.14 m 0,0.7 c 0,0.09 0,0.16 0,0.25 0,-0.08 0,-0.17 0,-0.25 m -0.01,0.68 c 0,0.03 0,0.06 0,0.09 0,-0.03 0,-0.06 0,-0.09 m -0.02,1.91 c 0,0.02 0,0.03 0,0.04 0,-0.01 0,-0.03 0,-0.04 m -0.01,0.61 c 0,0.03 0,0.07 -0.01,0.1 0.01,-0.04 0.01,-0.06 0.01,-0.1 m -0.02,0.69 c 0,0.02 0,0.03 0,0.04 0,-0.01 0,-0.02 0,-0.04"
         id="path1586" />
    </clipPath>
    <radialGradient
       fx="0"
       fy="0"
       cx="0"
       cy="0"
       r="1"
       gradientUnits="userSpaceOnUse"
       gradientTransform="matrix(3186.89,0,0,-3186.89,3750,2500)"
       spreadMethod="pad"
       id="radialGradient1594">
      <stop
         style="stop-opacity:1;stop-color:#292854"
         offset="0"
         id="stop1590" />
      <stop
         style="stop-opacity:1;stop-color:#1a1728"
         offset="1"
         id="stop1592" />
    </radialGradient>
  </defs>
  <g
     inkscape:label="Layer 1"
     inkscape:groupmode="layer"
     id="layer1"
     transform="translate(-156.6129,-44.763959)">
    <path
       d="m 188.41264,60.663653 c 0,8.781345 -7.11871,15.900047 -15.8997,15.900047 -8.78134,0 -15.90004,-7.118702 -15.90004,-15.900047 0,-8.780991 7.1187,-15.899694 15.90004,-15.899694 8.78099,0 15.8997,7.118703 15.8997,15.899694"
       style="fill:#12b0b1;fill-opacity:1;fill-rule:nonzero;stroke:none;stroke-width:0.0352778"
       id="path1574" />
    <path
       d="m 180.18868,46.738809 c -0.11324,0.143228 -0.18239,0.313267 -0.16827,0.503061 -0.50906,-0.290689 -1.24707,-0.04092 -1.47497,0.499534 -0.12559,0.297744 -0.10618,0.634294 -0.15734,0.953558 -0.0512,0.319617 -0.21484,0.664633 -0.52705,0.750711 -0.37112,0.102306 -0.67698,-0.131939 -0.99977,-0.366183 -0.30057,-0.218017 -0.61595,-0.436034 -1.01247,-0.382764 -0.63923,0.08643 -1.26788,0.45473 -1.62878,0.994833 -0.28751,0.431095 -0.37923,1.404056 0.40358,1.386417 0.40817,-0.0092 0.74472,-0.452967 1.14406,-0.3683 0.6096,0.128764 0.45297,0.617008 0.10477,0.95885 -0.55421,0.545041 -1.18427,0.42298 -1.84926,0.623711 -0.52599,0.15875 -0.79269,0.734836 -1.31762,0.883003 -0.16087,0.04516 -0.38382,0.08996 -0.38206,0.256469 7.1e-4,0.105481 0.10301,0.176742 0.16369,0.262819 0.15169,0.213078 0.0339,0.528109 -0.17286,0.688975 -0.20638,0.160867 -0.47378,0.213078 -0.72496,0.286809 -0.25083,0.07373 -0.51364,0.188383 -0.64135,0.416983 -0.14005,0.251178 -0.0564,0.602897 0.18203,0.763764 0.42686,0.288572 1.23825,-0.227894 1.5554,-0.5207 0.29669,-0.274461 0.59337,-0.549275 0.89006,-0.823383 0.25929,-0.239889 0.5976,-0.49777 0.92992,-0.378531 0.14605,0.05221 0.25753,0.170039 0.36301,0.284339 0.4512,0.487539 0.9024,0.975078 1.35361,1.462969 0.25294,-0.365125 -0.0342,-0.8509 -0.31221,-1.19768 0.16933,-0.211314 0.53093,-0.135467 0.70802,0.06985 0.17675,0.204964 0.22755,0.486128 0.30092,0.74683 0.0734,0.260703 0.19791,0.537281 0.44591,0.646642 0.24801,0.109714 0.61313,-0.08714 0.55598,-0.351719 -0.0476,-0.219781 -0.33443,-0.328789 -0.37006,-0.550686 -0.0441,-0.270581 0.34431,-0.432506 0.58984,-0.310798 0.24554,0.122414 0.37571,0.389114 0.52494,0.619478 0.14922,0.230717 0.381,0.458964 0.65334,0.424745 0.28258,-0.03598 0.53834,-0.348898 0.79622,-0.227189 0.0706,0.03387 0.12347,0.09631 0.16404,0.163689 0.1838,0.301977 0.13018,0.727427 -0.12241,0.974725 -0.28716,0.281163 -0.4759,0.455788 -0.51929,0.607836 -0.0536,-0.02963 -0.10478,-0.06315 -0.16298,-0.08678 -0.62442,-0.257175 -1.33033,-0.07549 -1.99778,0.02822 -0.66781,0.103363 -1.45451,0.07937 -1.88207,-0.443795 -0.23248,-0.284339 -0.32773,-0.687917 -0.63395,-0.891469 -0.36971,-0.245534 -0.86289,-0.08925 -1.27529,0.07549 -0.83749,0.335139 -1.68275,0.684389 -2.39889,1.233311 -1.59385,1.222728 -2.34879,3.440642 -1.83127,5.381625 0.33091,1.241072 1.34021,2.445103 2.62467,2.428169 0.57326,-0.0078 1.11619,-0.255411 1.68451,-0.330552 0.56868,-0.0755 1.25484,0.100894 1.4605,0.636411 0.1517,0.394758 -0.007,0.8636 0.16969,1.247775 0.16122,0.350308 0.56515,0.544689 0.71438,0.900289 0.33161,0.792338 -0.80257,1.595613 -0.58138,2.425347 0.0744,0.278694 0.2921,0.496005 0.40393,0.761647 0.2727,0.648758 -0.12277,1.467908 0.24412,2.067983 0.43709,0.71367 1.58186,0.50165 2.17946,-0.08361 0.59796,-0.585258 0.91934,-1.412875 1.53882,-1.975203 0.45226,-0.410633 1.04598,-0.663222 1.42487,-1.142294 0.58737,-0.743656 0.49953,-1.811514 0.86854,-2.684286 0.58702,-1.389592 2.24472,-2.113492 2.77953,-3.52425 0.19932,-0.525639 0.0924,-1.2954 -0.45896,-1.404761 -0.1143,-0.02293 -0.2353,-0.01341 -0.35807,0.006 -0.27058,0.1397 -0.61771,0.149578 -0.91017,0.04269 -0.41557,-0.1524 -0.73766,-0.484364 -1.01917,-0.825853 -0.47131,-0.5715 -0.87348,-1.199797 -1.19592,-1.866547 -0.20602,-0.426155 -0.40499,-0.890411 -0.66922,-1.2827 0.59055,0.395817 0.97755,0.9652 1.39065,1.548695 0.39194,0.553155 0.84138,1.065388 1.33879,1.526469 0.14746,0.136525 0.31292,0.275167 0.51294,0.297039 0.40429,0.04339 0.68157,-0.383822 0.85725,-0.750006 0.15346,-0.319616 0.30621,-0.638527 0.45932,-0.957791 0.16827,-0.349603 0.31574,-0.820561 0.0279,-1.080911 -0.10901,-0.09842 -0.26212,-0.140406 -0.36477,-0.245534 -0.21943,-0.224719 -0.0825,-0.642408 0.19649,-0.786341 0.2794,-0.144639 0.62301,-0.07832 0.90805,0.05398 0.73308,0.34043 1.24108,1.117952 1.25907,1.925813 0.009,0.394406 -0.09,0.791634 -0.0279,1.181453 0.0621,0.38982 0.36936,0.791281 0.7627,0.75812 0.14217,-0.01199 0.27446,-0.07937 0.39159,-0.160161 0.12841,-0.08925 0.2353,-0.196498 0.33231,-0.310445 0.005,-0.173214 0.0131,-0.346428 0.0131,-0.521053 0,-5.997222 -3.32141,-11.216922 -8.22396,-13.924844"
       style="fill:#f0e31d;fill-opacity:1;fill-rule:nonzero;stroke:none;stroke-width:0.0352778"
       id="path1576" />
    <path
       d="m 166.70058,68.41912 c -0.51118,-0.513997 -1.02235,-1.027995 -1.53388,-1.542345 -0.14499,-0.145697 -0.29986,-0.297391 -0.49883,-0.349602 -0.12488,-0.03246 -0.26106,-0.02434 -0.39546,-0.01623 -0.20109,0.01235 -0.39758,0.02469 -0.54575,-0.100189 -0.084,-0.07056 -0.133,-0.173567 -0.18486,-0.270581 -0.1972,-0.367947 -0.53304,-0.608894 -0.74577,-0.947561 -0.20461,-0.325261 -0.24588,-0.765175 -0.33584,-1.130652 -0.23601,-0.958145 -1.18816,-1.687689 -2.17453,-1.666875 -0.19261,0.0039 -0.39299,0.03704 -0.54786,0.151341 -0.39194,0.289631 -0.28716,0.917222 -0.012,1.319036 0.33549,0.490009 0.72354,0.811742 -0.079,1.093259 -0.4265,0.149577 -0.889,0.0092 -1.20614,-0.301625 -0.12983,-0.127 -0.27517,-0.254353 -0.43251,-0.367595 -0.3175,-0.229658 -0.68333,-0.398639 -1.06645,-0.396169 0.83715,4.055533 3.21981,7.5438 6.50382,9.828388 0.0861,-0.01764 0.1718,-0.0388 0.25929,-0.05115 0.58702,-0.08185 1.17792,-0.02399 1.77024,0.03422 0.39546,0.03881 0.79128,0.07761 1.18709,0.07479 1.85456,-0.01305 3.2766,-1.462969 2.14736,-3.259314 -0.54257,-0.862189 -1.40511,-1.393472 -2.1089,-2.101144"
       style="fill:#f0e31d;fill-opacity:1;fill-rule:nonzero;stroke:none;stroke-width:0.0352778"
       id="path1578" />
    <path
       d="m 156.90182,57.652342 c 0.59725,0.781756 2.20133,-1.493661 2.55905,-1.910644 0.23142,-0.269522 0.46849,-0.543983 0.77153,-0.729545 0.70343,-0.431447 1.76565,-0.411338 2.11737,-1.157816 0.11888,-0.251531 0.12523,-0.551039 0.27552,-0.785284 0.15028,-0.234244 0.56374,-0.32773 0.67768,-0.07373 0.0995,0.221544 -0.1277,0.476955 -0.0638,0.7112 0.0635,0.232833 0.39229,0.296333 0.60254,0.177094 0.20955,-0.119944 0.32527,-0.351366 0.42933,-0.56903 -0.28963,-0.174978 -0.24518,-0.620183 -0.067,-0.907697 0.17815,-0.287514 0.45261,-0.524581 0.54257,-0.850548 0.0603,-0.218722 0.0293,-0.452966 0.0716,-0.675922 0.0452,-0.236714 0.17145,-0.452614 0.21202,-0.690033 0.0406,-0.237772 -0.0452,-0.530931 -0.27552,-0.600428 -0.14358,-0.04304 -0.29562,0.01305 -0.43497,0.06809 -0.60043,0.238831 -1.20086,0.477661 -1.80128,0.715786 0.22718,-0.830086 1.08655,-1.43898 1.94521,-1.377597 0.33973,0.02399 0.67628,0.140758 1.01388,0.09525 0.74507,-0.100542 1.17546,-0.916517 1.86408,-1.218141 0.2286,-0.09984 0.57115,-0.09066 0.64382,0.147813 0.0205,0.06773 0.013,0.140759 -0.003,0.20955 -0.0864,0.380648 -0.39758,0.663575 -0.69885,0.912284 -0.30092,0.248355 -0.62336,0.509058 -0.74966,0.878416 -0.12594,0.369359 0.0547,0.870656 0.44098,0.924631 0.38876,0.05433 0.67415,-0.331258 0.94509,-0.614892 0.3877,-0.405341 0.91969,-0.670278 1.47673,-0.735541 0.26423,-0.03069 0.53516,-0.01835 0.79163,-0.08961 0.77682,-0.2159 1.14476,-1.081264 1.40794,-1.843264 0.0385,-0.112536 0.078,-0.230364 0.0607,-0.347839 -0.0483,-0.322086 -0.45191,-0.428625 -0.7754,-0.46355 -1.41958,-0.152047 -2.92771,-0.28963 -4.20899,0.340078 -0.53764,0.264231 -1.14759,0.664986 -1.67923,0.388056 -0.13405,-0.0695 -0.24588,-0.1778 -0.38382,-0.239889 -0.26317,-0.118534 -0.57044,-0.04798 -0.84278,0.04833 h -10e-4 c -3.50837,2.316692 -6.04308,5.984875 -6.86364,10.264422"
       style="fill:#f0e31d;fill-opacity:1;fill-rule:nonzero;stroke:none;stroke-width:0.0352778"
       id="path1580" />
    <g
       id="g1582"
       transform="matrix(0.03527778,0,0,-0.03527778,33.484632,134.01674)">
      <g
         id="g1584"
         clip-path="url(#clipPath1588)">
        <path
           d="m 4391.66,2079.3 c 0,0.22 0,0.45 0,0.68 0,-0.23 0,-0.45 0,-0.68 m 0,1.1 c 0,0.02 0,0.03 0,0.05 0,0.08 0,0.15 0,0.22 0,-0.08 0,-0.18 0,-0.27 m 0,0.57 c 0,0.04 0,0.1 0,0.15 0,0.04 0,0.1 0,0.14 0,-0.1 0,-0.2 0,-0.29 m -0.01,0.7 c 0,0.12 0,0.26 0,0.38 0,-0.13 0,-0.25 0,-0.38 m 0,0.72 c 0,0.01 0,0 0,0.01 0,0.1 0,0.21 0,0.32 0,-0.11 0,-0.22 0,-0.33 m -0.01,0.69 c 0,0.03 0,0.04 0,0.07 0,0.02 0,0.05 0,0.07 0,-0.05 0,-0.09 0,-0.14 m 0,0.7 c 0,0.09 0,0.16 0,0.25 0,-0.08 0,-0.17 0,-0.25 m -0.01,0.68 c 0,0.03 0,0.06 0,0.09 0,-0.03 0,-0.06 0,-0.09 m -0.02,1.91 c 0,0.02 0,0.03 0,0.04 0,-0.01 0,-0.03 0,-0.04 m -0.01,0.61 c 0,0.03 0,0.07 -0.01,0.1 0.01,-0.04 0.01,-0.06 0.01,-0.1 m -0.02,0.69 c 0,0.02 0,0.03 0,0.04 0,-0.01 0,-0.02 0,-0.04"
           style="fill:url(#radialGradient1594);fill-opacity:1;fill-rule:nonzero;stroke:none"
           id="path1596" />
      </g>
    </g>
    <path
       d="m 172.51294,76.5637 c -0.008,0 -0.0162,0 -0.024,0 0.008,0 0.0159,0 0.024,0 2.29659,0 4.47957,-0.487186 6.4509,-1.363486 v 0 c -1.97133,0.8763 -4.15431,1.363486 -6.4509,1.363486 m -0.0328,0 c -0.005,-3.53e-4 -0.0106,-3.53e-4 -0.0155,-3.53e-4 0.005,0 0.0102,0 0.0155,3.53e-4 m -0.025,-3.53e-4 c -0.005,0 -0.01,0 -0.0145,0 0.005,0 0.01,0 0.0145,0 m -0.0244,0 c -0.005,0 -0.009,0 -0.0145,0 0.005,0 0.01,0 0.0145,0 m -0.0247,0 c -0.005,-3.52e-4 -0.009,-3.52e-4 -0.0145,-3.52e-4 0.005,0 0.01,0 0.0145,3.52e-4 m -0.0236,-3.52e-4 c -0.006,0 -0.013,0 -0.019,0 0.006,0 0.0123,0 0.019,0 m -0.0257,-3.53e-4 c -0.007,0 -0.0145,0 -0.0219,0 0.007,0 0.0145,0 0.0219,0 m -0.0321,-3.53e-4 c -0.005,0 -0.008,0 -0.013,0 0.004,0 0.009,0 0.013,0 m -0.025,0 c -0.004,-3.53e-4 -0.008,-3.53e-4 -0.0123,-3.53e-4 0.004,0 0.008,0 0.0123,3.53e-4 m -0.0236,-3.53e-4 c -0.004,-3.52e-4 -0.009,-3.52e-4 -0.0131,-3.52e-4 0.004,0 0.009,0 0.0131,3.52e-4 m -0.024,-3.52e-4 c -0.005,-3.53e-4 -0.009,-3.53e-4 -0.0134,-3.53e-4 0.005,0 0.009,0 0.0134,3.53e-4 m -0.0243,-7.06e-4 c -0.004,0 -0.008,0 -0.0123,0 0.004,0 0.008,0 0.0123,0 m -0.0335,-3.53e-4 c -0.004,-3.53e-4 -0.008,-3.53e-4 -0.0127,-3.53e-4 0.004,0 0.008,0 0.0127,3.53e-4 m -0.0247,-7.05e-4 c -0.004,0 -0.008,0 -0.012,0 0.005,0 0.008,0 0.012,0 m -0.025,-3.53e-4 c -0.004,-3.53e-4 -0.006,-3.53e-4 -0.01,-3.53e-4 0.003,0 0.007,3.53e-4 0.01,3.53e-4 m -0.024,-7.06e-4 c -0.003,0 -0.006,0 -0.009,-3.52e-4 0.002,3.52e-4 0.006,3.52e-4 0.009,3.52e-4 m -0.0243,-7.05e-4 c -0.002,0 -0.005,0 -0.007,0 0.002,0 0.005,0 0.007,0 m -0.0229,-3.53e-4 c -0.002,0 -0.004,-3.53e-4 -0.006,-3.53e-4 0.002,0 0.004,3.53e-4 0.006,3.53e-4 m -0.0653,-0.0021 c -3.5e-4,0 -0.001,0 -0.002,0 3.5e-4,0 10e-4,0 0.002,0 m -0.0201,-7.05e-4 c -0.001,0 -0.004,0 -0.005,0 0.002,0 0.004,0 0.005,0 m -0.0229,-7.06e-4 c -0.002,0 -0.003,0 -0.005,0 0.001,0 0.003,0 0.005,0 m -0.0236,-7.05e-4 c -7.1e-4,0 -0.001,0 -0.002,0 0.001,0 0.001,0 0.002,0"
       style="fill:#8ac2c1;fill-opacity:1;fill-rule:nonzero;stroke:none;stroke-width:0.0352778"
       id="path1598" />
    <path
       d="m 172.51294,76.5637 c -0.008,0 -0.0159,0 -0.024,0 -0.003,0 -0.005,0 -0.009,0 -0.005,-3.53e-4 -0.0102,-3.53e-4 -0.0155,-3.53e-4 -0.003,0 -0.006,0 -0.01,0 -0.005,0 -0.01,0 -0.0145,0 -0.003,0 -0.007,0 -0.01,0 -0.005,0 -0.01,0 -0.0145,0 -0.003,0 -0.007,0 -0.0102,0 -0.005,-3.52e-4 -0.01,-3.52e-4 -0.0145,-3.52e-4 -0.003,0 -0.006,0 -0.009,0 -0.007,0 -0.0127,0 -0.019,0 -0.002,0 -0.004,0 -0.007,-3.53e-4 -0.007,0 -0.0145,0 -0.0219,0 -0.003,0 -0.007,0 -0.0102,-3.53e-4 -0.004,0 -0.009,0 -0.013,0 -0.004,0 -0.008,0 -0.012,0 -0.004,-3.53e-4 -0.008,-3.53e-4 -0.0123,-3.53e-4 -0.004,0 -0.008,0 -0.0113,0 -0.004,-3.52e-4 -0.009,-3.52e-4 -0.0131,-3.52e-4 -0.004,0 -0.007,0 -0.0109,0 -0.004,-3.53e-4 -0.009,-3.53e-4 -0.0134,-3.53e-4 -0.004,0 -0.007,0 -0.0109,-3.53e-4 -0.004,0 -0.008,0 -0.0123,0 -0.007,-3.53e-4 -0.0145,-3.53e-4 -0.0212,-3.53e-4 -0.004,-3.53e-4 -0.008,-3.53e-4 -0.0127,-3.53e-4 -0.004,0 -0.008,0 -0.012,-3.52e-4 -0.004,0 -0.007,0 -0.012,0 -0.004,-3.53e-4 -0.009,-3.53e-4 -0.013,-3.53e-4 -0.003,0 -0.007,-3.53e-4 -0.01,-3.53e-4 -0.005,0 -0.01,-3.53e-4 -0.0141,-3.53e-4 -0.003,0 -0.006,0 -0.009,-3.52e-4 -0.006,0 -0.01,0 -0.0155,-3.53e-4 -0.002,0 -0.005,0 -0.007,0 -0.005,0 -0.0113,-3.53e-4 -0.0162,-3.53e-4 -0.002,0 -0.004,-3.53e-4 -0.006,-3.53e-4 -0.0197,-3.53e-4 -0.0395,-0.0011 -0.0593,-0.0018 -3.5e-4,0 -0.001,0 -0.002,0 -0.007,0 -0.012,-3.52e-4 -0.0183,-7.05e-4 -0.002,0 -0.004,0 -0.005,0 -0.006,-3.53e-4 -0.0116,-3.53e-4 -0.0176,-7.06e-4 -0.002,0 -0.003,0 -0.005,0 -0.006,-3.53e-4 -0.013,-3.53e-4 -0.019,-7.05e-4 -0.001,0 -0.001,0 -0.002,0 -4.3307,-0.153811 -8.21901,-2.040467 -10.99467,-4.986867 0.75565,0.801158 1.5942,1.524353 2.5012,2.155119 0.0861,-0.01764 0.1718,-0.0388 0.25929,-0.05115 0.20884,-0.02893 0.41839,-0.04057 0.62829,-0.04057 0.37959,0 0.76059,0.0374 1.14195,0.07479 0.38135,0.03739 0.76376,0.07479 1.14546,0.07479 0.0141,0 0.0279,0 0.0416,0 1.85456,-0.01305 3.2766,-1.462969 2.14736,-3.259314 -0.14429,-0.228953 -0.3108,-0.434622 -0.49107,-0.626533 0.28858,0.01552 0.57891,0.02364 0.87137,0.02364 2.47826,0 4.82388,-0.566914 6.91444,-1.578328 -0.19297,0.575734 -0.73625,1.159228 -0.57679,1.756481 0.0744,0.278694 0.2921,0.496005 0.40393,0.761647 0.2727,0.648758 -0.12277,1.467908 0.24412,2.067983 0.19438,0.317147 0.52811,0.451556 0.89182,0.451556 0.45473,0 0.95568,-0.209903 1.28764,-0.535164 0.59796,-0.585258 0.91934,-1.412875 1.53882,-1.975203 0.45226,-0.410633 1.04598,-0.663222 1.42487,-1.142294 0.58737,-0.743656 0.49953,-1.811514 0.86854,-2.684286 0.58702,-1.389592 2.24472,-2.113492 2.77953,-3.52425 0.19932,-0.525639 0.0924,-1.2954 -0.45896,-1.404761 -0.0473,-0.0095 -0.0956,-0.01341 -0.14464,-0.01341 -0.0699,0 -0.14146,0.0081 -0.21343,0.0194 -0.14958,0.07726 -0.32279,0.115006 -0.49706,0.115006 -0.14076,0 -0.28258,-0.0247 -0.41311,-0.07232 -0.10654,-0.03916 -0.20672,-0.08996 -0.30162,-0.149578 0.11395,-0.195791 0.22401,-0.394758 0.32985,-0.595489 0.0998,0.07267 0.20849,0.128764 0.32984,0.14217 0.0194,0.0018 0.0381,0.0028 0.0568,0.0028 0.37359,0 0.63324,-0.404283 0.80045,-0.752828 0.15346,-0.319616 0.30621,-0.638527 0.45932,-0.957791 0.16827,-0.349603 0.31574,-0.820561 0.0279,-1.080911 -0.10901,-0.09842 -0.26212,-0.140406 -0.36477,-0.245534 -0.0437,-0.0448 -0.0734,-0.09737 -0.0903,-0.153811 0.0483,-0.170744 0.0942,-0.3429 0.13687,-0.516114 0.043,-0.04727 0.0935,-0.08749 0.14993,-0.116416 0.11078,-0.0575 0.23178,-0.08149 0.35525,-0.08149 0.18768,0 0.381,0.05574 0.5528,0.135467 0.73308,0.34043 1.24108,1.117952 1.25907,1.925813 0.009,0.394406 -0.09,0.791634 -0.0279,1.181453 0.0596,0.37465 0.34572,0.759884 0.7172,0.759884 0.0152,0 0.0303,-3.53e-4 0.0455,-0.0018 0.14217,-0.01199 0.27446,-0.07937 0.39159,-0.160161 0.12841,-0.08925 0.2353,-0.196498 0.33231,-0.310445 0.005,-0.173214 0.0131,-0.346428 0.0131,-0.521053 v 0 c 0,6.484761 -3.88197,12.062531 -9.4488,14.536561 -1.97133,0.8763 -4.15431,1.363486 -6.4509,1.363486 m 15.8997,-15.900047 c 0,-0.01023 0,-0.02046 0,-0.03069 0,0.0021 0,0.0046 0,0.0067 0,0.0081 0,0.01623 0,0.02399 v 0 m 0,-0.04057 c 0,-0.0081 0,-0.01552 0,-0.02364 0,0.0018 0,0.0039 0,0.0053 0,0.0035 0,0.0071 0,0.01058 0,0.0025 0,0.0049 0,0.0078 m 0,-0.03316 c -3.6e-4,-0.0092 -3.6e-4,-0.01764 -3.6e-4,-0.02681 0,0.0014 0,0.0025 0,0.0035 0,0.0042 0,0.0092 0,0.01341 0,0.0035 3.6e-4,0.0067 3.6e-4,0.0099 m -3.6e-4,-0.03563 c 0,-0.0088 0,-0.01764 -3.5e-4,-0.02646 0,0.0011 0,0.0014 0,0.0025 3.5e-4,0.0042 3.5e-4,0.0085 3.5e-4,0.0127 0,0.0039 0,0.0078 0,0.01129 m -3.5e-4,-0.03669 c 0,-0.0078 0,-0.01552 0,-0.02328 0,0.0011 0,0.0014 0,0.0025 0,0.0032 0,0.0056 0,0.0088 0,0.0042 0,0.0078 0,0.01199 m -3.5e-4,-0.03281 c 0,-0.0095 0,-0.0187 -3.5e-4,-0.02822 3.5e-4,0.0074 3.5e-4,0.01482 3.5e-4,0.02187 0,0.0011 0,0.0021 0,0.0032 0,0.0011 0,0.0021 0,0.0032 m -3.5e-4,-0.03881 c 0,-0.0067 -3.6e-4,-0.0134 -3.6e-4,-0.02011 0,0.0067 3.6e-4,0.01341 3.6e-4,0.02011 m -3.6e-4,-0.03175 c -3.5e-4,-0.0085 -3.5e-4,-0.01764 -7e-4,-0.02611 0,3.53e-4 0,7.05e-4 0,0.0011 3.5e-4,0.0011 3.5e-4,0.0025 3.5e-4,0.0035 0,0.0067 0,0.01341 3.5e-4,0.02011 0,3.53e-4 0,7.06e-4 0,0.0014 v 0 m -7e-4,-0.03986 c -3.6e-4,-0.0053 -3.6e-4,-0.01058 -3.6e-4,-0.01588 0,0.0028 0,0.0056 0,0.0085 0,3.53e-4 0,7.06e-4 0,0.0014 3.6e-4,0.0021 3.6e-4,0.0039 3.6e-4,0.006 m -7.1e-4,-0.03598 c -3.5e-4,-0.006 -3.5e-4,-0.01199 -3.5e-4,-0.01799 0,0.0056 0,0.01235 3.5e-4,0.01799 m -7e-4,-0.03457 c -3.6e-4,-0.0039 -3.6e-4,-0.0085 -3.6e-4,-0.01235 0,0.0039 0,0.0085 3.6e-4,0.01235 m -0.001,-0.0448 c 0,-0.0021 -3.6e-4,-0.0042 -3.6e-4,-0.0063 0,0.0021 3.6e-4,0.0042 3.6e-4,0.0063 m -7.1e-4,-0.02716 c 0,-7.05e-4 0,-0.0018 0,-0.0028 0,0.0011 0,0.0018 0,0.0028"
       style="fill:#14929a;fill-opacity:1;fill-rule:nonzero;stroke:none;stroke-width:0.0352778"
       id="path1600" />
    <path
       d="m 177.0673,73.376706 c -0.36371,0 -0.69744,-0.134409 -0.89182,-0.451556 -0.36689,-0.600075 0.0286,-1.419225 -0.24412,-2.067983 -0.11183,-0.265642 -0.3295,-0.482953 -0.40393,-0.761647 -0.15946,-0.597253 0.38382,-1.180747 0.57679,-1.756481 2.85962,-1.383241 5.24192,-3.597627 6.83366,-6.329186 0.0949,0.05962 0.19508,0.11042 0.30162,0.149578 0.13053,0.04763 0.27235,0.07232 0.41311,0.07232 0.17427,0 0.34748,-0.03775 0.49706,-0.115006 0.072,-0.01129 0.14358,-0.0194 0.21343,-0.0194 0.049,0 0.0974,0.0039 0.14464,0.01341 0.55139,0.109361 0.65828,0.879122 0.45896,1.404761 -0.53481,1.410758 -2.19251,2.134658 -2.77953,3.52425 -0.36901,0.872772 -0.28117,1.94063 -0.86854,2.684286 -0.37889,0.479072 -0.97261,0.731661 -1.42487,1.142294 -0.61948,0.562328 -0.94086,1.389945 -1.53882,1.975203 -0.33196,0.325261 -0.83291,0.535164 -1.28764,0.535164 m 10.56288,-11.71963 c -0.37148,0 -0.65758,-0.385234 -0.7172,-0.759884 -0.0621,-0.389819 0.0367,-0.787047 0.0279,-1.181453 -0.018,-0.807861 -0.52599,-1.585383 -1.25907,-1.925813 -0.1718,-0.07973 -0.36512,-0.135467 -0.5528,-0.135467 -0.12347,0 -0.24447,0.02399 -0.35525,0.08149 -0.0564,0.02893 -0.10689,0.06914 -0.14993,0.116416 0.3041,-1.228019 0.46567,-2.512836 0.46567,-3.835047 0,-1.234369 -0.14499,-2.433814 -0.41134,-3.587044 2.2419,2.662414 3.62832,6.069894 3.72886,9.798755 0,0.0011 0,0.0021 0,0.0028 0,0.0071 3.5e-4,0.01376 3.5e-4,0.02081 0,0.0021 3.6e-4,0.0042 3.6e-4,0.0063 0,0.01058 3.5e-4,0.02152 7e-4,0.03246 0,0.0039 0,0.0085 3.6e-4,0.01235 0,0.0056 0,0.01094 3.5e-4,0.01658 0,0.006 0,0.01199 3.5e-4,0.01799 0,0.0071 3.5e-4,0.01341 3.5e-4,0.02011 0,0.0053 0,0.01058 3.6e-4,0.01588 0,0.0042 0,0.0092 0,0.01376 3.5e-4,0.0085 3.5e-4,0.01764 7e-4,0.02611 0,0.0039 0,0.0078 0,0.01164 0,0.0067 3.6e-4,0.01341 3.6e-4,0.02011 0,0.0039 0,0.0071 0,0.01058 3.5e-4,0.0095 3.5e-4,0.0187 3.5e-4,0.02822 0,0.0032 0,0.0064 3.5e-4,0.0095 0,0.0078 0,0.01552 0,0.02328 0,0.0025 0,0.0053 0,0.0078 0,7.06e-4 0,0.0018 0,0.0025 3.5e-4,0.0088 3.5e-4,0.01764 3.5e-4,0.02646 0,3.53e-4 0,0 0,3.53e-4 0,0.0028 0,0.0056 0,0.0085 0,0.0092 0,0.01764 3.6e-4,0.02681 0,0.0014 0,0.0032 0,0.0046 0,0.0014 0,0.0035 0,0.0049 0,0.0081 0,0.01552 0,0.02364 0,7.05e-4 0,0.0011 0,0.0018 0,0.0028 0,0.0053 0,0.0081 0,0.01023 0,0.02046 0,0.03069 v 0 c 0,0.174625 -0.008,0.347839 -0.0131,0.521053 -0.097,0.113947 -0.2039,0.221192 -0.33231,0.310445 -0.11713,0.08079 -0.24942,0.148166 -0.39159,0.160161 -0.0152,0.0014 -0.0303,0.0018 -0.0455,0.0018 m -3.97581,-0.09772 c -0.0187,0 -0.0374,-0.0011 -0.0568,-0.0028 -0.12135,-0.01341 -0.23001,-0.0695 -0.32984,-0.14217 0.50623,-0.961672 0.91651,-1.980494 1.2192,-3.045883 0.0169,0.05644 0.0466,0.109008 0.0903,0.153811 0.10265,0.105128 0.25576,0.147109 0.36477,0.245534 0.28787,0.26035 0.1404,0.731308 -0.0279,1.080911 -0.15311,0.319264 -0.30586,0.638175 -0.45932,0.957791 -0.16721,0.348545 -0.42686,0.752828 -0.80045,0.752828"
       style="fill:#84b92b;fill-opacity:1;fill-rule:nonzero;stroke:none;stroke-width:0.0352778"
       id="path1602" />
    <path
       d="m 166.62049,73.779578 c -0.3817,0 -0.76411,-0.03739 -1.14546,-0.07479 -0.38136,-0.03739 -0.76236,-0.07479 -1.14195,-0.07479 -0.2099,0 -0.41945,0.01164 -0.62829,0.04057 -0.0875,0.01235 -0.17322,0.03351 -0.25929,0.05115 -0.907,-0.630766 -1.74555,-1.353961 -2.5012,-2.155119 -1.89794,-2.014361 -3.27589,-4.524375 -3.91971,-7.315553 2.74179,3.256139 6.76522,5.397853 11.29382,5.642681 0.18027,0.191911 0.34678,0.39758 0.49107,0.626533 1.12924,1.796345 -0.2928,3.246261 -2.14736,3.259314 -0.0138,0 -0.0275,0 -0.0416,0"
       style="fill:#84b92b;fill-opacity:1;fill-rule:nonzero;stroke:none;stroke-width:0.0352778"
       id="path1604" />
  </g>
</svg>
