<svg width="155" height="73" viewBox="0 0 155 73" fill="none" xmlns="http://www.w3.org/2000/svg">
<path d="M62.4954 2.55514C89.368 1.95132 120.454 -2.8792 138.776 2.55511C154.655 7.38562 152.779 29.7266 154 41.8029C155.221 53.8792 150.495 64.1441 143.166 68.9746C135.837 73.8051 106.221 73.2013 64.6904 72.5975C31.4661 72.1144 10.4319 66.7605 4.32446 64.144C-1.53516 58.7098 2.43743 52.9131 0.483062 41.8029C-1.9599 27.9152 5.35123 17.6505 11.4586 11.0085C17.566 4.36659 35.6228 3.15895 62.4954 2.55514Z" fill="url(#paint0_linear_69_2)"/>
<path d="M62.5003 6.99999C86.9841 6.49999 115.307 2.49997 132 6.99997C146.468 11 142.662 29.4999 143.774 39.4999C144.887 49.4999 142.678 58 136 62C129.323 66 102.339 65.5 64.5001 65C34.2292 64.6 15.0646 60.1666 9.50012 57.9999C4.16136 53.5 7.78082 48.6999 6.00018 39.4999C3.77437 27.9999 10.4356 19.5 16.0001 14C21.5647 8.5 38.0164 7.49999 62.5003 6.99999Z" fill="url(#paint1_linear_69_2)"/>
<g opacity="0.64">
<path d="M36 35C60.4839 34.5 47.8065 46.5 64.5 51C78.9678 55 99.8871 47.9999 101 57.9999C102.113 67.9999 142.677 58 136 62C131.227 64.8595 116.076 65.4193 94 65.3234C96.5412 59.7468 83.9041 63.8388 62.5001 57C55.1963 54.6664 55.8044 45.4347 48.0001 41C40.9013 36.9662 23.3653 38.3609 18.5001 33.5C13.5468 28.5511 12.3281 22.8984 12.3281 18C13.5358 16.5257 14.7937 15.1923 16 14C21.5645 8.5 11.5161 35.5 36 35Z" fill="url(#paint2_linear_69_2)"/>
<path d="M36 35C60.4839 34.5 47.8065 46.5 64.5 51C78.9678 55 99.8871 47.9999 101 57.9999C102.113 67.9999 142.677 58 136 62C131.227 64.8595 116.076 65.4193 94 65.3234C96.5412 59.7468 83.9041 63.8388 62.5001 57C55.1963 54.6664 55.8044 45.4347 48.0001 41C40.9013 36.9662 23.3653 38.3609 18.5001 33.5C13.5468 28.5511 12.3281 22.8984 12.3281 18C13.5358 16.5257 14.7937 15.1923 16 14C21.5645 8.5 11.5161 35.5 36 35Z" fill="url(#paint3_linear_69_2)"/>
</g>
<path d="M26.5442 30.68C31.8688 31.9026 39.3599 30.1031 43.276 26.6607C47.1921 23.2182 46.0502 19.4364 40.7256 18.2138C35.4009 16.9911 27.9099 18.7907 23.9938 22.2331C20.0777 25.6755 21.2196 29.4573 26.5442 30.68Z" fill="url(#paint4_linear_69_2)"/>
<path d="M130.083 53.6608C126.166 57.1032 118.675 58.9027 113.351 57.6801C108.026 56.4574 117.6 56.4424 121.516 53C125.432 49.5576 122.869 48.0105 128.194 49.2332C133.518 50.4558 133.999 50.2183 130.083 53.6608Z" fill="url(#paint5_linear_69_2)"/>
<path d="M19.0085 46V25.6364H22.6974V42.9077H31.6662V46H19.0085ZM39.1037 46.3082C38.1359 46.3082 37.2642 46.1359 36.4886 45.7912C35.7197 45.4399 35.1098 44.9228 34.6591 44.2401C34.215 43.5573 33.9929 42.7154 33.9929 41.7145C33.9929 40.8527 34.152 40.1402 34.4702 39.5767C34.7884 39.0133 35.2225 38.5625 35.7727 38.2244C36.3229 37.8864 36.9427 37.6312 37.6321 37.4588C38.3281 37.2798 39.0473 37.1506 39.7898 37.071C40.6847 36.9782 41.4105 36.8954 41.9673 36.8224C42.5241 36.7429 42.9285 36.6236 43.1804 36.4645C43.4389 36.2988 43.5682 36.0436 43.5682 35.6989V35.6392C43.5682 34.8902 43.3461 34.3101 42.902 33.8991C42.4579 33.4882 41.8182 33.2827 40.983 33.2827C40.1013 33.2827 39.402 33.4749 38.8849 33.8594C38.3745 34.2438 38.0298 34.6979 37.8509 35.2216L34.4901 34.7443C34.7552 33.8163 35.1927 33.0407 35.8026 32.4176C36.4124 31.7879 37.1581 31.3172 38.0398 31.0057C38.9214 30.6875 39.8958 30.5284 40.9631 30.5284C41.6989 30.5284 42.4313 30.6146 43.1605 30.7869C43.8897 30.9593 44.5559 31.2443 45.1591 31.642C45.7623 32.0331 46.2462 32.5668 46.6108 33.2429C46.982 33.919 47.1676 34.7642 47.1676 35.7784V46H43.7074V43.902H43.5881C43.3693 44.3262 43.0611 44.724 42.6634 45.0952C42.2723 45.4598 41.7784 45.7547 41.1818 45.9801C40.5919 46.1989 39.8991 46.3082 39.1037 46.3082ZM40.0384 43.6634C40.7609 43.6634 41.3873 43.5208 41.9176 43.2358C42.4479 42.9441 42.8556 42.5597 43.1406 42.0824C43.4323 41.6051 43.5781 41.0848 43.5781 40.5213V38.7216C43.4654 38.8144 43.2732 38.9006 43.0014 38.9801C42.7363 39.0597 42.438 39.1293 42.1065 39.1889C41.7751 39.2486 41.447 39.3016 41.1222 39.348C40.7973 39.3944 40.5156 39.4342 40.277 39.4673C39.7401 39.5402 39.2595 39.6596 38.8352 39.8253C38.411 39.991 38.0762 40.223 37.831 40.5213C37.5857 40.813 37.4631 41.1908 37.4631 41.6548C37.4631 42.3177 37.705 42.8182 38.1889 43.1562C38.6728 43.4943 39.2893 43.6634 40.0384 43.6634ZM54.3864 37.0511V46H50.7869V30.7273H54.2273V33.3224H54.4062C54.7576 32.4673 55.3177 31.7879 56.0866 31.2841C56.8622 30.7803 57.8201 30.5284 58.9602 30.5284C60.0142 30.5284 60.9323 30.7538 61.7145 31.2045C62.5033 31.6553 63.1132 32.3082 63.544 33.1634C63.9815 34.0185 64.197 35.0559 64.1903 36.2756V46H60.5909V36.8324C60.5909 35.8116 60.3258 35.0128 59.7955 34.4361C59.2718 33.8594 58.5459 33.571 57.6179 33.571C56.9882 33.571 56.428 33.7102 55.9375 33.9886C55.4536 34.2604 55.0724 34.6548 54.794 35.1719C54.5223 35.6889 54.3864 36.3153 54.3864 37.0511ZM67.8494 30.7273H71.4489V46.875C71.4489 47.9754 71.2401 48.8835 70.8224 49.5994C70.4048 50.3153 69.8016 50.849 69.0128 51.2003C68.224 51.5516 67.2661 51.7273 66.1392 51.7273C66.0066 51.7273 65.884 51.724 65.7713 51.7173C65.6586 51.7173 65.536 51.714 65.4034 51.7074V48.7741C65.5028 48.7808 65.5923 48.7841 65.6719 48.7841C65.7514 48.7907 65.8343 48.794 65.9205 48.794C66.6098 48.794 67.1037 48.625 67.402 48.2869C67.7003 47.9555 67.8494 47.4683 67.8494 46.8253V30.7273ZM69.6392 28.5597C69.0625 28.5597 68.5687 28.3707 68.1577 27.9929C67.7533 27.6084 67.5511 27.1477 67.5511 26.6108C67.5511 26.0672 67.7533 25.6065 68.1577 25.2287C68.5687 24.8442 69.0625 24.652 69.6392 24.652C70.2093 24.652 70.6965 24.8442 71.1009 25.2287C71.5118 25.6065 71.7173 26.0672 71.7173 26.6108C71.7173 27.1477 71.5118 27.6084 71.1009 27.9929C70.6965 28.3707 70.2093 28.5597 69.6392 28.5597ZM84.8846 39.5767V30.7273H88.484V46H84.994V43.2855H84.8349C84.4902 44.1406 83.9234 44.84 83.1346 45.3835C82.3524 45.9271 81.3879 46.1989 80.2411 46.1989C79.2402 46.1989 78.3552 45.9768 77.5863 45.5327C76.824 45.0819 76.2274 44.429 75.7965 43.5739C75.3656 42.7121 75.1502 41.6714 75.1502 40.4517V30.7273H78.7496V39.8949C78.7496 40.8627 79.0148 41.6316 79.5451 42.2017C80.0754 42.7718 80.7714 43.0568 81.6332 43.0568C82.1635 43.0568 82.6772 42.9276 83.1744 42.669C83.6715 42.4105 84.0792 42.026 84.3974 41.5156C84.7222 40.9986 84.8846 40.3523 84.8846 39.5767ZM99.8118 30.7273V33.5114H91.032V30.7273H99.8118ZM93.1996 27.0682H96.799V41.4062C96.799 41.8902 96.8719 42.2614 97.0178 42.5199C97.1702 42.7718 97.3691 42.9441 97.6143 43.0369C97.8596 43.1297 98.1314 43.1761 98.4297 43.1761C98.6551 43.1761 98.8606 43.1596 99.0462 43.1264C99.2384 43.0933 99.3842 43.0634 99.4837 43.0369L100.09 45.8509C99.898 45.9171 99.6229 45.9901 99.2649 46.0696C98.9136 46.1491 98.4827 46.1955 97.9723 46.2088C97.0708 46.2353 96.2588 46.0994 95.5362 45.8011C94.8137 45.4962 94.2403 45.0256 93.8161 44.3892C93.3984 43.7528 93.1929 42.9574 93.1996 42.0028V27.0682Z" fill="#EF5C00"/>
<path d="M133.161 35.5L115.661 15C114.827 15.1667 113.661 15.2 113.661 16C113.661 16.8 118.994 30 121.661 36.5C116.661 42.6667 107.461 55.4 110.661 57C113.861 58.6 126.994 43.3333 133.161 35.5Z" fill="#EF5C00"/>
<defs>
<linearGradient id="paint0_linear_69_2" x1="17.3359" y1="21.8772" x2="35.889" y2="83.4787" gradientUnits="userSpaceOnUse">
<stop stop-color="white"/>
<stop offset="1" stop-color="#FFFBF4"/>
</linearGradient>
<linearGradient id="paint1_linear_69_2" x1="21.3549" y1="23" x2="35.5231" y2="74.7593" gradientUnits="userSpaceOnUse">
<stop stop-color="#FEDB5C"/>
<stop offset="1" stop-color="#FE9F02"/>
</linearGradient>
<linearGradient id="paint2_linear_69_2" x1="111" y1="55" x2="53.2967" y2="3.95081" gradientUnits="userSpaceOnUse">
<stop stop-color="#FEDB5C"/>
<stop offset="1" stop-color="#FE9F02"/>
</linearGradient>
<linearGradient id="paint3_linear_69_2" x1="111" y1="55" x2="53.2967" y2="3.95081" gradientUnits="userSpaceOnUse">
<stop stop-color="#FEDB5C"/>
<stop offset="1" stop-color="#FE9F02"/>
</linearGradient>
<linearGradient id="paint4_linear_69_2" x1="40.7256" y1="18.2138" x2="37.2962" y2="33.1489" gradientUnits="userSpaceOnUse">
<stop stop-color="white"/>
<stop offset="1" stop-color="white" stop-opacity="0"/>
</linearGradient>
<linearGradient id="paint5_linear_69_2" x1="127.532" y1="45.2138" x2="124.103" y2="60.1489" gradientUnits="userSpaceOnUse">
<stop stop-color="white"/>
<stop offset="1" stop-color="white" stop-opacity="0"/>
</linearGradient>
</defs>
</svg>
