<svg width="155" height="73" viewBox="0 0 155 73" fill="none" xmlns="http://www.w3.org/2000/svg">
<path d="M62.4954 2.55514C89.368 1.95132 120.454 -2.8792 138.776 2.55511C154.655 7.38562 152.779 29.7266 154 41.8029C155.221 53.8792 150.495 64.1441 143.166 68.9746C135.837 73.8051 106.221 73.2013 64.6904 72.5975C31.4661 72.1144 10.4319 66.7605 4.32446 64.144C-1.53516 58.7098 2.43743 52.9131 0.483062 41.8029C-1.9599 27.9152 5.35123 17.6505 11.4586 11.0085C17.566 4.36659 35.6228 3.15895 62.4954 2.55514Z" fill="url(#paint0_linear_36_31)"/>
<path d="M62.5001 6.99999C86.984 6.49999 115.307 2.49997 132 6.99997C146.468 11 142.661 29.4999 143.774 39.4999C144.887 49.4999 142.677 58 136 62C129.323 66 102.339 65.5 64.5 65C34.229 64.6 15.0645 60.1666 9.5 57.9999C4.16124 53.5 7.7807 48.6999 6.00006 39.4999C3.77425 27.9999 10.4355 19.5 16 14C21.5645 8.5 38.0163 7.49999 62.5001 6.99999Z" fill="url(#paint1_linear_36_31)"/>
<g opacity="0.64">
<path d="M35.9999 35C60.4838 34.5 47.8063 46.5 64.4999 51C78.9676 55 99.887 47.9999 101 57.9999C102.113 67.9999 142.677 58 136 62C131.226 64.8595 116.075 65.4193 93.9999 65.3234C96.5411 59.7468 83.9039 63.8388 62.5 57C55.1962 54.6664 55.8043 45.4347 48 41C40.9012 36.9662 23.3652 38.3609 18.5 33.5C13.5467 28.5511 12.328 22.8984 12.328 18C13.5357 16.5257 14.7936 15.1923 15.9999 14C21.5644 8.5 11.516 35.5 35.9999 35Z" fill="url(#paint2_linear_36_31)"/>
<path d="M35.9999 35C60.4838 34.5 47.8063 46.5 64.4999 51C78.9676 55 99.887 47.9999 101 57.9999C102.113 67.9999 142.677 58 136 62C131.226 64.8595 116.075 65.4193 93.9999 65.3234C96.5411 59.7468 83.9039 63.8388 62.5 57C55.1962 54.6664 55.8043 45.4347 48 41C40.9012 36.9662 23.3652 38.3609 18.5 33.5C13.5467 28.5511 12.328 22.8984 12.328 18C13.5357 16.5257 14.7936 15.1923 15.9999 14C21.5644 8.5 11.516 35.5 35.9999 35Z" fill="url(#paint3_linear_36_31)"/>
</g>
<path d="M26.5443 30.68C31.869 31.9026 39.3601 30.1031 43.2761 26.6607C47.1922 23.2182 46.0503 19.4364 40.7257 18.2138C35.4011 16.9911 27.91 18.7907 23.9939 22.2331C20.0778 25.6755 21.2197 29.4573 26.5443 30.68Z" fill="url(#paint4_linear_36_31)"/>
<path d="M130.083 53.6608C126.166 57.1032 118.675 58.9027 113.351 57.6801C108.026 56.4574 117.6 56.4424 121.516 53C125.432 49.5576 122.869 48.0105 128.194 49.2332C133.518 50.4558 133.999 50.2183 130.083 53.6608Z" fill="url(#paint5_linear_36_31)"/>
<path d="M33.9659 24.7273H38.1818V39.9318C38.1818 41.5985 37.7879 43.0644 37 44.3295C36.2197 45.5947 35.1212 46.5833 33.7045 47.2955C32.2879 48 30.6326 48.3523 28.7386 48.3523C26.8371 48.3523 25.178 48 23.7614 47.2955C22.3447 46.5833 21.2462 45.5947 20.4659 44.3295C19.6856 43.0644 19.2955 41.5985 19.2955 39.9318V24.7273H23.5114V39.5795C23.5114 40.5492 23.7235 41.4129 24.1477 42.1705C24.5795 42.928 25.1856 43.5227 25.9659 43.9545C26.7462 44.3788 27.6705 44.5909 28.7386 44.5909C29.8068 44.5909 30.7311 44.3788 31.5114 43.9545C32.2992 43.5227 32.9053 42.928 33.3295 42.1705C33.7538 41.4129 33.9659 40.5492 33.9659 39.5795V24.7273ZM51.946 24.7273H56.1278V41.0909C56.1203 42.5909 55.8021 43.8826 55.1733 44.9659C54.5445 46.0417 53.6657 46.8712 52.5369 47.4545C51.4157 48.0303 50.1089 48.3182 48.6165 48.3182C47.2528 48.3182 46.0256 48.0758 44.9347 47.5909C43.8513 47.0985 42.9915 46.3712 42.3551 45.4091C41.7188 44.447 41.4006 43.25 41.4006 41.8182H45.5938C45.6013 42.447 45.7377 42.9886 46.0028 43.4432C46.2756 43.8977 46.6506 44.2462 47.1278 44.4886C47.6051 44.7311 48.1544 44.8523 48.7756 44.8523C49.4498 44.8523 50.0218 44.7121 50.4915 44.4318C50.9612 44.1439 51.3172 43.7197 51.5597 43.1591C51.8097 42.5985 51.9384 41.9091 51.946 41.0909V24.7273ZM69.8835 24.7273H74.0653V41.0909C74.0578 42.5909 73.7396 43.8826 73.1108 44.9659C72.482 46.0417 71.6032 46.8712 70.4744 47.4545C69.3532 48.0303 68.0464 48.3182 66.554 48.3182C65.1903 48.3182 63.9631 48.0758 62.8722 47.5909C61.7888 47.0985 60.929 46.3712 60.2926 45.4091C59.6563 44.447 59.3381 43.25 59.3381 41.8182H63.5312C63.5388 42.447 63.6752 42.9886 63.9403 43.4432C64.2131 43.8977 64.5881 44.2462 65.0653 44.4886C65.5426 44.7311 66.0919 44.8523 66.7131 44.8523C67.3873 44.8523 67.9593 44.7121 68.429 44.4318C68.8987 44.1439 69.2547 43.7197 69.4972 43.1591C69.7472 42.5985 69.8759 41.9091 69.8835 41.0909V24.7273ZM82.8551 24.7273V48H78.6392V24.7273H82.8551ZM90.4091 48H85.9091L94.1023 24.7273H99.3068L107.511 48H103.011L96.7955 29.5H96.6136L90.4091 48ZM90.5568 38.875H102.83V42.2614H90.5568V38.875ZM129.702 24.7273V48H125.952L114.986 32.1477H114.793V48H110.577V24.7273H114.349L125.304 40.5909H125.509V24.7273H129.702Z" fill="#EF5C00"/>
<defs>
<linearGradient id="paint0_linear_36_31" x1="17.3359" y1="21.8772" x2="35.889" y2="83.4787" gradientUnits="userSpaceOnUse">
<stop stop-color="white"/>
<stop offset="1" stop-color="#FFFBF4"/>
</linearGradient>
<linearGradient id="paint1_linear_36_31" x1="21.3548" y1="23" x2="35.5229" y2="74.7593" gradientUnits="userSpaceOnUse">
<stop stop-color="#FEDB5C"/>
<stop offset="1" stop-color="#FE9F02"/>
</linearGradient>
<linearGradient id="paint2_linear_36_31" x1="111" y1="55" x2="53.2965" y2="3.95081" gradientUnits="userSpaceOnUse">
<stop stop-color="#FEDB5C"/>
<stop offset="1" stop-color="#FE9F02"/>
</linearGradient>
<linearGradient id="paint3_linear_36_31" x1="111" y1="55" x2="53.2965" y2="3.95081" gradientUnits="userSpaceOnUse">
<stop stop-color="#FEDB5C"/>
<stop offset="1" stop-color="#FE9F02"/>
</linearGradient>
<linearGradient id="paint4_linear_36_31" x1="40.7257" y1="18.2138" x2="37.2963" y2="33.1489" gradientUnits="userSpaceOnUse">
<stop stop-color="white"/>
<stop offset="1" stop-color="white" stop-opacity="0"/>
</linearGradient>
<linearGradient id="paint5_linear_36_31" x1="127.532" y1="45.2138" x2="124.103" y2="60.1489" gradientUnits="userSpaceOnUse">
<stop stop-color="white"/>
<stop offset="1" stop-color="white" stop-opacity="0"/>
</linearGradient>
</defs>
</svg>
